SplineFontDB: 3.0
FontName: TeXLove
FullName: TeX <3
FamilyName: TeX <3
Weight: Regular
Copyright: TeXLove (<3) 2012 Thomas Eriksson.\n\nCopyright 2003, 2009 B. Jackowski and J. M. Nowacki (on behalf of TeX users groups). This work is released under the GUST Font License --  see http://tug.org/fonts/licenses/GUST-FONT-LICENSE.txt for details.
Version: 2.004
ItalicAngle: 0
UnderlinePosition: -106
UnderlineWidth: 40
Ascent: 806
Descent: 194
sfntRevision: 0x00020106
LayerCount: 2
Layer: 0 0 "Back"  1
Layer: 1 0 "Fore"  0
XUID: [1021 777 149012601 16102352]
FSType: 8
OS2Version: 3
OS2_WeightWidthSlopeOnly: 0
OS2_UseTypoMetrics: 1
CreationTime: 1254995892
ModificationTime: 1347390113
PfmFamily: 49
TTFWeight: 400
TTFWidth: 5
LineGap: 0
VLineGap: 0
Panose: 0 0 5 0 0 0 0 0 0 0
OS2TypoAscent: 0
OS2TypoAOffset: 1
OS2TypoDescent: 0
OS2TypoDOffset: 1
OS2TypoLinegap: 200
OS2WinAscent: 0
OS2WinAOffset: 1
OS2WinDescent: 0
OS2WinDOffset: 1
HheadAscent: 0
HheadAOffset: 1
HheadDescent: 0
HheadDOffset: 1
OS2SubXSize: 650
OS2SubYSize: 600
OS2SubXOff: 0
OS2SubYOff: 75
OS2SupXSize: 650
OS2SupYSize: 600
OS2SupXOff: 0
OS2SupYOff: 350
OS2StrikeYSize: 40
OS2StrikeYPos: 258
OS2Vendor: 'TX<3'
OS2CodePages: 20000193.00000000
OS2UnicodeRanges: 20000007.00000000.00000000.00000000
Lookup: 1 0 0 "'aalt' Access All Alternates lookup 0"  {"'aalt' Access All Alternates lookup 0 subtable"  } ['aalt' ('DFLT' <'dflt' > 'cyrl' <'dflt' > 'latn' <'AZE ' 'CRT ' 'MOL ' 'NLD ' 'PLK ' 'ROM ' 'TRK ' 'dflt' > ) ]
Lookup: 3 0 0 "'aalt' Access All Alternates lookup 1"  {"'aalt' Access All Alternates lookup 1 subtable"  } ['aalt' ('DFLT' <'dflt' > 'cyrl' <'dflt' > 'latn' <'AZE ' 'CRT ' 'MOL ' 'NLD ' 'PLK ' 'ROM ' 'TRK ' 'dflt' > ) ]
Lookup: 1 0 0 "'locl' Localized Forms in Latin lookup 2"  {"'locl' Localized Forms in Latin lookup 2 subtable"  } ['locl' ('latn' <'MOL ' 'ROM ' > ) ]

StartChar: acute.dup
Encoding: 65537 -1 1
Width: 550
Flags: HMW
HStem: 510 21G<199 199> 678 20G<324.5 341>
LayerCount: 2
Fore
SplineSet
368 662 m 0
 368 650 360 639 351 632 c 2
 199 510 l 1
 182 528 l 1
 302 681 l 2
 306 687 317 698 332 698 c 0
 350 698 368 680 368 662 c 0
EndSplineSet
EndChar

StartChar: AE.dup
Encoding: 65538 -1 2
Width: 550
Flags: HMW
HStem: 0 31<-146 -111 161 194 370 465 465 549> 313 31<88 238 88 238 77 238 321 406> 652 31<80 125 80 640 346.5 370 370 465>
VStem: -3 83 238 83<76 313 344 604 604 612> 509 25<196 238 419 461> 643 25<458 458> 671 25<258 258>
LayerCount: 2
Fore
SplineSet
696 258 m 1
 654 0 l 1
 161 0 l 1
 161 31 l 1
 227 31 238 31 238 76 c 2
 238 313 l 1
 77 313 l 1
 2 103 l 2
 -3 90 -3 89 -3 81 c 0
 -3 56 21 32 71 31 c 1
 71 0 l 1
 -44 3 l 1
 -84 3 -124 1 -146 0 c 1
 -146 31 l 1
 -76 31 -47 59 -33 98 c 2
 165 651 l 1
 152 651 138 652 125 652 c 2
 80 652 l 1
 80 683 l 1
 640 683 l 1
 668 458 l 1
 643 458 l 1
 627 594 607 652 465 652 c 2
 370 652 l 2
 323 652 321 645 321 612 c 2
 321 344 l 1
 406 344 l 2
 500 344 509 377 509 461 c 1
 534 461 l 1
 534 196 l 1
 509 196 l 1
 509 280 500 313 406 313 c 2
 321 313 l 1
 321 71 l 2
 321 38 323 31 370 31 c 2
 465 31 l 2
 633 31 646 110 671 258 c 1
 696 258 l 1
238 344 m 1
 238 604 l 2
 238 620 238 647 197 648 c 1
 88 344 l 1
 238 344 l 1
EndSplineSet
EndChar

StartChar: ae.dup
Encoding: 65539 -1 3
Width: 550
Flags: HMW
HStem: -11 22<91.5 150.5> 111 21 132 22 229 21<232 232> 231 21<302 533 302 574 301 533> 288 93 426 22<108 151.5 413 478.5>
VStem: -49 77<68.5 119 68.5 140> 69 57 244 57<122.5 133.5> 533 66<252 252>
LayerCount: 2
Fore
SplineSet
599 119 m 0x4ee0
 599 100 557 -11 444 -11 c 0
 414 -11 336 -3 277 78 c 1
 253 29 191 -11 110 -11 c 0
 43 -11 -49 13 -49 92 c 0
 -49 188 70 250 232 250 c 1x9120
 232 298 l 2
 232 385 177 426 126 426 c 0
 90 426 43 412 18 380 c 1
 64 379 69 346 69 334 c 0
 69 308 51 288 23 288 c 0
 -3 288 -23 305 -23 335 c 0
 -23 402 48 448 128 448 c 0
 192 448 252 419 281 371 c 1
 332 432 388 448 432 448 c 0
 541 448 599 363 599 252 c 0
 599 231 596 231 574 231 c 2
 301 231 l 1
 301 14 438 14 448 14 c 0
 510 14 556 61 571 111 c 0
 576 127 577 131 586 131 c 0
 591 131 599 129 599 119 c 0x4ee0
533 252 m 1
 531 291 526 426 431 426 c 0
 395 426 312 398 302 252 c 1x8b20
 533 252 l 1
244 132 m 0
 244 135 244 143 241 154 c 0
 232 185 232 205 232 229 c 1x3040
 70 223 28 146 28 92 c 0
 28 45 68 11 115 11 c 0
 187 11 244 68 244 132 c 0
EndSplineSet
EndChar

StartChar: cedilla.dup
Encoding: 65540 -1 4
Width: 550
Flags: HMW
HStem: -200 26<141.5 154.5 154.5 167.5 141.5 154.5> -92 26
VStem: 248.5 52<-66 5 -66 5 -66 5> 324.5 84<-153.5 -117>
LayerCount: 2
Fore
SplineSet
408.5 -133 m 0
 408.5 -200 275.5 -200 167.5 -200 c 2
 141.5 -200 l 1
 141.5 -174 l 1
 154.5 -174 l 2
 229.5 -174 324.5 -174 324.5 -133 c 0
 324.5 -101 285.5 -92 248.5 -92 c 1
 248.5 5 l 1
 300.5 5 l 1
 300.5 -66 l 1
 354.5 -66 408.5 -86 408.5 -133 c 0
EndSplineSet
EndChar

StartChar: circumflex.dup
Encoding: 65541 -1 5
Width: 550
Flags: HMW
HStem: 516 21G<136 136 414 414> 672 20G<275 275>
LayerCount: 2
Fore
SplineSet
427 530 m 1
 414 516 l 1
 275 624 l 1
 136 516 l 1
 123 530 l 1
 275 692 l 1
 427 530 l 1
EndSplineSet
EndChar

StartChar: dieresis.dup
Encoding: 65542 -1 6
Width: 550
Flags: HMW
HStem: 557 95<172 200 171 201 350 378>
VStem: 137.5 97<593.5 616> 315.5 97<593.5 616>
LayerCount: 2
Fore
SplineSet
234.5 605 m 0
 234.5 582 216.5 557 185.5 557 c 0
 158.5 557 137.5 580 137.5 605 c 0
 137.5 627 155.5 652 186.5 652 c 0
 213.5 652 234.5 629 234.5 605 c 0
412.5 605 m 0
 412.5 582 394.5 557 363.5 557 c 0
 336.5 557 315.5 580 315.5 605 c 0
 315.5 627 333.5 652 364.5 652 c 0
 391.5 652 412.5 629 412.5 605 c 0
EndSplineSet
EndChar

StartChar: Gcedilla
Encoding: 65543 -1 7
Width: 550
Flags: HMW
HStem: -290 21G<245.5 252> -145 79<254.5 273> -22 31<269 315.5 269 322> 242 31<331.5 363.5 331.5 331.5> 674 31<265.5 333 190.5 349>
VStem: -64.5 103<239.5 444.5> 456.5 89<130 194 194 198>
LayerCount: 2
Fore
SplineSet
614.5 242 m 1
 549.5 242 545.5 237 545.5 198 c 2
 545.5 24 l 2
 545.5 9 545.5 1 536.5 1 c 0
 525.5 1 485.5 41 472.5 63 c 1
 438.5 4 358.5 -22 285.5 -22 c 0
 95.5 -22 -64.5 137 -64.5 342 c 0
 -64.5 547 97.5 705 283.5 705 c 0
 382.5 705 436.5 651 468.5 619 c 1
 518.5 693 l 2
 526.5 705 530.5 705 534.5 705 c 0
 545.5 705 545.5 698 545.5 681 c 2
 545.5 444 l 2
 545.5 423 545.5 420 529.5 420 c 0
 515.5 420 515.5 423 513.5 437 c 0
 493.5 584 402.5 674 295.5 674 c 0
 235.5 674 38.5 641 38.5 342 c 0
 38.5 44 236.5 9 301.5 9 c 0
 329.5 9 456.5 18 456.5 130 c 2
 456.5 194 l 2
 456.5 231 453.5 242 363.5 242 c 2
 331.5 242 l 1
 331.5 273 l 1
 367.5 270 452.5 270 492.5 270 c 2
 614.5 273 l 1
 614.5 242 l 1
315.5 -145 m 0
 315.5 -231 256.5 -290 247.5 -290 c 0
 243.5 -290 239.5 -287 239.5 -282 c 0
 239.5 -279 240.5 -278 244.5 -274 c 0
 277.5 -238 298.5 -193 297.5 -133 c 1
 289.5 -141 278.5 -145 267.5 -145 c 0
 240.5 -145 227.5 -125 227.5 -106 c 0
 227.5 -86 241.5 -66 267.5 -66 c 0
 297.5 -66 315.5 -97 315.5 -145 c 0
EndSplineSet
EndChar

StartChar: gcedilla
Encoding: 65544 -1 8
Width: 550
Flags: HMW
HStem: -206 23<218 317.5 218 326.5> 7 58<180.5 283> 110 23 149 23<231 260.5 197 287> 419 23<220.5 251.5 194 284> 430 23 514 79<232 250.5> 718 20G<253 259.5>
VStem: 46.5 52<-105.5 -59> 78.5 75<283.5 308.5 283.5 334.5> 94.5 75 125.5 52 177.5 75<66 66> 327.5 75<282.5 307.5> 437.5 52<-106 -59.5 -116 -36> 451.5 52<392.5 431>
LayerCount: 2
Fore
SplineSet
277.5 554 m 0x07
 277.5 534 263.5 514 237.5 514 c 0
 207.5 514 189.5 545 189.5 593 c 0
 189.5 679 248.5 738 257.5 738 c 0
 261.5 738 265.5 735 265.5 730 c 0
 265.5 727 264.5 726 260.5 722 c 0
 227.5 686 206.5 641 207.5 581 c 1
 215.5 589 226.5 593 237.5 593 c 0
 264.5 593 277.5 573 277.5 554 c 0x07
503.5 404 m 0
 503.5 381 484.5 374 474.5 374 c 0
 458.5 374 445.5 386 445.5 403 c 0
 445.5 415 450.5 426 461.5 430 c 1
 458.5 431 451.5 431 451.5 431 c 1x1441
 433.5 431 397.5 426 361.5 392 c 1
 386.5 369 402.5 332 402.5 295 c 0
 402.5 218 333.5 149 240.5 149 c 0
 221.5 149 180.5 152 141.5 180 c 1
 124.5 160 124.5 137 124.5 133 c 0
 124.5 101 145.5 70 177.5 66 c 0
 184.5 65 227.5 65 252.5 65 c 0
 313.5 65 371.5 65 424.5 37 c 0
 475.5 9 489.5 -42 489.5 -77 c 0
 489.5 -155 385.5 -206 267.5 -206 c 0
 145.5 -206 46.5 -151 46.5 -79 c 0xf08e
 46.5 -39 78.5 4 138.5 21 c 1
 107.5 41 94.5 79 94.5 110 c 0x2020
 94.5 145 112.5 178 125.5 193 c 1x0010
 100.5 214 78.5 252 78.5 296 c 0
 78.5 373 147.5 442 240.5 442 c 0x0840
 262.5 442 304.5 439 346.5 406 c 1
 388.5 447 432.5 453 452.5 453 c 0
 491.5 453 503.5 421 503.5 404 c 0
327.5 296 m 0
 327.5 319 327.5 419 240.5 419 c 0
 200.5 419 177.5 391 169.5 379 c 0x8824
 154.5 354 153.5 322 153.5 295 c 0
 153.5 272 153.5 172 240.5 172 c 0
 280.5 172 303.5 200 311.5 212 c 0
 326.5 237 327.5 269 327.5 296 c 0
437.5 -79 m 0
 437.5 7 325.5 7 239.5 7 c 2
 180.5 7 l 1
 136.5 4 98.5 -33 98.5 -79 c 0x4082
 98.5 -132 167.5 -183 268.5 -183 c 0
 366.5 -183 437.5 -133 437.5 -79 c 0
EndSplineSet
EndChar

StartChar: germandbls.dup
Encoding: 65545 -1 9
Width: 550
Flags: HMW
HStem: -11 22<314 337.5 314 364.5> 0 31<53.5 87> 31 71 102 71 400 31<53.5 131.5 53.5 131.5> 409 22 683 22<287.5 318>
VStem: 131.5 66<76 400 400 400 431 556 556 558 0 606> 151.5 75<3 77.5> 197.5 72 226.5 72<54 77 54 77.5> 269.5 66 318.5 75 321.5 72 393.5 75<534 600.5 534 608> 421.5 75<118 210 118 225>
LayerCount: 2
Fore
SplineSet
496.5 174 m 0x2b12
 496.5 62 407.5 -11 321.5 -11 c 0x8005
 263.5 -11 226.5 25 226.5 65 c 0
 226.5 90 245.5 102 262.5 102 c 0
 282.5 102 298.5 88 298.5 66 c 0
 298.5 42 279.5 32 268.5 30 c 1
 286.5 13 309.5 11 318.5 11 c 0
 356.5 11 421.5 44 421.5 173 c 0
 421.5 277 381.5 399 262.5 409 c 0x9429
 253.5 410 253.5 420 253.5 420 c 1
 253.5 430 260.5 430 269.5 431 c 0
 358.5 439 393.5 500 393.5 564 c 0
 393.5 652 338.5 683 297.5 683 c 0
 277.5 683 197.5 672 197.5 558 c 2
 197.5 0 l 1x4a44
 179.5 3 162.5 3 151.5 3 c 2
 53.5 0 l 1x4080
 53.5 31 l 1
 120.5 31 131.5 31 131.5 76 c 2
 131.5 400 l 1
 53.5 400 l 1
 53.5 431 l 1
 131.5 431 l 1
 131.5 556 l 2
 131.5 656 220.5 705 297.5 705 c 0
 396.5 705 468.5 638 468.5 563 c 0
 468.5 505 424.5 444 335.5 419 c 1
 464.5 366 496.5 246 496.5 174 c 0x2b12
EndSplineSet
EndChar

StartChar: hyphen.dup
Encoding: 65546 -1 10
Width: 550
Flags: HMW
HStem: 187 58<142.5 407.5 142.5 407.5>
VStem: 142.5 265<187 245 187 245>
LayerCount: 2
Fore
SplineSet
407.5 187 m 1
 142.5 187 l 1
 142.5 245 l 1
 407.5 245 l 1
 407.5 187 l 1
EndSplineSet
EndChar

StartChar: Kcedilla
Encoding: 65547 -1 11
Width: 550
Flags: HMW
HStem: -290 21G<253.5 260> -145 79<262.5 281> 0 31<-76.5 -52.5> 652 31<-76.5 -52.5 -76.5 -76.5>
VStem: 26.5 89<78 253 287 605>
LayerCount: 2
Fore
SplineSet
626.5 0 m 1
 511.5 3 l 2
 473.5 3 403.5 3 368.5 0 c 1
 368.5 31 l 1
 388.5 31 427.5 31 427.5 61 c 0
 427.5 73 418.5 86 412.5 95 c 2
 231.5 363 l 1
 115.5 253 l 1
 115.5 78 l 2
 115.5 42 117.5 31 194.5 31 c 2
 218.5 31 l 1
 218.5 0 l 1
 183.5 3 108.5 3 70.5 3 c 0
 32.5 3 -41.5 3 -76.5 0 c 1
 -76.5 31 l 1
 -52.5 31 l 2
 24.5 31 26.5 42 26.5 78 c 2
 26.5 605 l 2
 26.5 641 24.5 652 -52.5 652 c 2
 -76.5 652 l 1
 -76.5 683 l 1
 -41.5 680 33.5 680 71.5 680 c 0
 109.5 680 183.5 680 218.5 683 c 1
 218.5 652 l 1
 194.5 652 l 2
 117.5 652 115.5 641 115.5 605 c 2
 115.5 287 l 1
 428.5 586 l 2
 436.5 593 446.5 603 446.5 619 c 0
 446.5 628 440.5 651 400.5 652 c 1
 400.5 683 l 1
 434.5 680 491.5 680 527.5 680 c 0
 554.5 680 586.5 680 612.5 683 c 1
 612.5 652 l 1
 531.5 651 478.5 600 470.5 592 c 2
 290.5 419 l 1
 521.5 79 l 2
 551.5 35 572.5 31 626.5 31 c 1
 626.5 0 l 1
323.5 -145 m 0
 323.5 -231 264.5 -290 255.5 -290 c 0
 251.5 -290 247.5 -287 247.5 -282 c 0
 247.5 -279 248.5 -278 252.5 -274 c 0
 285.5 -238 306.5 -193 305.5 -133 c 1
 297.5 -141 286.5 -145 275.5 -145 c 0
 248.5 -145 235.5 -125 235.5 -106 c 0
 235.5 -86 249.5 -66 275.5 -66 c 0
 305.5 -66 323.5 -97 323.5 -145 c 0
EndSplineSet
EndChar

StartChar: kcedilla
Encoding: 65548 -1 12
Width: 550
Flags: HMW
HStem: -290 21G<243.5 250> -145 79<252.5 271> 0 31<33.5 67> 400 31<311.5 311.5> 652 31<33.5 68.5> 652 42
VStem: 111.5 66<214 596 596 620.5> 252.5 66 357.5 66
LayerCount: 2
Fore
SplineSet
516.5 0 m 1x3780
 487.5 2 458.5 3 429.5 3 c 2
 321.5 0 l 1
 321.5 31 l 1
 340.5 31 357.5 35 357.5 54 c 0
 357.5 72 315.5 128 238.5 234 c 1
 174.5 179 l 1
 174.5 76 l 2
 174.5 31 185.5 31 252.5 31 c 1
 252.5 0 l 1
 142.5 3 l 1
 33.5 0 l 1
 33.5 31 l 1
 100.5 31 111.5 31 111.5 76 c 2
 111.5 596 l 2
 111.5 645 103.5 652 33.5 652 c 1
 33.5 683 l 1xeb80
 177.5 694 l 1
 177.5 214 l 1
 318.5 336 l 2
 326.5 343 340.5 355 340.5 375 c 0
 340.5 388 330.5 399 311.5 400 c 1
 311.5 431 l 1
 325.5 430 387.5 428 423.5 428 c 0
 451.5 428 464.5 428 493.5 431 c 1
 493.5 400 l 1
 472.5 399 430.5 397 367.5 346 c 0
 357.5 338 286.5 278 286.5 274 c 0
 286.5 271 291.5 265 292.5 263 c 2
 419.5 84 l 2
 457.5 31 479.5 31 516.5 31 c 1
 516.5 0 l 1x3780
313.5 -145 m 0
 313.5 -231 254.5 -290 245.5 -290 c 0
 241.5 -290 237.5 -287 237.5 -282 c 0
 237.5 -279 238.5 -278 242.5 -274 c 0
 275.5 -238 296.5 -193 295.5 -133 c 1
 287.5 -141 276.5 -145 265.5 -145 c 0
 238.5 -145 225.5 -125 225.5 -106 c 0
 225.5 -86 239.5 -66 265.5 -66 c 0
 295.5 -66 313.5 -97 313.5 -145 c 0
EndSplineSet
EndChar

StartChar: Lcedilla
Encoding: 65549 -1 13
Width: 550
Flags: HMW
HStem: -290 21G<254.5 261> -145 79<263.5 282> 0 31<0.5 24.5 24.5 63 241.5 323.5 323.5 411.5 0.5 24.5> 238 20G<524.5 549.5 549.5 549.5> 652 31<0.5 24.5 0.5 0.5>
VStem: 103.5 89<78 604> 152.5 89 524.5 25<258 258>
LayerCount: 2
Fore
SplineSet
549.5 258 m 1x33
 521.5 0 l 1
 0.5 0 l 1
 0.5 31 l 1
 24.5 31 l 2
 101.5 31 103.5 42 103.5 78 c 2
 103.5 605 l 2xf5
 103.5 641 101.5 652 24.5 652 c 2
 0.5 652 l 1
 0.5 683 l 1
 35.5 680 113.5 680 152.5 680 c 0x0a
 193.5 680 284.5 680 320.5 683 c 1
 320.5 652 l 1
 287.5 652 l 2
 192.5 652 192.5 638 192.5 604 c 2
 192.5 71 l 2x0c
 192.5 38 194.5 31 241.5 31 c 2
 323.5 31 l 2
 499.5 31 513.5 156 524.5 258 c 1
 549.5 258 l 1x33
324.5 -145 m 0
 324.5 -231 265.5 -290 256.5 -290 c 0
 252.5 -290 248.5 -287 248.5 -282 c 0
 248.5 -279 249.5 -278 253.5 -274 c 0
 286.5 -238 307.5 -193 306.5 -133 c 1
 298.5 -141 287.5 -145 276.5 -145 c 0
 249.5 -145 236.5 -125 236.5 -106 c 0
 236.5 -86 250.5 -66 276.5 -66 c 0
 306.5 -66 324.5 -97 324.5 -145 c 0
EndSplineSet
EndChar

StartChar: lcedilla
Encoding: 65550 -1 14
Width: 550
Flags: HMW
HStem: -290 21G<244 250.5> -145 79<253 271.5> 0 31<164 197.5> 652 31<164 199> 652 42
VStem: 242 66<76 596 596 620.5>
LayerCount: 2
Fore
SplineSet
386 0 m 1x2c
 275 3 l 1
 164 0 l 1
 164 31 l 1
 231 31 242 31 242 76 c 2
 242 596 l 2
 242 645 234 652 164 652 c 1
 164 683 l 1xf4
 308 694 l 1
 308 76 l 2
 308 31 319 31 386 31 c 1
 386 0 l 1x2c
314 -145 m 0
 314 -231 255 -290 246 -290 c 0
 242 -290 238 -287 238 -282 c 0
 238 -279 239 -278 243 -274 c 0
 276 -238 297 -193 296 -133 c 1
 288 -141 277 -145 266 -145 c 0
 239 -145 226 -125 226 -106 c 0
 226 -86 240 -66 266 -66 c 0
 296 -66 314 -97 314 -145 c 0
EndSplineSet
EndChar

StartChar: macron.dup
Encoding: 65551 -1 15
Width: 550
Flags: HMW
HStem: 589 31<94.5 455.5 94.5 455.5>
LayerCount: 2
Fore
SplineSet
455.5 589 m 1
 94.5 589 l 1
 94.5 620 l 1
 455.5 620 l 1
 455.5 589 l 1
EndSplineSet
EndChar

StartChar: Ncedilla
Encoding: 65552 -1 16
Width: 550
Flags: HMW
HStem: -290 21G<249.5 256> -145 79<258.5 277> 0 31<-66.5 -15> 652 31<-66.5 -37.5 -66.5 103.5>
VStem: 36.5 28<105 625> 485.5 28<151 578>
LayerCount: 2
Fore
SplineSet
616.5 652 m 1
 513.5 652 513.5 605 513.5 578 c 2
 513.5 26 l 2
 513.5 7 513.5 0 499.5 0 c 0
 492.5 0 491.5 1 482.5 13 c 2
 74.5 613 l 2
 70.5 619 69.5 620 64.5 625 c 1
 64.5 105 l 2
 64.5 78 64.5 31 167.5 31 c 1
 167.5 0 l 1
 50.5 3 l 1
 -66.5 0 l 1
 -66.5 31 l 1
 36.5 31 36.5 78 36.5 105 c 2
 36.5 627 l 2
 36.5 646 35.5 647 12.5 650 c 0
 -2.5 651 -22.5 652 -37.5 652 c 2
 -66.5 652 l 1
 -66.5 683 l 1
 103.5 683 l 2
 122.5 683 123.5 682 132.5 670 c 2
 485.5 151 l 1
 485.5 578 l 2
 485.5 605 485.5 652 382.5 652 c 1
 382.5 683 l 1
 499.5 680 l 1
 616.5 683 l 1
 616.5 652 l 1
319.5 -145 m 0
 319.5 -231 260.5 -290 251.5 -290 c 0
 247.5 -290 243.5 -287 243.5 -282 c 0
 243.5 -279 244.5 -278 248.5 -274 c 0
 281.5 -238 302.5 -193 301.5 -133 c 1
 293.5 -141 282.5 -145 271.5 -145 c 0
 244.5 -145 231.5 -125 231.5 -106 c 0
 231.5 -86 245.5 -66 271.5 -66 c 0
 301.5 -66 319.5 -97 319.5 -145 c 0
EndSplineSet
EndChar

StartChar: ncedilla
Encoding: 65553 -1 17
Width: 550
Flags: HMW
HStem: -290 21G<243.5 250> -145 79<252.5 271> 0 31<23.5 57> 400 31<23.5 58.5> 420 22<276 337>
VStem: 101.5 69<76 260> 379.5 69<76 252 61 309 61 337.5>
LayerCount: 2
Fore
SplineSet
526.5 0 m 1x2a
 414.5 3 l 1
 301.5 0 l 1
 301.5 31 l 1
 368.5 31 379.5 31 379.5 76 c 2
 379.5 309 l 2
 379.5 366 368.5 420 305.5 420 c 0xea
 241.5 420 170.5 364 170.5 260 c 2
 170.5 76 l 2
 170.5 31 181.5 31 248.5 31 c 1
 248.5 0 l 1
 136.5 3 l 1
 23.5 0 l 1
 23.5 31 l 1
 90.5 31 101.5 31 101.5 76 c 2
 101.5 344 l 2
 101.5 393 93.5 400 23.5 400 c 1
 23.5 431 l 1x34
 164.5 442 l 1
 164.5 337 l 1
 192.5 399 239.5 442 312.5 442 c 0
 370.5 442 403.5 422 417.5 405 c 0
 448.5 369 448.5 338 448.5 252 c 2
 448.5 61 l 1
 449.5 31 474.5 31 526.5 31 c 1
 526.5 0 l 1x2a
313.5 -145 m 0
 313.5 -231 254.5 -290 245.5 -290 c 0
 241.5 -290 237.5 -287 237.5 -282 c 0
 237.5 -279 238.5 -278 242.5 -274 c 0
 275.5 -238 296.5 -193 295.5 -133 c 1
 287.5 -141 276.5 -145 265.5 -145 c 0
 238.5 -145 225.5 -125 225.5 -106 c 0
 225.5 -86 239.5 -66 265.5 -66 c 0
 295.5 -66 313.5 -97 313.5 -145 c 0
EndSplineSet
EndChar

StartChar: OE.dup
Encoding: 65554 -1 18
Width: 550
Flags: HMW
HStem: -22 22<87 160> 0 31<386.5 496.5 496.5 582> 339 31<337.5 445.5 337.5 445.5> 652 31<363 386.5 386.5 498.5> 683 22<88.5 153 61.5 195.5>
VStem: -182.5 100<255 444.5> 261.5 76<277.5 339 370 395> 559.5 25<222 265 444 487> 679.5 25<458 458> 707.5 25<258 258>
LayerCount: 2
Fore
SplineSet
732.5 258 m 1x73c0
 690.5 0 l 1
 303.5 0 l 2
 287.5 0 274.5 0 226.5 -11 c 0
 189.5 -19 172.5 -22 147.5 -22 c 0
 -24.5 -22 -182.5 130 -182.5 339 c 0
 -182.5 550 -24.5 705 147.5 705 c 0xae40
 158.5 705 175.5 705 217.5 695 c 0
 272.5 683 286.5 683 303.5 683 c 2
 676.5 683 l 1
 704.5 458 l 1
 679.5 458 l 1
 663.5 593 641.5 652 498.5 652 c 2
 386.5 652 l 2
 339.5 652 337.5 645 337.5 612 c 2
 337.5 370 l 1
 445.5 370 l 2
 545.5 370 559.5 401 559.5 487 c 1
 584.5 487 l 1
 584.5 222 l 1
 559.5 222 l 1
 559.5 308 545.5 339 445.5 339 c 2
 337.5 339 l 1
 337.5 71 l 2
 337.5 38 339.5 31 386.5 31 c 2
 496.5 31 l 2
 667.5 31 682.5 109 707.5 258 c 1
 732.5 258 l 1x73c0
261.5 341 m 0
 261.5 449 261.5 534 256.5 578 c 0
 250.5 635 239.5 683 151.5 683 c 0
 25.5 683 -82.5 544 -82.5 354 c 0
 -82.5 156 22.5 0 151.5 0 c 0
 235.5 0 250.5 43 257.5 109 c 0
 261.5 155 261.5 214 261.5 341 c 0
EndSplineSet
EndChar

StartChar: oe.dup
Encoding: 65555 -1 19
Width: 550
Flags: HMW
HStem: -11 22<117.5 144.5 117.5 167.5> -11 25<479.5 515.5 479.5 537> 231 21<338.5 569.5 338.5 610.5 337.5 569.5> 426 22<116 137.5 449.5 515>
VStem: -85.5 77<154 284> 268.5 69<127.5 231 122.5 320.5> 569.5 66<252 252>
LayerCount: 2
Fore
SplineSet
635.5 119 m 0x7e
 635.5 100 593.5 -11 480.5 -11 c 0
 419.5 -11 347.5 20 303.5 93 c 1
 270.5 37 207.5 -11 127.5 -11 c 0
 12.5 -11 -85.5 89 -85.5 219 c 0
 -85.5 349 13.5 448 127.5 448 c 0
 203.5 448 266.5 404 302.5 347 c 1
 342.5 414 405.5 448 468.5 448 c 0
 577.5 448 635.5 363 635.5 252 c 0
 635.5 231 632.5 231 610.5 231 c 2
 337.5 231 l 1
 337.5 14 474.5 14 484.5 14 c 0
 546.5 14 592.5 61 607.5 111 c 0
 612.5 127 613.5 131 622.5 131 c 0
 627.5 131 635.5 129 635.5 119 c 0x7e
569.5 252 m 1
 567.5 291 562.5 426 467.5 426 c 0
 431.5 426 348.5 398 338.5 252 c 1
 569.5 252 l 1
268.5 223 m 0
 268.5 418 146.5 426 128.5 426 c 0
 103.5 426 -8.5 416 -8.5 223 c 0
 -8.5 20 106.5 11 128.5 11 c 0x9c
 160.5 11 268.5 32 268.5 223 c 0
EndSplineSet
EndChar

StartChar: Oslash.dup
Encoding: 65556 -1 20
Width: 550
Flags: HMW
HStem: -56 21G<18.5 18.5> -22 22<244.5 311.5 244.5 365.5> 683 22<239.5 320.5> 719 20G<530.5 530.5>
VStem: -57.5 89<275 367 275 442> 462.5 89<642 725> 518.5 89<313.5 371>
LayerCount: 2
Fore
SplineSet
607.5 339 m 0xfc
 607.5 137 456.5 -22 274.5 -22 c 0
 186.5 -22 127.5 11 86.5 40 c 1
 18.5 -56 l 1
 -1.5 -42 l 1
 6.5 -31 l 1
 66.5 58 l 1
 22.5 95 -57.5 190 -57.5 339 c 0
 -57.5 545 95.5 705 274.5 705 c 0
 368.5 705 431.5 662 455.5 647 c 1
 460.5 642 462.5 642 462.5 642 c 1
 530.5 739 l 1
 551.5 725 l 1
 482.5 624 l 1
 557.5 554 607.5 463 607.5 339 c 0xfc
440.5 607 m 1
 421.5 627 366.5 683 274.5 683 c 0
 204.5 683 130.5 647 83.5 572 c 0
 34.5 494 31.5 395 31.5 339 c 0
 31.5 211 57.5 146 92.5 97 c 1
 440.5 607 l 1
518.5 339 m 0
 518.5 403 513.5 510 456.5 586 c 1
 109.5 76 l 1
 152.5 27 213.5 0 275.5 0 c 0
 347.5 0 416.5 38 460.5 100 c 0
 516.5 181 518.5 288 518.5 339 c 0
EndSplineSet
EndChar

StartChar: oslash.dup
Encoding: 65557 -1 21
Width: 550
Flags: HMW
HStem: -102 22<92.5 104.5> -11 22<263 295 263 334> 426 22<256.5 294.5> 514 20G<445.5 445.5>
VStem: 60.5 69<186 235 186 277.5> 85.5 69 420.5 69<197.5 234.5>
LayerCount: 2
Fore
SplineSet
489.5 213 m 0x38
 489.5 89 393.5 -11 274.5 -11 c 0
 232.5 -11 195.5 3 172.5 16 c 1
 104.5 -102 l 1
 85.5 -90 l 1
 92.5 -80 l 1
 154.5 28 l 1xc6
 100.5 66 60.5 133 60.5 213 c 0
 60.5 342 156.5 448 275.5 448 c 0
 318.5 448 356.5 433 379.5 418 c 1
 445.5 534 l 1
 464.5 522 l 1
 397.5 406 l 1
 435.5 378 489.5 311 489.5 213 c 0x38
363.5 392 m 1
 345.5 408 314.5 426 274.5 426 c 0
 238.5 426 188.5 409 158.5 357 c 0
 131.5 312 129.5 256 129.5 214 c 0x6a
 129.5 158 134.5 101 171.5 59 c 1
 363.5 392 l 1
420.5 214 m 0
 420.5 255 418.5 328 379.5 374 c 1
 188.5 42 l 1
 216.5 18 250.5 11 275.5 11 c 0
 314.5 11 362.5 29 391.5 75 c 0
 420.5 121 420.5 181 420.5 214 c 0
EndSplineSet
EndChar

StartChar: quoteleft.dup
Encoding: 65558 -1 22
Width: 550
Flags: HMW
HStem: 394 106<272 299.5> 673 20G<303.5 311.5>
VStem: 215 22<497 515 497 558>
LayerCount: 2
Fore
SplineSet
335 447 m 0
 335 421 317 394 282 394 c 0
 239 394 215 439 215 499 c 0
 215 617 298 693 309 693 c 0
 314 693 319 689 319 682 c 0
 319 679 319 677 307 665 c 0
 244 603 237 531 237 499 c 0
 237 495 239 481 239 481 c 1
 239 481 241 482 242 484 c 0
 248 490 262 500 282 500 c 0
 318 500 335 473 335 447 c 0
EndSplineSet
EndChar

StartChar: quoteright.dup
Encoding: 65559 -1 23
Width: 550
Flags: HMW
HStem: 395 21G<238.5 246.5> 588 106<250.5 278>
VStem: 313 22<573 591>
LayerCount: 2
Fore
SplineSet
335 589 m 0
 335 471 252 395 241 395 c 0
 236 395 231 399 231 406 c 0
 231 409 231 411 243 423 c 0
 306 485 313 557 313 589 c 0
 313 593 311 607 311 607 c 1
 311 607 309 606 308 604 c 0
 302 598 288 588 268 588 c 0
 232 588 215 615 215 641 c 0
 215 667 233 694 268 694 c 0
 311 694 335 649 335 589 c 0
EndSplineSet
EndChar

StartChar: Rcedilla
Encoding: 65560 -1 24
Width: 550
Flags: HMW
HStem: -290 21G<233.5 240> -145 79<242.5 261> -22 22<513.5 545> 0 31<-73.5 -49.5> 331 22<115.5 226.5 226.5 230.5 115.5 226.5> 652 31<-73.5 -49.5 -73.5 240.5 186.5 240.5 240.5 241.5>
VStem: -73.5 103<0 605 31 605 78 683 78 683> 29.5 86<78 331 353 605 605 612> 115.5 103<0 78 0 331> 137.5 103 240.5 86 398.5 103<468.5 551 464 575.5> 597.5 26
LayerCount: 2
Fore
SplineSet
623.5 88 m 0x2630
 623.5 60 606.5 -22 528.5 -22 c 0xed58
 498.5 -22 443.5 -16 402.5 20 c 1
 361.5 58 361.5 98 361.5 163 c 0
 361.5 230 361.5 261 323.5 297 c 0
 288.5 331 246.5 331 230.5 331 c 2
 115.5 331 l 1
 115.5 78 l 2
 115.5 42 117.5 31 194.5 31 c 2
 218.5 31 l 1
 218.5 0 l 1
 182.5 3 111.5 3 72.5 3 c 0
 33.5 3 -37.5 3 -73.5 0 c 1
 -73.5 31 l 1
 -49.5 31 l 2x1a80
 27.5 31 29.5 42 29.5 78 c 2
 29.5 605 l 2
 29.5 641 27.5 652 -49.5 652 c 2
 -73.5 652 l 1
 -73.5 683 l 1
 240.5 683 l 2
 387.5 683 501.5 599 501.5 503 c 0
 501.5 425 423.5 364 326.5 340 c 1
 381.5 321 430.5 288 448.5 224 c 1
 461.5 144 l 1
 475.5 51 483.5 0 532.5 0 c 0
 557.5 0 592.5 18 598.5 89 c 0
 599.5 96 599.5 105 610.5 105 c 0
 623.5 105 623.5 94 623.5 88 c 0x2630
398.5 503 m 0
 398.5 648 286.5 652 196.5 652 c 0
 176.5 652 147.5 652 137.5 650 c 0
 115.5 647 115.5 635 115.5 612 c 2
 115.5 353 l 1
 226.5 353 l 2
 374.5 353 398.5 434 398.5 503 c 0
303.5 -145 m 0
 303.5 -231 244.5 -290 235.5 -290 c 0
 231.5 -290 227.5 -287 227.5 -282 c 0
 227.5 -279 228.5 -278 232.5 -274 c 0
 265.5 -238 286.5 -193 285.5 -133 c 1
 277.5 -141 266.5 -145 255.5 -145 c 0
 228.5 -145 215.5 -125 215.5 -106 c 0
 215.5 -86 229.5 -66 255.5 -66 c 0
 285.5 -66 303.5 -97 303.5 -145 c 0
EndSplineSet
EndChar

StartChar: rcedilla
Encoding: 65561 -1 25
Width: 550
Flags: HMW
HStem: -290 21G<192 198.5> -145 79<201 219.5> 0 31<107 140.5> 400 31<107 142> 420 22<332.5 372.5>
VStem: 185 66<76 78 78 232> 357 86<366 393>
LayerCount: 2
Fore
SplineSet
443 381 m 0x08
 443 349 418 337 400 337 c 0
 378 337 357 352 357 380 c 0
 357 406 377 418 380 419 c 1
 378 420 376 420 369 420 c 0xca
 293 420 251 331 251 232 c 2
 251 78 l 2
 251 42 253 31 327 31 c 2
 348 31 l 1
 348 0 l 1
 308 3 261 3 221 3 c 1
 107 0 l 1
 107 31 l 1
 174 31 185 31 185 76 c 2
 185 344 l 2
 185 393 177 400 107 400 c 1
 107 431 l 1x34
 246 442 l 1
 246 332 l 1
 260 375 296 442 369 442 c 0
 412 442 443 413 443 381 c 0x08
262 -145 m 0
 262 -231 203 -290 194 -290 c 0
 190 -290 186 -287 186 -282 c 0
 186 -279 187 -278 191 -274 c 0
 224 -238 245 -193 244 -133 c 1
 236 -141 225 -145 214 -145 c 0
 187 -145 174 -125 174 -106 c 0
 174 -86 188 -66 214 -66 c 0
 244 -66 262 -97 262 -145 c 0
EndSplineSet
EndChar

StartChar: tilde.dup
Encoding: 65562 -1 26
Width: 550
Flags: HMW
HStem: 558 45<332 352.5> 606 45<197.5 218>
LayerCount: 2
Fore
SplineSet
441.5 636 m 1
 390.5 580 371.5 558 333.5 558 c 0
 316.5 558 298.5 565 271.5 581 c 0
 254.5 591 229.5 606 206.5 606 c 0
 162.5 606 124.5 558 124.5 558 c 1
 108.5 573 l 1
 159.5 629 178.5 651 216.5 651 c 0
 233.5 651 251.5 644 278.5 628 c 0
 295.5 618 320.5 603 343.5 603 c 0
 387.5 603 425.5 651 425.5 651 c 1
 441.5 636 l 1
EndSplineSet
EndChar

StartChar: A
Encoding: 65 65 27
Width: 550
Flags: HMW
HStem: 0 31<24.9747 24.9747> 228 31<171.705 335.955 171.705 343.985 163.675 335.955> 696 20G<257.845 281.205 269.525 292.155>
LayerCount: 2
Fore
SplineSet
525.025 0 m 1
 429.395 3 l 2
 401.654 3 350.555 3 324.275 0 c 1
 324.275 31 l 1
 343.984 31 384.865 31 384.865 61 c 0
 384.865 65 383.404 71 382.674 75 c 2
 343.984 228 l 1
 163.674 228 l 1
 130.096 97 l 2
 129.365 95 128.635 85 128.635 82 c 0
 128.635 56 146.885 31 183.385 31 c 1
 183.385 0 l 1
 99.4355 3 l 1
 24.9746 0 l 1
 24.9746 31 l 1
 64.3945 32 93.5957 47 106.734 98 c 2
 257.846 696 l 2
 261.494 710 263.686 716 275.365 716 c 0
 287.045 716 288.504 709 292.154 696 c 2
 449.834 71 l 2
 457.865 38 468.084 31 511.885 31 c 2
 525.025 31 l 1
 525.025 0 l 1
335.955 259 m 1
 253.465 584 l 1
 171.705 259 l 1
 335.955 259 l 1
EndSplineSet
Position2: "'cpsp' Capital Spacing lookup 0 subtable" dx=5 dy=0 dh=10 dv=0
EndChar

StartChar: a
Encoding: 97 97 28
Width: 550
Flags: HMW
HStem: -11 22<192 239 192 242.5> -6 31<423 429> 288 90 426 22<211.5 252>
VStem: 49.5 77<71 117> 333.5 69<140 240 240 240 261 275> 475.5 25<89 145>
LayerCount: 2
Fore
SplineSet
500.5 89 m 2x7e
 500.5 8 439.5 -6 418.5 -6 c 0x42
 371.5 -6 344.5 36 340.5 76 c 1
 321.5 29 275.5 -11 209.5 -11 c 0x80
 146.5 -11 49.5 14 49.5 95 c 0
 49.5 139 74.5 191 149.5 225 c 1
 212.5 255 282.5 258 333.5 261 c 1
 333.5 298 l 2
 333.5 387 276.5 426 227.5 426 c 0
 195.5 426 146.5 415 119.5 380 c 1
 165.5 379 170.5 346 170.5 334 c 0
 170.5 308 152.5 288 124.5 288 c 0
 98.5 288 78.5 305 78.5 335 c 0
 78.5 401 147.5 448 229.5 448 c 0
 277.5 448 327.5 432 366.5 393 c 0
 402.5 356 402.5 317 402.5 275 c 2
 402.5 75 l 2
 402.5 70 406.5 25 439.5 25 c 0
 450.5 25 475.5 31 475.5 89 c 2
 475.5 145 l 1
 500.5 145 l 1
 500.5 89 l 2x7e
333.5 140 m 2
 333.5 240 l 1
 168.5 234 126.5 151 126.5 96 c 0
 126.5 46 167.5 11 216.5 11 c 0x8c
 261.5 11 333.5 45 333.5 140 c 2
EndSplineSet
EndChar

StartChar: ampersand
Encoding: 38 38 29
Width: 550
Flags: HMW
HStem: -22 31<132.65 173.165 132.65 188.13 400.925 437.06> 298 31 400 31<365.155 381.945> 409 22 694 22<201.27 235.945>
VStem: 24.9749 60.59<133 155> 113.305 45.99<562.5 608> 162.945 18.25 257.845 18.25<555 588> 502.395 18.25<121 121>
LayerCount: 2
Fore
SplineSet
525.025 400 m 1xeec0
 460.055 399 444.725 364 416.256 298 c 0
 382.676 219 353.475 151 319.895 98 c 1
 343.256 60 381.215 9 420.635 9 c 0
 453.484 9 500.205 42 502.395 121 c 1
 520.645 121 l 1
 519.186 35 473.195 -22 417.715 -22 c 0
 382.676 -22 339.605 -6 289.234 54 c 1
 262.225 21 219.154 -22 157.105 -22 c 0
 84.834 -22 24.9746 41 24.9746 128 c 0
 24.9746 182 43.9551 209 76.8047 255 c 1
 143.234 352 l 1
 117.686 441 113.305 513 113.305 555 c 0
 113.305 661 167.324 716 212.584 716 c 0
 264.414 716 276.096 633 276.096 587 c 0
 276.096 521 226.455 445 187.035 385 c 1
 219.154 270 298.725 133 308.215 118 c 1
 339.605 171 372.455 239 412.605 336 c 0
 413.334 339 416.984 346 416.984 356 c 0
 416.984 381 398.734 400 365.154 400 c 1
 365.154 431 l 1
 384.865 429 446.186 428 454.215 428 c 2
 525.025 431 l 1
 525.025 400 l 1xeec0
257.846 588 m 1
 257.846 588 257.846 694 214.045 694 c 0
 188.494 694 159.295 662 159.295 578 c 0
 159.295 547 161.484 489 181.195 409 c 1xdf80
 198.715 435 257.846 522 257.846 588 c 1
275.365 73 m 1
 248.355 110 222.074 162 208.205 190 c 0
 176.814 252 165.865 282 149.805 329 c 1
 110.385 277 85.5645 241 85.5645 160 c 0
 85.5645 106 102.355 9 162.945 9 c 0
 183.385 9 228.645 16 275.365 73 c 1
EndSplineSet
Substitution2: "'lnum' Lining Figures lookup 5 subtable" ampersand
Substitution2: "'onum' Oldstyle Figures lookup 4 subtable" ampersand
Substitution2: "'aalt' Access All Alternates lookup 0 subtable" ampersand
EndChar

StartChar: asciicircum
Encoding: 94 94 30
Width: 550
Flags: HMW
HStem: 562 21G<3 3 546 546> 685 59<274 275>
VStem: -8 566<584 584>
LayerCount: 2
Fore
SplineSet
558 584 m 1
 546 562 l 1
 274 685 l 1
 3 562 l 1
 -8 584 l 1
 275 744 l 1
 558 584 l 1
EndSplineSet
EndChar

StartChar: asciitilde
Encoding: 126 126 31
Width: 550
Flags: HMW
HStem: 193 43<365.5 381> 211 43 246 43 264 43<169 184.5>
LayerCount: 2
Fore
SplineSet
552.5 290 m 1x90
 498.5 246 l 2x20
 481.5 232 461.5 221 441.5 211 c 0x40
 419.5 201 393.5 193 368.5 193 c 0
 328.5 193 297.5 210 268.5 227 c 0
 233.5 247 204.5 264 164.5 264 c 0
 113.5 264 60.5 234 11.5 193 c 1x90
 -2.5 210 l 1
 51.5 254 l 2x40
 68.5 268 88.5 279 108.5 289 c 0x20
 130.5 299 156.5 307 181.5 307 c 0
 221.5 307 252.5 290 281.5 273 c 0
 316.5 253 345.5 236 385.5 236 c 0
 436.5 236 489.5 266 538.5 307 c 1
 552.5 290 l 1x90
EndSplineSet
EndChar

StartChar: asterisk
Encoding: 42 42 32
Width: 550
Flags: HMW
HStem: 319 21G<268 282.5> 730 20G<267.5 282>
VStem: 90.5 369<441 446.5 434.5 447 622.5 634.5>
LayerCount: 2
Fore
SplineSet
459.5 441 m 0
 459.5 428 448.5 413 432.5 413 c 0
 424.5 413 421.5 416 416.5 419 c 2
 286.5 514 l 1
 301.5 344 l 1
 301.5 331 290.5 319 274.5 319 c 0
 261.5 319 248.5 329 248.5 344 c 1
 263.5 514 l 1
 123.5 413 l 1
 90.5 413 90.5 441 90.5 441 c 1
 90.5 453 94.5 460 113.5 469 c 2
 252.5 535 l 1
 111.5 601 l 2
 94.5 609 90.5 617 90.5 628 c 0
 90.5 641 101.5 656 117.5 656 c 0
 123.5 656 125.5 656 139.5 645 c 2
 263.5 555 l 1
 248.5 725 l 1
 248.5 738 259.5 750 275.5 750 c 0
 288.5 750 301.5 740 301.5 725 c 1
 286.5 555 l 1
 397.5 637 l 2
 423.5 656 425.5 656 432.5 656 c 0
 448.5 656 459.5 641 459.5 628 c 0
 459.5 616 455.5 609 436.5 600 c 2
 297.5 534 l 1
 438.5 468 l 2
 455.5 460 459.5 452 459.5 441 c 0
EndSplineSet
EndChar

StartChar: at
Encoding: 64 64 33
Width: 550
Flags: HMW
HStem: -11 22<211.855 297.995> 128 22<249.815 283.395 249.815 293.615 433.41 470.275> 461 20G<390.705 403.115 403.115 411.51> 544 22<249.45 287.775> 683 22<214.775 324.64>
VStem: 32.275 18.25<257.5 442.5 257.5 446.5> 129.365 50.37<291.5 402.5 291.5 410> 360.045 50.37 370.265 50.37<262 432 432 441> 443.265 50.37 499.475 18.25<286 452.5>
LayerCount: 2
Fore
SplineSet
517.725 338 m 0xcd60
 517.725 231 507.506 128 443.266 128 c 0
 415.525 128 377.564 147 370.266 199 c 1
 348.365 157 313.324 128 273.904 128 c 0
 198.715 128 129.365 221 129.365 347 c 0
 129.365 473 198.715 566 273.904 566 c 0
 302.375 566 340.336 552 373.914 489 c 0
 378.295 482 379.025 481 390.705 481 c 2
 403.115 481 l 2
 419.904 481 420.635 480 420.635 457 c 2
 420.635 216 l 2x72e0
 420.635 201 420.635 150 446.186 150 c 0
 494.365 150 499.475 240 499.475 332 c 0
 499.475 573 374.645 683 274.635 683 c 0
 154.914 683 50.5254 538 50.5254 347 c 0
 50.5254 168 145.426 11 278.285 11 c 0
 346.904 11 414.795 35 476.846 75 c 0
 480.494 78 481.955 78 493.635 78 c 2
 500.205 78 l 2
 511.885 78 516.994 78 516.994 68 c 0
 516.994 52 429.395 17 410.414 11 c 0
 363.695 -4 316.975 -11 279.016 -11 c 0
 133.016 -11 32.2754 159 32.2754 347 c 0
 32.2754 546 141.775 705 275.365 705 c 0
 392.895 705 517.725 572 517.725 338 c 0xcd60
370.266 262 m 2
 370.266 432 l 2x0080
 370.266 450 370.266 453 360.775 472 c 0
 334.494 528 299.455 544 276.096 544 c 0
 222.805 544 179.734 458 179.734 347 c 0
 179.734 236 223.535 150 276.096 150 c 0
 290.695 150 327.926 156 360.045 219 c 0x53
 370.266 240 370.266 244 370.266 262 c 2
EndSplineSet
EndChar

StartChar: B
Encoding: 66 66 34
Width: 550
Flags: HMW
HStem: 0 31<50.5246 68.0446 68.0446 96.1496 222.075 313.325 313.325 336.685 50.5246 68.0446> 344 22<186.305 292.155 292.155 323.545 186.305 292.155> 652 31<50.5246 68.0446 50.5246 317.705 204.92 222.075 222.075 312.595>
VStem: 125.715 60.59<78 344 366 605 605 612> 408.955 70.81<482 540.5> 426.475 73<148.5 217.5>
LayerCount: 2
Fore
SplineSet
499.475 183 m 0xb8
 499.475 89 433.775 0 336.686 0 c 2
 50.5254 0 l 1
 50.5254 31 l 1
 68.0449 31 l 2
 124.254 31 125.715 42 125.715 78 c 2
 125.715 605 l 2
 125.715 641 124.254 652 68.0449 652 c 2
 50.5254 652 l 1
 50.5254 683 l 1
 317.705 683 l 2
 412.605 683 479.764 601 479.764 514 c 0
 479.764 440 429.395 376 358.584 357 c 1
 439.615 345 499.475 270 499.475 183 c 0xb8
408.955 514 m 0
 408.955 567 383.404 652 312.594 652 c 2
 222.074 652 l 2
 187.764 652 186.305 645 186.305 612 c 2
 186.305 366 l 1
 292.154 366 l 2
 373.186 366 408.955 450 408.955 514 c 0
426.475 184 m 0
 426.475 251 395.814 344 323.545 344 c 2
 186.305 344 l 1
 186.305 71 l 2
 186.305 38 187.764 31 222.074 31 c 2
 313.324 31 l 2
 388.514 31 426.475 113 426.475 184 c 0
EndSplineSet
Position2: "'cpsp' Capital Spacing lookup 0 subtable" dx=5 dy=0 dh=10 dv=0
EndChar

StartChar: b
Encoding: 98 98 35
Width: 550
Flags: HMW
HStem: -11 22<272 321.5 272 358> 72 42 420 22<292.5 327> 652 42
VStem: 106.5 66<377 596 596 620.5> 106.5 83 438.5 83<198.5 237.5>
LayerCount: 2
Fore
SplineSet
521.5 216 m 0xba
 521.5 87 417.5 -11 298.5 -11 c 0
 224.5 -11 182.5 39 167.5 62 c 1
 131.5 0 l 1
 106.5 0 l 1
 106.5 596 l 2
 106.5 645 98.5 652 28.5 652 c 1
 28.5 683 l 1
 172.5 694 l 1
 172.5 377 l 1
 188.5 395 231.5 442 309.5 442 c 0
 423.5 442 521.5 343 521.5 216 c 0xba
438.5 217 m 0
 438.5 258 435.5 315 409.5 356 c 0
 385.5 394 349.5 420 304.5 420 c 0
 280.5 420 225.5 412 186.5 356 c 0
 175.5 340 175.5 339 175.5 320 c 2
 175.5 114 l 2
 175.5 96 175.5 93 189.5 72 c 0x66
 213.5 35 249.5 11 294.5 11 c 0
 348.5 11 386.5 44 407.5 75 c 0
 436.5 120 438.5 180 438.5 217 c 0
EndSplineSet
EndChar

StartChar: backslash
Encoding: 92 92 36
Width: 550
Flags: HMW
HStem: -250 21G<441.5 454> 730 20G<81.5 108.5>
VStem: 81.5 387
LayerCount: 2
Fore
SplineSet
468.5 -230 m 1
 468.5 -241 459.5 -250 448.5 -250 c 0
 434.5 -250 430.5 -239 426.5 -228 c 2
 86.5 712 l 2
 81.5 725 81.5 730 81.5 730 c 1
 81.5 741 90.5 750 101.5 750 c 0
 115.5 750 119.5 739 123.5 728 c 2
 463.5 -212 l 2
 468.5 -225 468.5 -230 468.5 -230 c 1
EndSplineSet
EndChar

StartChar: bar
Encoding: 124 124 37
Width: 550
Flags: HMW
HStem: -250 21G<265 285> 730 20G<265 285>
VStem: 255 40<-217 717>
LayerCount: 2
Fore
SplineSet
295 -217 m 2
 295 -231 295 -250 275 -250 c 0
 255 -250 255 -231 255 -217 c 2
 255 717 l 2
 255 731 255 750 275 750 c 0
 295 750 295 731 295 717 c 2
 295 -217 l 2
EndSplineSet
EndChar

StartChar: braceleft
Encoding: 123 123 38
Width: 550
Flags: HMW
HStem: -250 21G<417 438.5> 237 24 730 20G<382.5 438.5>
VStem: 241.5 67<-83 56 444 563>
LayerCount: 2
Fore
SplineSet
452.5 -239 m 0
 452.5 -250 444.5 -250 432.5 -250 c 0
 401.5 -250 336.5 -242 293.5 -212 c 0
 241.5 -175 241.5 -141 241.5 -83 c 2
 241.5 115 l 2
 241.5 215 156.5 236 113.5 239 c 0
 103.5 240 97.5 240 97.5 250 c 0
 97.5 260 104.5 261 111.5 261 c 0
 174.5 265 201.5 292 215.5 306 c 0
 241.5 334 241.5 350 241.5 444 c 2
 241.5 627 l 1
 243.5 699 332.5 750 432.5 750 c 0
 444.5 750 452.5 750 452.5 739 c 0
 452.5 733 448.5 729 443.5 728 c 0
 373.5 724 350.5 700 332.5 682 c 0
 308.5 657 308.5 635 308.5 563 c 2
 308.5 383 l 2
 308.5 355 308.5 284 190.5 250 c 1
 229.5 239 293.5 213 306.5 147 c 0
 308.5 137 308.5 86 308.5 56 c 2
 308.5 -94 l 2
 308.5 -129 308.5 -131 311.5 -142 c 0
 320.5 -178 357.5 -223 436.5 -228 c 0
 446.5 -229 452.5 -229 452.5 -239 c 0
EndSplineSet
EndChar

StartChar: braceright
Encoding: 125 125 39
Width: 550
Flags: HMW
HStem: -250 21G<112.5 167.5> 239 21G<438.5 442> 730 20G<112.5 133.5>
VStem: 241.5 67<-63 56 -127 117 -127 131 444 583>
LayerCount: 2
Fore
SplineSet
452.5 250 m 0
 452.5 240 445.5 239 438.5 239 c 0
 375.5 235 348.5 208 334.5 194 c 0
 308.5 166 308.5 150 308.5 56 c 2
 308.5 -127 l 1
 306.5 -199 217.5 -250 117.5 -250 c 0
 107.5 -250 97.5 -250 97.5 -239 c 0
 97.5 -233 101.5 -229 106.5 -228 c 0
 176.5 -224 199.5 -200 217.5 -182 c 0
 241.5 -157 241.5 -135 241.5 -63 c 2
 241.5 117 l 2
 241.5 145 241.5 216 359.5 250 c 1
 320.5 261 256.5 287 243.5 353 c 0
 241.5 363 241.5 414 241.5 444 c 2
 241.5 594 l 2
 241.5 629 241.5 631 238.5 642 c 0
 229.5 678 192.5 723 113.5 728 c 0
 103.5 729 97.5 729 97.5 739 c 0
 97.5 750 107.5 750 117.5 750 c 0
 149.5 750 213.5 741 256.5 712 c 1
 308.5 675 308.5 641 308.5 583 c 2
 308.5 385 l 2
 308.5 285 393.5 264 436.5 261 c 0
 446.5 260 452.5 260 452.5 250 c 0
EndSplineSet
EndChar

StartChar: bracketleft
Encoding: 91 91 40
Width: 550
Flags: HMW
HStem: -250 40<246.5 343.5 246.5 343.5> 710 40<246.5 343.5 246.5 246.5>
VStem: 206.5 40<-210 710 -210 750>
LayerCount: 2
Fore
SplineSet
343.5 -250 m 1
 206.5 -250 l 1
 206.5 750 l 1
 343.5 750 l 1
 343.5 710 l 1
 246.5 710 l 1
 246.5 -210 l 1
 343.5 -210 l 1
 343.5 -250 l 1
EndSplineSet
EndChar

StartChar: bracketright
Encoding: 93 93 41
Width: 550
Flags: HMW
HStem: -250 40<206.5 303.5 206.5 343.5 206.5 303.5> 710 40<206.5 303.5 206.5 343.5>
VStem: 303.5 40<-210 710 710 710>
LayerCount: 2
Fore
SplineSet
343.5 -250 m 1
 206.5 -250 l 1
 206.5 -210 l 1
 303.5 -210 l 1
 303.5 710 l 1
 206.5 710 l 1
 206.5 750 l 1
 343.5 750 l 1
 343.5 -250 l 1
EndSplineSet
EndChar

StartChar: C
Encoding: 67 67 42
Width: 550
Flags: HMW
HStem: -22 31<293.25 355.3 293.25 366.25> 674 31<292.52 341.795 238.5 354.57>
VStem: 52.715 75.19<238.5 444> 475.385 21.9
LayerCount: 2
Fore
SplineSet
497.285 233 m 0
 497.285 117 425.745 -22 306.755 -22 c 0
 170.975 -22 52.7148 135 52.7148 342 c 0
 52.7148 546 170.245 705 306.755 705 c 0
 376.835 705 414.065 655 441.075 619 c 1
 477.575 693 l 2
 483.415 705 486.335 705 489.255 705 c 0
 497.285 705 497.285 698 497.285 681 c 2
 497.285 444 l 2
 497.285 423 497.285 420 485.604 420 c 0
 475.385 420 475.385 423 473.925 437 c 0
 459.325 583 394.354 674 314.785 674 c 0
 270.255 674 127.905 640 127.905 341 c 0
 127.905 43 270.985 9 315.515 9 c 0
 395.085 9 473.195 91 479.035 234 c 0
 479.765 244 479.765 250 487.795 250 c 0
 497.285 250 497.285 243 497.285 233 c 0
EndSplineSet
Position2: "'cpsp' Capital Spacing lookup 0 subtable" dx=5 dy=0 dh=10 dv=0
EndChar

StartChar: c
Encoding: 99 99 43
Width: 550
Flags: HMW
HStem: -11 25<282 327 282 366.5> 294 92<408.5 408.5> 423 25<276 307>
VStem: 84.5 83<152 278> 362.5 92<327 346.5>
LayerCount: 2
Fore
SplineSet
465.5 119 m 0
 465.5 109 433.5 -11 299.5 -11 c 0
 183.5 -11 84.5 88 84.5 216 c 0
 84.5 340 176.5 448 301.5 448 c 0
 378.5 448 454.5 409 454.5 341 c 0
 454.5 311 434.5 294 408.5 294 c 0
 380.5 294 362.5 314 362.5 340 c 0
 362.5 353 368.5 383 409.5 386 c 1
 374.5 422 311.5 423 302.5 423 c 0
 249.5 423 167.5 381 167.5 218 c 0
 167.5 57 255.5 14 308.5 14 c 0
 345.5 14 410.5 26 439.5 119 c 0
 441.5 125 443.5 129 452.5 129 c 0
 455.5 129 465.5 129 465.5 119 c 0
EndSplineSet
EndChar

StartChar: colon
Encoding: 58 58 44
Width: 550
Flags: HMW
HStem: 0 106<260.5 289.5> 325 106<260.5 289.5>
VStem: 222 106<38.5 67.5 363.5 392.5>
LayerCount: 2
Fore
SplineSet
328 378 m 0
 328 349 304 325 275 325 c 0
 246 325 222 349 222 378 c 0
 222 407 246 431 275 431 c 0
 304 431 328 407 328 378 c 0
328 53 m 0
 328 24 304 0 275 0 c 0
 246 0 222 24 222 53 c 0
 222 82 246 106 275 106 c 0
 304 106 328 82 328 53 c 0
EndSplineSet
EndChar

StartChar: comma
Encoding: 44 44 45
Width: 550
Flags: HMW
HStem: -193 21G<240 248.5> 0 106<252 277>
VStem: 311.5 22
LayerCount: 2
Fore
SplineSet
333.5 1 m 0
 333.5 -114 254.5 -193 242.5 -193 c 0
 237.5 -193 232.5 -189 232.5 -182 c 0
 232.5 -178 233.5 -177 239.5 -171 c 0
 283.5 -124 311.5 -63 309.5 16 c 1
 298.5 6 284.5 0 269.5 0 c 0
 233.5 0 216.5 27 216.5 53 c 0
 216.5 79 234.5 106 269.5 106 c 0
 309.5 106 333.5 65 333.5 1 c 0
EndSplineSet
EndChar

StartChar: D
Encoding: 68 68 46
Width: 550
Flags: HMW
HStem: 0 31<29.7199 47.2399 47.2399 75.3449 203.46 277.19 277.19 296.9 29.7199 47.2399> 652 31<29.7199 47.2399 29.7199 296.9 186.305 203.46 203.46 276.46>
VStem: 104.91 62.78<78 605 605 612> 203.46 73<652 652> 447.28 73<280.5 375>
LayerCount: 2
Fore
SplineSet
520.28 336 m 0
 520.28 148 419.54 0 296.9 0 c 2
 29.7197 0 l 1
 29.7197 31 l 1
 47.2402 31 l 2
 103.45 31 104.91 42 104.91 78 c 2
 104.91 605 l 2
 104.91 641 103.45 652 47.2402 652 c 2
 29.7197 652 l 1
 29.7197 683 l 1
 296.9 683 l 2
 421.729 683 520.28 526 520.28 336 c 0
447.28 336 m 0
 447.28 414 440.71 500 409.32 559 c 0
 372.09 630 321.72 652 276.46 652 c 2
 203.46 652 l 2
 169.15 652 167.689 645 167.689 612 c 2
 167.689 71 l 2
 167.689 38 169.15 31 203.46 31 c 2
 277.189 31 l 2
 350.92 31 392.53 89 407.13 116 c 0
 433.41 165 447.28 225 447.28 336 c 0
EndSplineSet
Position2: "'cpsp' Capital Spacing lookup 0 subtable" dx=5 dy=0 dh=10 dv=0
EndChar

StartChar: d
Encoding: 100 100 47
Width: 550
Flags: HMW
HStem: -11 22<223 267 223 272.5> 0 31<486.5 521.5> 87 31 420 22<228.5 273> 652 31<299.5 334.5> 652 42
VStem: 28.5 83<193.5 232.5 193.5 279.5> 377.5 66<380 596 596 620.5>
LayerCount: 2
Fore
SplineSet
521.5 0 m 1x65
 374.5 -11 l 1
 374.5 55 l 1
 349.5 23 304.5 -11 240.5 -11 c 0
 126.5 -11 28.5 88 28.5 215 c 0
 28.5 344 133.5 442 251.5 442 c 0
 305.5 442 348.5 416 377.5 380 c 1
 377.5 596 l 2
 377.5 645 369.5 652 299.5 652 c 1
 299.5 683 l 1x9b
 443.5 694 l 1
 443.5 87 l 2
 443.5 38 451.5 31 521.5 31 c 1
 521.5 0 l 1x65
374.5 118 m 2x40
 374.5 323 l 2
 374.5 341 374.5 343 363.5 360 c 0
 332.5 405 290.5 420 255.5 420 c 0
 201.5 420 163.5 387 142.5 356 c 0
 113.5 311 111.5 251 111.5 214 c 0
 111.5 173 114.5 116 140.5 75 c 0
 164.5 37 200.5 11 245.5 11 c 0xb2
 288.5 11 333.5 33 363.5 81 c 0
 374.5 98 374.5 100 374.5 118 c 2x40
EndSplineSet
EndChar

StartChar: dollar
Encoding: 36 36 48
Width: 550
Flags: HMW
HStem: -56 21G<259.5 290.5 259.5 259.5> -10 31<290.5 290.5> 137 92<125.5 140 124.5 141> 311 92<290.5 290.5> 319 92<259.5 259.5> 479 92<412 424> 673 31<259.5 259.5> 730 20G<259.5 290.5 290.5 290.5>
VStem: 81.5 51<533 558.5> 259.5 31<-56 -11 -11 -11 21 311 411 673 705 750> 417.5 51<143.5 177>
CounterMasks: 1 00e0
LayerCount: 2
Fore
SplineSet
468.5 195 m 0x17e0
 468.5 92 395.5 -1 290.5 -10 c 1
 290.5 -56 l 1
 259.5 -56 l 1
 259.5 -11 l 1
 134.5 -3 81.5 89 81.5 178 c 0
 81.5 227 121.5 229 127.5 229 c 0
 152.5 229 173.5 211 173.5 183 c 0
 173.5 156 154.5 137 127.5 137 c 0
 123.5 137 115.5 138 111.5 139 c 1
 124.5 77 171.5 26 259.5 21 c 1
 259.5 319 l 1xe8e0
 208.5 332 174.5 340 136.5 379 c 1
 118.5 396 81.5 444 81.5 513 c 0
 81.5 604 148.5 694 259.5 704 c 1
 259.5 750 l 1
 290.5 750 l 1
 290.5 705 l 1
 402.5 699 468.5 626 468.5 529 c 0
 468.5 480 425.5 479 422.5 479 c 0
 401.5 479 376.5 494 376.5 525 c 0
 376.5 553 396.5 571 422.5 571 c 0
 432.5 571 434.5 570 438.5 569 c 1
 423.5 625 375.5 669 290.5 673 c 1
 290.5 403 l 1
 338.5 391 374.5 382 414.5 338 c 0
 423.5 329 468.5 278 468.5 195 c 0x17e0
417.5 165 m 0
 417.5 189 410.5 286 290.5 311 c 1x12e0
 290.5 21 l 1
 369.5 31 417.5 98 417.5 165 c 0
259.5 411 m 1
 259.5 673 l 1
 179.5 665 132.5 603 132.5 543 c 0
 132.5 523 136.5 437 259.5 411 c 1
EndSplineSet
Substitution2: "'onum' Oldstyle Figures lookup 4 subtable" dollar.oldstyle
Substitution2: "'aalt' Access All Alternates lookup 0 subtable" dollar.oldstyle
EndChar

StartChar: E
Encoding: 69 69 49
Width: 550
Flags: HMW
HStem: 0 31<49.0651 66.5851 66.5851 94.6901 224.995 322.085 322.085 384.865 49.0651 66.5851> 338 31<189.225 254.925 189.225 254.925> 455 31 649 31<49.0651 66.5851 49.0651 460.055 207.84 224.995 224.995 319.165>
VStem: 124.255 64.97<78 338 369 602 602 609> 333.765 18.25<221 263.5 443 486> 462.245 18.25<455 455> 482.685 18.25<258 258>
LayerCount: 2
Fore
SplineSet
500.936 258 m 1
 470.275 0 l 1
 49.0645 0 l 1
 49.0645 31 l 1
 66.5859 31 l 2
 122.795 31 124.256 42 124.256 78 c 2
 124.256 602 l 2
 124.256 638 122.795 649 66.5859 649 c 2
 49.0645 649 l 1
 49.0645 680 l 1
 460.055 680 l 1
 480.494 455 l 1
 462.244 455 l 1
 450.564 594 430.855 649 319.166 649 c 2
 224.994 649 l 2
 190.686 649 189.225 642 189.225 609 c 2
 189.225 369 l 1
 254.926 369 l 2
 325.734 369 333.766 400 333.766 486 c 1
 352.016 486 l 1
 352.016 221 l 1
 333.766 221 l 1
 333.766 306 325.734 338 254.926 338 c 2
 189.225 338 l 1
 189.225 71 l 2
 189.225 38 190.686 31 224.994 31 c 2
 322.086 31 l 2
 447.645 31 464.436 104 482.686 258 c 1
 500.936 258 l 1
EndSplineSet
Position2: "'cpsp' Capital Spacing lookup 0 subtable" dx=5 dy=0 dh=10 dv=0
EndChar

StartChar: e
Encoding: 101 101 50
Width: 550
Flags: HMW
HStem: -11 25<282.5 312.5 282.5 362.5> 231 21<165.5 402.5 165.5 443.5 164.5 402.5> 426 22<272.5 341>
VStem: 81.5 83<213 231 213 282.5> 402.5 66<252 271.5>
LayerCount: 2
Fore
SplineSet
468.5 119 m 0
 468.5 100 423.5 -11 301.5 -11 c 0
 186.5 -11 81.5 86 81.5 220 c 0
 81.5 345 173.5 448 289.5 448 c 0
 414.5 448 468.5 351 468.5 252 c 0
 468.5 231 465.5 231 443.5 231 c 2
 164.5 231 l 1
 164.5 195 164.5 129 194.5 81 c 0
 217.5 44 257.5 14 307.5 14 c 0
 317.5 14 407.5 14 442.5 117 c 0
 444.5 125 446.5 131 455.5 131 c 0
 460.5 131 468.5 129 468.5 119 c 0
402.5 252 m 1
 402.5 291 392.5 426 289.5 426 c 0
 255.5 426 171.5 401 165.5 252 c 1
 402.5 252 l 1
EndSplineSet
EndChar

StartChar: eight
Encoding: 56 56 51
Width: 550
Flags: HMW
HStem: -22 28<232.5 316.5 232.5 331> 641 25<239 311>
VStem: 67.5 50<109.5 180 109.5 200.5> 138.5 50 432.5 50<114.5 162.5>
LayerCount: 2
Fore
SplineSet
482.5 168 m 0
 482.5 61 387.5 -22 274.5 -22 c 0
 169.5 -22 67.5 45 67.5 151 c 0
 67.5 250 153.5 306 211.5 335 c 1
 186.5 352 149.5 377 138.5 389 c 0
 96.5 436 94.5 481 94.5 499 c 0
 94.5 592 175.5 666 275.5 666 c 0
 366.5 666 455.5 609 455.5 517 c 0
 455.5 451 406.5 399 334.5 362 c 1
 398.5 322 414.5 312 433.5 291 c 0
 471.5 249 482.5 204 482.5 168 c 0
411.5 517 m 0
 411.5 589 347.5 641 274.5 641 c 0
 203.5 641 138.5 599 138.5 538 c 0
 138.5 521 142.5 487 188.5 457 c 2
 312.5 377 l 1
 372.5 412 411.5 460 411.5 517 c 0
432.5 132 m 0
 432.5 193 385.5 223 357.5 242 c 1
 234.5 320 l 1
 149.5 273 117.5 209 117.5 151 c 0
 117.5 68 189.5 6 275.5 6 c 0
 357.5 6 432.5 58 432.5 132 c 0
EndSplineSet
Substitution2: "'pnum' Proportional Numbers lookup 6 subtable" eight.prop
Substitution2: "'onum' Oldstyle Figures lookup 4 subtable" eight.oldstyle
AlternateSubs2: "'aalt' Access All Alternates lookup 1 subtable" eight.oldstyle eight.prop
EndChar

StartChar: equal
Encoding: 61 61 52
Width: 550
Flags: HMW
HStem: 133 40<51.255 492.905 57.095 492.905 492.905 493.635> 327 40<56.365 57.095 57.095 492.905>
VStem: 32.275 485.45<143 163 337 357>
LayerCount: 2
Fore
SplineSet
517.725 347 m 0
 517.725 327 503.855 327 492.904 327 c 2
 57.0957 327 l 2
 46.1445 327 32.2754 327 32.2754 347 c 0
 32.2754 367 46.1445 367 56.3652 367 c 2
 493.635 367 l 2
 503.855 367 517.725 367 517.725 347 c 0
517.725 153 m 0
 517.725 133 503.855 133 493.635 133 c 2
 56.3652 133 l 2
 46.1445 133 32.2754 133 32.2754 153 c 0
 32.2754 173 46.1445 173 57.0957 173 c 2
 492.904 173 l 2
 503.855 173 517.725 173 517.725 153 c 0
EndSplineSet
EndChar

StartChar: exclam
Encoding: 33 33 53
Width: 550
Flags: HMW
HStem: 0 106<260.5 289.5>
LayerCount: 2
Fore
SplineSet
328 665 m 1
 289 209 l 2
 288 192 285 187 275 187 c 0
 263 187 262 195 261 210 c 2
 222 665 l 1
 222 698 249 716 275 716 c 0
 301 716 328 698 328 665 c 1
328 53 m 0
 328 24 304 0 275 0 c 0
 246 0 222 24 222 53 c 0
 222 82 246 106 275 106 c 0
 304 106 328 82 328 53 c 0
EndSplineSet
EndChar

StartChar: F
Encoding: 70 70 54
Width: 550
Flags: HMW
HStem: 0 31<64.3952 81.9152> 325 31<204.555 267.335 204.555 267.335> 649 31<64.3952 81.9152 64.3952 465.165 223.17 240.325 240.325 327.925>
VStem: 139.585 64.97<78 79 79 325 356 602 602 609> 175.355 64.97 297.995 64.97 344.715 18.25<208 250.5 431 473> 467.355 18.25<455 455>
LayerCount: 2
Fore
SplineSet
485.605 455 m 1xb0
 467.355 455 l 1
 455.676 593 437.426 649 327.926 649 c 2
 240.324 649 l 2x29
 206.016 649 204.555 642 204.555 609 c 2
 204.555 356 l 1
 267.336 356 l 2
 337.416 356 344.715 389 344.715 473 c 1
 362.965 473 l 1
 362.965 208 l 1
 344.715 208 l 1
 344.715 293 337.416 325 267.336 325 c 2
 204.555 325 l 1
 204.555 79 l 2x52
 204.555 44 204.555 31 273.904 31 c 2
 297.996 31 l 1
 297.996 0 l 1
 271.715 3 205.285 3 175.355 3 c 0x8c
 146.885 3 89.9453 3 64.3945 0 c 1
 64.3945 31 l 1
 81.916 31 l 2
 138.125 31 139.586 42 139.586 78 c 2
 139.586 602 l 2
 139.586 638 138.125 649 81.916 649 c 2
 64.3945 649 l 1
 64.3945 680 l 1
 465.166 680 l 1
 485.605 455 l 1xb0
EndSplineSet
Position2: "'cpsp' Capital Spacing lookup 0 subtable" dx=5 dy=0 dh=10 dv=0
EndChar

StartChar: f
Encoding: 102 102 55
Width: 550
Flags: HMW
HStem: 0 31<114 147.5> 400 31<113 192 113 192 258 372 258 258> 591 84 683 22<325 348.5>
VStem: 192 66<76 78 78 400> 350 87<623 646.5>
LayerCount: 2
Fore
SplineSet
437 635 m 0
 437 611 422 591 393 591 c 0
 366 591 350 611 350 634 c 0
 350 659 368 672 380 676 c 1
 365 683 350 683 347 683 c 0
 303 683 255 635 255 547 c 2
 255 431 l 1
 372 431 l 1
 372 400 l 1
 258 400 l 1
 258 78 l 2
 258 42 260 31 334 31 c 2
 355 31 l 1
 355 0 l 1
 315 3 268 3 228 3 c 1
 114 0 l 1
 114 31 l 1
 181 31 192 31 192 76 c 2
 192 400 l 1
 113 400 l 1
 113 431 l 1
 192 431 l 1
 192 546 l 2
 192 652 277 705 347 705 c 0
 400 705 437 672 437 635 c 0
EndSplineSet
EndChar

StartChar: five
Encoding: 53 53 56
Width: 550
Flags: HMW
HStem: -22 28<218 277.5 218 314.5> 116 98<119 141> 118 83 398 22<260.5 308.5> 551 83<261.5 304> 564 98 634 28 641 22 646 20G<425.5 429>
VStem: 75.5 99<153 177 153 184> 153.5 89 157.5 99 385.5 89<190.5 233>
LayerCount: 2
Fore
SplineSet
474.5 201 m 0x1410
 474.5 74 372.5 -22 256.5 -22 c 0xa018
 144.5 -22 75.5 75 75.5 161 c 0
 75.5 207 110.5 214 124.5 214 c 0
 157.5 214 174.5 189 174.5 165 c 0
 174.5 141 157.5 116 124.5 116 c 0x4040
 113.5 116 110.5 117 107.5 118 c 1
 124.5 59 181.5 6 254.5 6 c 0
 300.5 6 337.5 32 361.5 71 c 1
 385.5 113 385.5 173 385.5 208 c 0
 385.5 258 383.5 297 367.5 334 c 0
 359.5 352 334.5 398 282.5 398 c 0
 201.5 398 164.5 344 153.5 328 c 0
 149.5 322 147.5 319 140.5 319 c 0
 126.5 319 126.5 327 126.5 345 c 2
 126.5 641 l 2xb128
 126.5 657 126.5 665 136.5 665 c 1
 136.5 665 140.5 665 148.5 662 c 0x02
 195.5 641 241.5 634 281.5 634 c 0
 348.5 634 397.5 654 417.5 663 c 0x09
 422.5 666 425.5 666 425.5 666 c 1
 432.5 666 435.5 661 435.5 655 c 0
 435.5 642 365.5 551 242.5 551 c 0x08a0
 210.5 551 177.5 558 157.5 564 c 1
 157.5 369 l 1
 193.5 404 236.5 420 284.5 420 c 0
 392.5 420 474.5 320 474.5 201 c 0x1410
EndSplineSet
Substitution2: "'pnum' Proportional Numbers lookup 6 subtable" five.prop
Substitution2: "'onum' Oldstyle Figures lookup 4 subtable" five.oldstyle
AlternateSubs2: "'aalt' Access All Alternates lookup 1 subtable" five.oldstyle five.prop
EndChar

StartChar: four
Encoding: 52 52 57
Width: 550
Flags: HMW
HStem: 0 31<222.5 243.5> 165 31<81.5 319.5 53.5 53.5 396.5 496.5> 657 20G<376 388.5>
VStem: 325.5 71<196 569 569 569>
LayerCount: 2
Fore
SplineSet
496.5 165 m 1
 396.5 165 l 1
 396.5 78 l 2
 396.5 42 398.5 31 472.5 31 c 2
 493.5 31 l 1
 493.5 0 l 1
 452.5 3 399.5 3 357.5 3 c 0
 315.5 3 263.5 3 222.5 0 c 1
 222.5 31 l 1
 243.5 31 l 2
 317.5 31 319.5 42 319.5 78 c 2
 319.5 165 l 1
 53.5 165 l 1
 53.5 196 l 1
 360.5 665 l 2
 368.5 677 371.5 677 380.5 677 c 0
 396.5 677 396.5 671 396.5 651 c 2
 396.5 196 l 1
 496.5 196 l 1
 496.5 165 l 1
325.5 196 m 1
 325.5 569 l 1
 81.5 196 l 1
 325.5 196 l 1
EndSplineSet
Substitution2: "'pnum' Proportional Numbers lookup 6 subtable" four.prop
Substitution2: "'onum' Oldstyle Figures lookup 4 subtable" four.oldstyle
AlternateSubs2: "'aalt' Access All Alternates lookup 1 subtable" four.oldstyle four.prop
EndChar

StartChar: G
Encoding: 71 71 58
Width: 550
Flags: HMW
HStem: -22 31<270.62 304.565 270.62 309.31> 242 31<316.245 339.605 316.245 316.245> 674 31<268.065 317.34 213.315 329.02>
VStem: 27.1652 75.19<239.5 444.5> 407.495 64.97<130 194 194 198>
LayerCount: 2
Fore
SplineSet
522.835 242 m 1
 475.385 242 472.465 237 472.465 198 c 2
 472.465 24 l 2
 472.465 9 472.465 1 465.896 1 c 0
 457.865 1 428.665 41 419.175 63 c 1
 394.355 4 335.955 -22 282.665 -22 c 0
 143.965 -22 27.165 137 27.165 342 c 0
 27.165 547 145.425 705 281.205 705 c 0
 353.476 705 392.896 651 416.255 619 c 1
 452.755 693 l 2
 458.595 705 461.516 705 464.436 705 c 0
 472.465 705 472.465 698 472.465 681 c 2
 472.465 444 l 2
 472.465 423 472.465 420 460.785 420 c 0
 450.565 420 450.565 423 449.105 437 c 0
 434.505 584 368.075 674 289.965 674 c 0
 246.165 674 102.355 641 102.355 342 c 0
 102.355 44 246.896 9 294.345 9 c 0
 314.785 9 407.495 18 407.495 130 c 2
 407.495 194 l 2
 407.495 231 405.305 242 339.605 242 c 2
 316.245 242 l 1
 316.245 273 l 1
 342.525 270 404.575 270 433.775 270 c 2
 522.835 273 l 1
 522.835 242 l 1
EndSplineSet
Position2: "'cpsp' Capital Spacing lookup 0 subtable" dx=5 dy=0 dh=10 dv=0
EndChar

StartChar: g
Encoding: 103 103 59
Width: 550
Flags: HMW
HStem: -206 23<218 317.5 218 326.5> 7 58<180.5 283> 110 23 149 23<231 260.5 197 287> 419 23<220.5 251.5 194 284> 430 23
VStem: 177.5 75<66 66> 252.5 75 327.5 75<282.5 307.5>
CounterMasks: 1 0380
LayerCount: 2
Fore
SplineSet
503.5 404 m 0x0780
 503.5 381 484.5 374 474.5 374 c 0
 458.5 374 445.5 386 445.5 403 c 0
 445.5 415 450.5 426 461.5 430 c 1x1780
 458.5 431 451.5 431 451.5 431 c 1
 433.5 431 397.5 426 361.5 392 c 1
 386.5 369 402.5 332 402.5 295 c 0
 402.5 218 333.5 149 240.5 149 c 0
 221.5 149 180.5 152 141.5 180 c 1
 124.5 160 124.5 137 124.5 133 c 0
 124.5 101 145.5 70 177.5 66 c 0
 184.5 65 227.5 65 252.5 65 c 0
 313.5 65 371.5 65 424.5 37 c 0
 475.5 9 489.5 -42 489.5 -77 c 0
 489.5 -155 385.5 -206 267.5 -206 c 0
 145.5 -206 46.5 -151 46.5 -79 c 0
 46.5 -39 78.5 4 138.5 21 c 1
 107.5 41 94.5 79 94.5 110 c 0
 94.5 145 112.5 178 125.5 193 c 1
 100.5 214 78.5 252 78.5 296 c 0
 78.5 373 147.5 442 240.5 442 c 0xfb80
 262.5 442 304.5 439 346.5 406 c 1
 388.5 447 432.5 453 452.5 453 c 0
 491.5 453 503.5 421 503.5 404 c 0x0780
327.5 296 m 0
 327.5 319 327.5 419 240.5 419 c 0xcb80
 200.5 419 177.5 391 169.5 379 c 0
 154.5 354 153.5 322 153.5 295 c 0
 153.5 272 153.5 172 240.5 172 c 0
 280.5 172 303.5 200 311.5 212 c 0
 326.5 237 327.5 269 327.5 296 c 0
437.5 -79 m 0
 437.5 7 325.5 7 239.5 7 c 2
 180.5 7 l 1
 136.5 4 98.5 -33 98.5 -79 c 0
 98.5 -132 167.5 -183 268.5 -183 c 0
 366.5 -183 437.5 -133 437.5 -79 c 0
EndSplineSet
EndChar

StartChar: grave
Encoding: 96 96 60
Width: 550
Flags: HMW
HStem: 510 21G<351 351> 678 20G<209 225.5>
LayerCount: 2
Fore
SplineSet
368 528 m 1
 351 510 l 1
 199 632 l 2
 190 639 182 650 182 662 c 0
 182 680 200 698 218 698 c 0
 233 698 244 687 248 681 c 2
 368 528 l 1
EndSplineSet
EndChar

StartChar: greater
Encoding: 62 62 61
Width: 550
Flags: HMW
VStem: 51.985 446.03<-25.5 256 244 525.5>
LayerCount: 2
Fore
SplineSet
498.016 250 m 0
 498.016 238 492.176 233 484.145 228 c 2
 79.7246 -33 l 2
 70.2344 -40 68.7754 -40 66.5859 -40 c 0
 58.5547 -40 51.9844 -31 51.9844 -20 c 0
 51.9844 -11 55.6348 -5 65.8555 2 c 2
 449.105 250 l 1
 65.8555 498 l 2
 55.6348 505 51.9844 511 51.9844 520 c 0
 51.9844 531 58.5547 540 66.5859 540 c 0
 68.7754 540 70.2344 540 79.7246 533 c 2
 484.145 272 l 2
 492.176 267 498.016 262 498.016 250 c 0
EndSplineSet
EndChar

StartChar: H
Encoding: 72 72 62
Width: 550
Flags: HMW
HStem: 0 31<25.7052 43.2252> 340 31<165.865 384.135 165.865 384.135> 652 31<25.7052 43.2252 25.7052 25.7052>
VStem: 100.895 64.97<78 340 371 605> 384.135 64.97<78 340 340 340 371 605>
LayerCount: 2
Fore
SplineSet
524.295 0 m 1
 498.745 3 443.995 3 416.255 3 c 0
 388.516 3 334.495 3 308.945 0 c 1
 308.945 31 l 1
 326.465 31 l 2
 382.675 31 384.135 42 384.135 78 c 2
 384.135 340 l 1
 165.865 340 l 1
 165.865 78 l 2
 165.865 42 167.325 31 223.535 31 c 2
 241.056 31 l 1
 241.056 0 l 1
 215.505 3 160.755 3 133.016 3 c 0
 105.275 3 51.2549 3 25.7051 0 c 1
 25.7051 31 l 1
 43.2256 31 l 2
 99.4355 31 100.896 42 100.896 78 c 2
 100.896 605 l 2
 100.896 641 99.4355 652 43.2256 652 c 2
 25.7051 652 l 1
 25.7051 683 l 1
 51.2549 680 106.005 680 133.745 680 c 0
 161.485 680 215.505 680 241.056 683 c 1
 241.056 652 l 1
 223.535 652 l 2
 167.325 652 165.865 641 165.865 605 c 2
 165.865 371 l 1
 384.135 371 l 1
 384.135 605 l 2
 384.135 641 382.675 652 326.465 652 c 2
 308.945 652 l 1
 308.945 683 l 1
 334.495 680 389.245 680 416.985 680 c 0
 444.726 680 498.745 680 524.295 683 c 1
 524.295 652 l 1
 506.775 652 l 2
 450.565 652 449.105 641 449.105 605 c 2
 449.105 78 l 2
 449.105 42 450.565 31 506.775 31 c 2
 524.295 31 l 1
 524.295 0 l 1
EndSplineSet
Position2: "'cpsp' Capital Spacing lookup 0 subtable" dx=5 dy=0 dh=10 dv=0
EndChar

StartChar: h
Encoding: 104 104 63
Width: 550
Flags: HMW
HStem: 0 31<23.5 57> 420 22<273.5 337> 652 31<23.5 58.5> 652 42
VStem: 101.5 69<76 260> 379.5 69<76 252 61 309 61 337.5>
LayerCount: 2
Fore
SplineSet
526.5 0 m 1xd4
 414.5 3 l 1
 301.5 0 l 1
 301.5 31 l 1
 368.5 31 379.5 31 379.5 76 c 2
 379.5 309 l 2
 379.5 366 368.5 420 305.5 420 c 0
 241.5 420 170.5 364 170.5 260 c 2
 170.5 76 l 2
 170.5 31 181.5 31 248.5 31 c 1
 248.5 0 l 1
 136.5 3 l 1
 23.5 0 l 1
 23.5 31 l 1
 90.5 31 101.5 31 101.5 76 c 2
 101.5 596 l 2
 101.5 645 93.5 652 23.5 652 c 1
 23.5 683 l 1xec
 167.5 694 l 1
 167.5 346 l 1
 168.5 346 l 1
 184.5 382 228.5 442 312.5 442 c 0
 370.5 442 403.5 422 417.5 405 c 0
 448.5 369 448.5 338 448.5 252 c 2
 448.5 61 l 1
 449.5 31 474.5 31 526.5 31 c 1
 526.5 0 l 1xd4
EndSplineSet
EndChar

StartChar: hyphen
Encoding: 45 45 64
Width: 550
Flags: HMW
HStem: 187 58<142.5 407.5 142.5 407.5>
VStem: 142.5 265<187 245 187 245>
LayerCount: 2
Fore
SplineSet
407.5 187 m 1
 142.5 187 l 1
 142.5 245 l 1
 407.5 245 l 1
 407.5 187 l 1
EndSplineSet
EndChar

StartChar: I
Encoding: 73 73 65
Width: 550
Flags: HMW
HStem: 0 31<163.675 182.655> 652 31<163.675 182.655 163.675 163.675>
VStem: 242.515 64.97<78 605>
LayerCount: 2
Fore
SplineSet
386.324 0 m 1
 360.775 3 303.105 3 274.635 3 c 0
 246.895 3 189.225 3 163.676 0 c 1
 163.676 31 l 1
 182.654 31 l 2
 240.324 31 242.516 42 242.516 78 c 2
 242.516 605 l 2
 242.516 641 240.324 652 182.654 652 c 2
 163.676 652 l 1
 163.676 683 l 1
 189.225 680 246.895 680 275.365 680 c 0
 303.105 680 360.775 680 386.324 683 c 1
 386.324 652 l 1
 367.346 652 l 2
 309.676 652 307.484 641 307.484 605 c 2
 307.484 78 l 2
 307.484 42 309.676 31 367.346 31 c 2
 386.324 31 l 1
 386.324 0 l 1
EndSplineSet
Position2: "'cpsp' Capital Spacing lookup 0 subtable" dx=5 dy=0 dh=10 dv=0
EndChar

StartChar: i
Encoding: 105 105 66
Width: 550
Flags: HMW
HStem: 0 31<168 201.5> 400 31<172 204.5> 400 42 551 106<258 289 257 290>
VStem: 220 107<591.5 616.5> 246 66<76 345 345 369.5>
LayerCount: 2
Fore
SplineSet
382 0 m 1xa4
 348 1 313 3 278 3 c 2
 168 0 l 1
 168 31 l 1
 235 31 246 31 246 76 c 2
 246 345 l 2
 246 394 237 400 172 400 c 1
 172 431 l 1xc4
 312 442 l 1
 312 75 l 2
 312 36 316 31 382 31 c 1
 382 0 l 1xa4
327 604 m 0x18
 327 579 307 551 273 551 c 0
 243 551 220 577 220 604 c 0
 220 629 240 657 274 657 c 0
 304 657 327 631 327 604 c 0x18
EndSplineSet
EndChar

StartChar: J
Encoding: 74 74 67
Width: 550
Flags: HMW
HStem: -22 22<233.39 254.925 233.39 274.27> 0 112 58 112<155.28 171.34 153.09 174.26> 148 22 652 31<212.95 239.23 212.95 212.95>
VStem: 120.24 81.76<101 132 101 134> 155.28 81.76 310.77 62.78<150 167 167 604 604 611>
LayerCount: 2
Fore
SplineSet
429.76 652 m 1x59
 383.77 652 373.551 652 373.551 611 c 2
 373.551 167 l 2
 373.551 133 373.551 131 372.82 123 c 0
 364.791 48 311.5 -22 237.041 -22 c 0x8b
 172.07 -22 120.24 38 120.24 112 c 0x44
 120.24 156 145.061 170 161.119 170 c 0
 181.561 170 202 150 202 114 c 0x24
 202 88 193.24 58 155.279 58 c 1x22
 181.561 0 231.199 0 235.58 0 c 0
 274.27 0 310.77 56 310.77 148 c 2
 310.77 604 l 2
 310.77 639 310.77 652 239.23 652 c 2
 212.949 652 l 1
 212.949 683 l 1
 240.689 680 304.93 680 335.59 680 c 2
 429.76 683 l 1
 429.76 652 l 1x59
EndSplineSet
Position2: "'cpsp' Capital Spacing lookup 0 subtable" dx=5 dy=0 dh=10 dv=0
EndChar

StartChar: j
Encoding: 106 106 68
Width: 550
Flags: HMW
HStem: -205 22<258.5 293 258.5 300.5> -167 88 400 42 551 106<331 362 330 363>
VStem: 150 92<-138.5 -112 -138.5 -112> 293 107<591.5 616.5> 334 66<-52 -50 -50 344 344 368.5>
LayerCount: 2
Fore
SplineSet
400 -50 m 2xea
 400 -141 338 -205 263 -205 c 0
 206 -205 150 -177 150 -125 c 0
 150 -99 168 -79 196 -79 c 0
 224 -79 242 -99 242 -125 c 0
 242 -152 222 -166 207 -170 c 1
 233 -183 256 -183 261 -183 c 0
 325 -183 334 -97 334 -52 c 2
 334 344 l 2
 334 393 325 400 248 400 c 1
 248 431 l 1
 400 442 l 1
 400 -50 l 2xea
400 604 m 0x14
 400 579 380 551 346 551 c 0
 316 551 293 577 293 604 c 0
 293 629 313 657 347 657 c 0
 377 657 400 631 400 604 c 0x14
EndSplineSet
EndChar

StartChar: K
Encoding: 75 75 69
Width: 550
Flags: HMW
HStem: 0 31<18.4049 35.9249> 652 31<18.4049 35.9249 18.4049 18.4049>
VStem: 93.5949 64.97<78 253 287 605>
LayerCount: 2
Fore
SplineSet
531.596 0 m 1
 447.645 3 l 2
 419.904 3 368.805 3 343.256 0 c 1
 343.256 31 l 1
 357.855 31 386.324 31 386.324 61 c 0
 386.324 73 379.756 86 375.375 95 c 2
 243.244 363 l 1
 158.564 253 l 1
 158.564 78 l 2
 158.564 42 160.025 31 216.234 31 c 2
 233.756 31 l 1
 233.756 0 l 1
 208.205 3 153.455 3 125.715 3 c 0
 97.9746 3 43.9551 3 18.4043 0 c 1
 18.4043 31 l 1
 35.9258 31 l 2
 92.1348 31 93.5957 42 93.5957 78 c 2
 93.5957 605 l 2
 93.5957 641 92.1348 652 35.9258 652 c 2
 18.4043 652 l 1
 18.4043 683 l 1
 43.9551 680 98.7051 680 126.445 680 c 0
 154.186 680 208.205 680 233.756 683 c 1
 233.756 652 l 1
 216.234 652 l 2
 160.025 652 158.564 641 158.564 605 c 2
 158.564 287 l 1
 387.055 586 l 2
 392.895 593 400.195 603 400.195 619 c 0
 400.195 628 395.814 651 366.615 652 c 1
 366.615 683 l 1
 391.436 680 433.045 680 459.324 680 c 0
 479.035 680 502.395 680 521.375 683 c 1
 521.375 652 l 1
 462.244 651 423.555 600 417.715 592 c 2
 286.314 419 l 1
 454.945 79 l 2
 476.846 35 492.176 31 531.596 31 c 1
 531.596 0 l 1
EndSplineSet
Position2: "'cpsp' Capital Spacing lookup 0 subtable" dx=5 dy=0 dh=10 dv=0
EndChar

StartChar: k
Encoding: 107 107 70
Width: 550
Flags: HMW
HStem: 0 31<33.5 67> 400 31<311.5 311.5> 652 31<33.5 68.5> 652 42
VStem: 111.5 66<214 596 596 620.5> 252.5 66 357.5 66
LayerCount: 2
Fore
SplineSet
516.5 0 m 1xde
 487.5 2 458.5 3 429.5 3 c 2
 321.5 0 l 1
 321.5 31 l 1
 340.5 31 357.5 35 357.5 54 c 0
 357.5 72 315.5 128 238.5 234 c 1
 174.5 179 l 1
 174.5 76 l 2
 174.5 31 185.5 31 252.5 31 c 1
 252.5 0 l 1
 142.5 3 l 1
 33.5 0 l 1
 33.5 31 l 1
 100.5 31 111.5 31 111.5 76 c 2
 111.5 596 l 2
 111.5 645 103.5 652 33.5 652 c 1
 33.5 683 l 1xae
 177.5 694 l 1
 177.5 214 l 1
 318.5 336 l 2
 326.5 343 340.5 355 340.5 375 c 0
 340.5 388 330.5 399 311.5 400 c 1
 311.5 431 l 1
 325.5 430 387.5 428 423.5 428 c 0
 451.5 428 464.5 428 493.5 431 c 1
 493.5 400 l 1
 472.5 399 430.5 397 367.5 346 c 0
 357.5 338 286.5 278 286.5 274 c 0
 286.5 271 291.5 265 292.5 263 c 2
 419.5 84 l 2
 457.5 31 479.5 31 516.5 31 c 1
 516.5 0 l 1xde
EndSplineSet
EndChar

StartChar: L
Encoding: 76 76 71
Width: 550
Flags: HMW
HStem: 0 31<74.6149 92.1349 92.1349 120.24 250.545 310.405 310.405 374.645 74.6149 92.1349> 238 20G<457.135 475.385 475.385 475.385> 652 31<74.6149 92.1349 74.6149 74.6149>
VStem: 149.805 64.97<78 604> 185.575 64.97 457.135 18.25<258 258>
LayerCount: 2
Fore
SplineSet
475.385 258 m 1xcc
 454.945 0 l 1
 74.6152 0 l 1
 74.6152 31 l 1
 92.1348 31 l 2
 148.346 31 149.805 42 149.805 78 c 2
 149.805 605 l 2xd4
 149.805 641 148.346 652 92.1348 652 c 2
 74.6152 652 l 1
 74.6152 683 l 1
 100.164 680 157.105 680 185.574 680 c 0x28
 215.506 680 281.936 680 308.215 683 c 1
 308.215 652 l 1
 284.125 652 l 2
 214.775 652 214.775 638 214.775 604 c 2
 214.775 71 l 2x30
 214.775 38 216.234 31 250.545 31 c 2
 310.404 31 l 2
 438.885 31 449.105 156 457.135 258 c 1
 475.385 258 l 1xcc
EndSplineSet
Position2: "'cpsp' Capital Spacing lookup 0 subtable" dx=5 dy=0 dh=10 dv=0
EndChar

StartChar: l
Encoding: 108 108 72
Width: 550
Flags: HMW
HStem: 0 31<164 197.5> 652 31<164 199> 652 42
VStem: 242 66<76 596 596 620.5>
LayerCount: 2
Fore
SplineSet
386 0 m 1xb0
 275 3 l 1
 164 0 l 1
 164 31 l 1
 231 31 242 31 242 76 c 2
 242 596 l 2
 242 645 234 652 164 652 c 1
 164 683 l 1xd0
 308 694 l 1
 308 76 l 2
 308 31 319 31 386 31 c 1
 386 0 l 1xb0
EndSplineSet
EndChar

StartChar: less
Encoding: 60 60 73
Width: 550
Flags: HMW
VStem: 51.985 446.03<-25.5 256>
LayerCount: 2
Fore
SplineSet
498.016 -20 m 0
 498.016 -31 491.445 -40 483.414 -40 c 0
 481.225 -40 479.766 -40 470.275 -33 c 2
 65.8555 228 l 2
 57.8242 233 51.9844 238 51.9844 250 c 0
 51.9844 262 57.8242 267 65.8555 272 c 2
 470.275 533 l 2
 479.766 540 481.225 540 483.414 540 c 0
 491.445 540 498.016 531 498.016 520 c 0
 498.016 509 492.904 504 484.145 498 c 2
 100.895 250 l 1
 484.145 2 l 2
 492.904 -4 498.016 -9 498.016 -20 c 0
EndSplineSet
EndChar

StartChar: M
Encoding: 77 77 74
Width: 550
Flags: HMW
HStem: 0 31<-32.3298 5.26516> 652 31<-32.3298 -14.8098 -32.3298 91.0402 536.705 564.81 564.81 582.33>
VStem: 42.8602 20.44<105 605 605 623> 254.56 20.44 448.01 59.13<78 605>
LayerCount: 2
Fore
SplineSet
582.33 0 m 1
 555.32 3 506.41 3 477.94 3 c 0
 449.47 3 399.83 3 372.82 0 c 1
 372.82 31 l 1
 390.34 31 l 2
 446.55 31 448.01 42 448.01 78 c 2
 448.01 652 l 1
 447.28 652 l 1
 267.7 19 l 2
 264.78 8 262.59 0 254.561 0 c 0
 247.26 0 243.61 9 239.96 22 c 2
 64.0303 644 l 1
 63.2998 644 l 1
 63.2998 105 l 2
 63.2998 78 63.2998 31 138.49 31 c 1
 138.49 0 l 1
 53.0801 3 l 1
 -32.3301 0 l 1
 -32.3301 31 l 1
 42.8604 31 42.8604 78 42.8604 105 c 2
 42.8604 605 l 2
 42.8604 641 41.4004 652 -14.8096 652 c 2
 -32.3301 652 l 1
 -32.3301 683 l 1
 91.04 683 l 2
 107.83 683 110.021 683 116.59 661 c 2
 275 101 l 1
 434.87 664 l 2
 439.98 682 439.98 683 458.96 683 c 2
 582.33 683 l 1
 582.33 652 l 1
 564.811 652 l 2
 508.601 652 507.141 641 507.141 605 c 2
 507.141 78 l 2
 507.141 42 508.601 31 564.811 31 c 2
 582.33 31 l 1
 582.33 0 l 1
EndSplineSet
Position2: "'cpsp' Capital Spacing lookup 0 subtable" dx=5 dy=0 dh=10 dv=0
EndChar

StartChar: m
Encoding: 109 109 75
Width: 550
Flags: HMW
HStem: 0 31<17.2699 39.3799> 400 31<17.2699 40.3699> 420 22<183.92 222.86 365.75 407.66>
VStem: 68.7499 45.54<76 260> 252.23 45.54<76 260> 435.71 45.54<76 252 61 309 61 337.5>
CounterMasks: 1 1c
LayerCount: 2
Fore
SplineSet
532.73 0 m 1xbc
 458.811 3 l 1
 384.23 0 l 1
 384.23 31 l 1
 428.449 31 435.709 31 435.709 76 c 2
 435.709 309 l 2
 435.709 366 428.449 420 386.869 420 c 0
 344.629 420 297.77 364 297.77 260 c 2
 297.77 76 l 2
 297.77 31 305.029 31 349.25 31 c 1
 349.25 0 l 1
 275.33 3 l 1
 200.75 0 l 1
 200.75 31 l 1
 244.971 31 252.23 31 252.23 76 c 2
 252.23 309 l 2
 252.23 366 244.971 420 203.391 420 c 0xbc
 161.15 420 114.289 364 114.289 260 c 2
 114.289 76 l 2
 114.289 31 121.551 31 165.77 31 c 1
 165.77 0 l 1
 91.8496 3 l 1
 17.2695 0 l 1
 17.2695 31 l 1
 61.4902 31 68.75 31 68.75 76 c 2
 68.75 344 l 2
 68.75 393 63.4707 400 17.2695 400 c 1
 17.2695 431 l 1xdc
 110.33 442 l 1
 110.33 337 l 1
 128.811 399 159.83 442 208.01 442 c 0
 237.709 442 286.551 431 295.789 344 c 1
 307.01 382 336.051 442 391.49 442 c 0
 429.77 442 451.551 422 460.789 405 c 0
 481.25 369 481.25 338 481.25 252 c 2
 481.25 61 l 1
 481.91 31 498.41 31 532.73 31 c 1
 532.73 0 l 1xbc
EndSplineSet
EndChar

StartChar: N
Encoding: 78 78 76
Width: 550
Flags: HMW
HStem: 0 31<25.7052 63.3002> 652 31<25.7052 46.8752 25.7052 149.805>
VStem: 100.895 20.44<105 625> 428.665 20.44<151 578>
LayerCount: 2
Fore
SplineSet
524.295 652 m 1
 449.105 652 449.105 605 449.105 578 c 2
 449.105 26 l 2
 449.105 7 449.105 0 438.885 0 c 0
 433.775 0 433.045 1 426.476 13 c 2
 128.635 613 l 2
 125.715 619 124.985 620 121.335 625 c 1
 121.335 105 l 2
 121.335 78 121.335 31 196.525 31 c 1
 196.525 0 l 1
 111.115 3 l 1
 25.7051 0 l 1
 25.7051 31 l 1
 100.896 31 100.896 78 100.896 105 c 2
 100.896 627 l 2
 100.896 646 100.165 647 83.375 650 c 0
 72.4248 651 57.8252 652 46.875 652 c 2
 25.7051 652 l 1
 25.7051 683 l 1
 149.806 683 l 2
 163.675 683 164.405 682 170.976 670 c 2
 428.665 151 l 1
 428.665 578 l 2
 428.665 605 428.665 652 353.476 652 c 1
 353.476 683 l 1
 438.885 680 l 1
 524.295 683 l 1
 524.295 652 l 1
EndSplineSet
Position2: "'cpsp' Capital Spacing lookup 0 subtable" dx=5 dy=0 dh=10 dv=0
EndChar

StartChar: n
Encoding: 110 110 77
Width: 550
Flags: HMW
HStem: 0 31<23.5 57> 400 31<23.5 58.5> 420 22<276 337>
VStem: 101.5 69<76 260> 379.5 69<76 252 61 309 61 337.5>
LayerCount: 2
Fore
SplineSet
526.5 0 m 1xa8
 414.5 3 l 1
 301.5 0 l 1
 301.5 31 l 1
 368.5 31 379.5 31 379.5 76 c 2
 379.5 309 l 2
 379.5 366 368.5 420 305.5 420 c 0xa8
 241.5 420 170.5 364 170.5 260 c 2
 170.5 76 l 2
 170.5 31 181.5 31 248.5 31 c 1
 248.5 0 l 1
 136.5 3 l 1
 23.5 0 l 1
 23.5 31 l 1
 90.5 31 101.5 31 101.5 76 c 2
 101.5 344 l 2
 101.5 393 93.5 400 23.5 400 c 1
 23.5 431 l 1xd0
 164.5 442 l 1
 164.5 337 l 1
 192.5 399 239.5 442 312.5 442 c 0
 370.5 442 403.5 422 417.5 405 c 0
 448.5 369 448.5 338 448.5 252 c 2
 448.5 61 l 1
 449.5 31 474.5 31 526.5 31 c 1
 526.5 0 l 1xa8
EndSplineSet
EndChar

StartChar: nine
Encoding: 57 57 78
Width: 550
Flags: HMW
HStem: -22 28<222 259.5 222 296> 42 92<132.5 149.5 130.5 154.5> 218 23<260.5 298> 304 25 329 92 578 25 641 25<261 301.5>
VStem: 67.5 90<415.5 467 415.5 478.5> 178.5 90 392.5 90<286 318 318 318>
LayerCount: 2
Fore
SplineSet
482.5 329 m 0xefc0
 482.5 114 360.5 -22 231.5 -22 c 0
 146.5 -22 92.5 19 92.5 86 c 0
 92.5 125 122.5 134 138.5 134 c 0
 160.5 134 184.5 119 184.5 88 c 0
 184.5 71 176.5 42 132.5 42 c 1
 159.5 8 213.5 6 230.5 6 c 0
 288.5 6 392.5 52 392.5 286 c 2
 392.5 318 l 1
 369.5 260 328.5 218 267.5 218 c 0
 155.5 218 67.5 316 67.5 441 c 0
 67.5 516 90.5 558 131.5 603 c 1
 174.5 648 223.5 666 278.5 666 c 0
 367.5 666 482.5 598 482.5 329 c 0xefc0
390.5 421 m 0
 390.5 467 386.5 530 374.5 562 c 0
 357.5 607 324.5 641 278.5 641 c 0
 243.5 641 205.5 628 178.5 578 c 0
 157.5 541 157.5 494 157.5 440 c 0
 157.5 391 157.5 341 175.5 304 c 0x1780
 206.5 241 252.5 241 268.5 241 c 0
 356.5 241 390.5 338 390.5 421 c 0
EndSplineSet
Substitution2: "'pnum' Proportional Numbers lookup 6 subtable" nine.prop
Substitution2: "'onum' Oldstyle Figures lookup 4 subtable" nine.oldstyle
AlternateSubs2: "'aalt' Access All Alternates lookup 1 subtable" nine.oldstyle nine.prop
EndChar

StartChar: numbersign
Encoding: 35 35 79
Width: 550
Flags: HMW
HStem: -194 21G<40.5 54 269.5 283> 133 40<-59 120 -51 108 161 337 -51 149 390 601 601 602> 327 40<-52 -51 -51 160 -52 201 213 389 442 601> 674 20G<267 280.5 496 509.5>
VStem: -85 720<143 163 337 357>
LayerCount: 2
Fore
SplineSet
635 153 m 0
 635 133 616 133 602 133 c 2
 378 133 l 1
 297 -170 l 2
 294 -181 291 -194 275 -194 c 0
 264 -194 255 -185 255 -174 c 0
 255 -170 258 -158 259 -156 c 2
 337 133 l 1
 149 133 l 1
 68 -170 l 2
 65 -181 62 -194 46 -194 c 0
 35 -194 26 -185 26 -174 c 0
 26 -170 29 -158 30 -156 c 2
 108 133 l 1
 -52 133 l 2
 -66 133 -85 133 -85 153 c 0
 -85 173 -66 173 -51 173 c 2
 120 173 l 1
 160 327 l 1
 -51 327 l 2
 -66 327 -85 327 -85 347 c 0
 -85 367 -66 367 -52 367 c 2
 172 367 l 1
 253 670 l 2
 256 681 259 694 275 694 c 0
 286 694 295 685 295 674 c 0
 295 670 292 658 291 656 c 2
 213 367 l 1
 401 367 l 1
 482 670 l 2
 485 681 488 694 504 694 c 0
 515 694 524 685 524 674 c 0
 524 670 521 658 520 656 c 2
 442 367 l 1
 602 367 l 2
 616 367 635 367 635 347 c 0
 635 327 616 327 601 327 c 2
 430 327 l 1
 390 173 l 1
 601 173 l 2
 616 173 635 173 635 153 c 0
389 327 m 1
 201 327 l 1
 161 173 l 1
 349 173 l 1
 389 327 l 1
EndSplineSet
EndChar

StartChar: O
Encoding: 79 79 80
Width: 550
Flags: HMW
HStem: -22 26<240.325 308.945 240.325 341.065> 680 25<244.34 306.39>
VStem: 32.275 75.19<236.5 442> 442.535 75.19<238 441 238 481>
LayerCount: 2
Fore
SplineSet
517.725 339 m 0
 517.725 137 407.494 -22 274.635 -22 c 0
 144.695 -22 32.2754 134 32.2754 339 c 0
 32.2754 545 143.965 705 274.635 705 c 0
 407.494 705 517.725 543 517.725 339 c 0
442.535 353 m 0
 442.535 609 338.145 680 274.635 680 c 0
 214.045 680 107.465 612 107.465 353 c 0
 107.465 92 205.285 4 275.365 4 c 0
 342.525 4 442.535 88 442.535 353 c 0
EndSplineSet
Position2: "'cpsp' Capital Spacing lookup 0 subtable" dx=5 dy=0 dh=10 dv=0
EndChar

StartChar: o
Encoding: 111 111 81
Width: 550
Flags: HMW
HStem: -11 25<254 300.5 254 335> 426 22<254.5 296.5>
VStem: 53.5 83<204 241.5 204 276.5> 413.5 83<204 241>
LayerCount: 2
Fore
SplineSet
496.5 214 m 0
 496.5 87 395.5 -11 274.5 -11 c 0
 157.5 -11 53.5 85 53.5 214 c 0
 53.5 339 150.5 448 275.5 448 c 0
 396.5 448 496.5 342 496.5 214 c 0
413.5 222 m 0
 413.5 260 413.5 318 387.5 361 c 0
 361.5 404 318.5 426 274.5 426 c 0
 234.5 426 187.5 405 160.5 359 c 1
 136.5 315 136.5 261 136.5 222 c 0
 136.5 186 136.5 125 161.5 81 c 0
 188.5 35 232.5 14 275.5 14 c 0
 325.5 14 369.5 43 391.5 88 c 0
 413.5 132 413.5 186 413.5 222 c 0
EndSplineSet
EndChar

StartChar: one
Encoding: 49 49 82
Width: 550
Flags: HMW
HStem: 0 31<116 148> 571 31<110 120> 646 20G<292 303.5>
VStem: 241 74<79 597 597 597>
LayerCount: 2
Fore
SplineSet
440 0 m 1
 405 3 318 3 278 3 c 0
 238 3 151 3 116 0 c 1
 116 31 l 1
 148 31 l 2
 238 31 241 43 241 79 c 2
 241 597 l 1
 189 571 130 571 110 571 c 1
 110 602 l 1
 142 602 230 602 292 666 c 1
 315 666 315 664 315 640 c 2
 315 79 l 2
 315 42 318 31 408 31 c 2
 440 31 l 1
 440 0 l 1
EndSplineSet
Substitution2: "'pnum' Proportional Numbers lookup 6 subtable" one.prop
Substitution2: "'onum' Oldstyle Figures lookup 4 subtable" one.oldstyle
AlternateSubs2: "'aalt' Access All Alternates lookup 1 subtable" one.oldstyle one.prop
EndChar

StartChar: P
Encoding: 80 80 83
Width: 550
Flags: HMW
HStem: 0 31<60.0153 77.5353> 316 26<200.175 298.725 298.725 323.545 200.175 200.175> 652 31<60.0153 77.5353 60.0153 317.705 216.6 233.755 233.755 298.725>
VStem: 60.0153 75.19<0 605 31 605 78 683 78 683> 135.205 62.78<342 605 605 612 342 623> 200.175 75.19<0 78 0 316> 414.795 75.19<473.5 521.5>
LayerCount: 2
Fore
SplineSet
489.984 497 m 0xf6
 489.984 397 411.145 316 323.545 316 c 2
 200.176 316 l 1
 200.176 78 l 2
 200.176 42 201.635 31 257.846 31 c 2
 275.365 31 l 1
 275.365 0 l 1
 249.814 3 195.064 3 167.326 3 c 0
 139.586 3 85.5645 3 60.0156 0 c 1
 60.0156 31 l 1
 77.5352 31 l 2
 133.746 31 135.205 42 135.205 78 c 2
 135.205 605 l 2
 135.205 641 133.746 652 77.5352 652 c 2
 60.0156 652 l 1
 60.0156 683 l 1
 317.705 683 l 2
 417.715 683 489.984 595 489.984 497 c 0xf6
414.795 497 m 0
 414.795 546 414.795 652 298.725 652 c 2
 233.756 652 l 2
 199.445 652 197.984 645 197.984 612 c 2
 197.984 342 l 1x6a
 298.725 342 l 2
 414.795 342 414.795 450 414.795 497 c 0
EndSplineSet
Position2: "'cpsp' Capital Spacing lookup 0 subtable" dx=5 dy=0 dh=10 dv=0
EndChar

StartChar: p
Encoding: 112 112 84
Width: 550
Flags: HMW
HStem: -194 31<28.5 62> -11 22<274.5 331.5 274.5 358> 400 31<28.5 64> 417 25<279 341>
VStem: 106.5 69<-118 50 50 59 104 114 114 337> 438.5 83<155.5 272.5>
LayerCount: 2
Fore
SplineSet
521.5 216 m 0x10
 521.5 87 417.5 -11 298.5 -11 c 0
 222.5 -11 180.5 43 175.5 59 c 1
 175.5 50 l 1
 175.5 -118 l 2
 175.5 -163 186.5 -163 253.5 -163 c 1
 253.5 -194 l 1
 140.5 -191 l 1
 28.5 -194 l 1
 28.5 -163 l 1
 95.5 -163 106.5 -163 106.5 -118 c 2
 106.5 350 l 2
 106.5 394 99.5 400 28.5 400 c 1
 28.5 431 l 1xec
 172.5 442 l 1
 172.5 376 l 1
 192.5 398 234.5 442 312.5 442 c 0
 424.5 442 521.5 343 521.5 216 c 0x10
438.5 216 m 0
 438.5 329 377.5 417 304.5 417 c 0x14
 253.5 417 204.5 388 175.5 337 c 1
 175.5 114 l 2
 175.5 94 175.5 93 189.5 72 c 0
 216.5 31 254.5 11 294.5 11 c 0
 368.5 11 438.5 95 438.5 216 c 0
EndSplineSet
EndChar

StartChar: parenleft
Encoding: 40 40 85
Width: 550
Flags: HMW
HStem: -250 21G<376 384> 730 20G<376 384>
VStem: 159 58<211 292>
LayerCount: 2
Fore
SplineSet
391 -240 m 0
 391 -247 387 -250 381 -250 c 0
 371 -250 285 -185 225 -62 c 0
 170 51 159 172 159 250 c 0
 159 334 171 445 222 555 c 0
 281 682 371 750 381 750 c 0
 387 750 391 747 391 740 c 0
 391 737 391 735 378 723 c 0
 255 598 217 424 217 250 c 0
 217 97 249 -92 374 -218 c 0
 391 -235 391 -237 391 -240 c 0
EndSplineSet
EndChar

StartChar: parenright
Encoding: 41 41 86
Width: 550
Flags: HMW
HStem: -250 21G<166 174> 730 20G<166 174>
VStem: 333 58<208 289 208 354.5>
LayerCount: 2
Fore
SplineSet
391 250 m 0
 391 166 379 55 328 -55 c 0
 269 -182 179 -250 169 -250 c 0
 163 -250 159 -246 159 -240 c 0
 159 -237 159 -235 172 -223 c 0
 296 -97 333 79 333 250 c 0
 333 459 276 618 178 717 c 0
 159 735 159 737 159 740 c 0
 159 746 163 750 169 750 c 0
 179 750 265 685 325 562 c 0
 380 449 391 328 391 250 c 0
EndSplineSet
EndChar

StartChar: percent
Encoding: 37 37 87
Width: 550
Flags: HMW
HStem: -56 22<436.33 462.61 436.33 469.545> 325 22<435.965 462.975> 347 22<112.94 139.22 112.94 146.155> 619 22<296.17 335.225 283.03 337.05> 728 22<112.575 131.19 91.7698 139.585>
VStem: 12.1998 45.26<488.5 607.5> 101.99 18.25 196.16 18.25<495 555 492 601.5> 335.59 45.26<85.5 204.5> 519.55 18.25<92 198.5>
LayerCount: 2
Fore
SplineSet
477.209 730 m 0xbfc0
 477.209 724 475.75 721 471.369 712 c 2
 101.99 -41 l 2
 96.1504 -52 94.6895 -56 87.3906 -56 c 0
 80.0898 -56 72.7891 -47 72.7891 -36 c 1
 72.7891 -36 72.7891 -29 79.3594 -16 c 2
 407.129 653 l 1
 406.4 654 l 1
 402.02 650 364.789 619 309.311 619 c 0
 283.029 619 246.529 624 199.08 661 c 1
 214.41 609 214.41 562 214.41 548 c 0
 214.41 436 172.801 347 119.51 347 c 0
 64.7598 347 12.1992 428 12.1992 549 c 0
 12.1992 666 64.0293 750 119.51 750 c 0
 142.869 750 158.199 735 172.07 718 c 0
 212.221 666 257.48 641 308.58 641 c 0
 361.869 641 410.779 668 447.279 736 c 0
 451.66 743 455.311 750 462.609 750 c 0
 470.641 750 477.209 741 477.209 730 c 0xbfc0
537.801 145 m 0
 537.801 33 496.189 -56 442.9 -56 c 0
 388.15 -56 335.59 25 335.59 146 c 0
 335.59 263 387.42 347 442.9 347 c 0
 494.73 347 537.801 260 537.801 145 c 0
196.16 549 m 0
 196.16 654 158.93 728 120.24 728 c 0
 104.91 728 57.459 715 57.459 548 c 0
 57.459 382 105.641 369 120.24 369 c 0
 158.199 369 196.16 441 196.16 549 c 0
519.551 146 m 0
 519.551 251 482.32 325 443.629 325 c 0x4040
 428.301 325 380.85 312 380.85 145 c 0
 380.85 -21 429.029 -34 443.629 -34 c 0
 481.59 -34 519.551 38 519.551 146 c 0
EndSplineSet
EndChar

StartChar: period
Encoding: 46 46 88
Width: 550
Flags: HMW
HStem: 0 106<260.5 289.5>
VStem: 222 106<38.5 67.5>
LayerCount: 2
Fore
SplineSet
328 53 m 0
 328 24 304 0 275 0 c 0
 246 0 222 24 222 53 c 0
 222 82 246 106 275 106 c 0
 304 106 328 82 328 53 c 0
EndSplineSet
EndChar

StartChar: plus
Encoding: 43 43 89
Width: 550
Flags: HMW
HStem: -83 21G<265.5 285.5> 230 40<-31.5 255.5 -24.5 255.5 295.5 574.5> 563 20G<265.5 285.5>
VStem: 255.5 40<-50 230 270 550>
LayerCount: 2
Fore
SplineSet
607.5 250 m 0
 607.5 230 588.5 230 574.5 230 c 2
 295.5 230 l 1
 295.5 -50 l 2
 295.5 -64 295.5 -83 275.5 -83 c 0
 255.5 -83 255.5 -64 255.5 -50 c 2
 255.5 230 l 1
 -24.5 230 l 2
 -38.5 230 -57.5 230 -57.5 250 c 0
 -57.5 270 -38.5 270 -24.5 270 c 2
 255.5 270 l 1
 255.5 550 l 2
 255.5 564 255.5 583 275.5 583 c 0
 295.5 583 295.5 564 295.5 550 c 2
 295.5 270 l 1
 574.5 270 l 2
 588.5 270 607.5 270 607.5 250 c 0
EndSplineSet
EndChar

StartChar: Q
Encoding: 81 81 90
Width: 550
Flags: HMW
HStem: -194 103<420.27 453.12 420.27 468.815> -22 25<254.56 281.205 254.56 284.49> 42 22 126 22<259.67 293.615> 680 25<238.865 307.85>
VStem: 30.0851 73<238 442> 214.045 16.06<56.5 78.5 56.5 84.5> 442.535 73<300 441 263.5 466.5> 503.855 16.06
LayerCount: 2
Fore
SplineSet
519.915 -10 m 0x8080
 519.915 -61 506.045 -194 431.585 -194 c 0
 363.695 -194 353.475 -102 342.525 -7 c 1
 321.355 -16 295.805 -22 273.175 -22 c 0
 140.315 -22 30.085 137 30.085 339 c 0
 30.085 545 141.775 705 272.445 705 c 0
 405.305 705 515.535 543 515.535 339 c 0xcd
 515.535 188 453.485 60 367.345 7 c 1
 384.865 -57 403.115 -91 437.425 -91 c 0
 468.815 -91 499.475 -61 503.855 -7 c 0
 504.585 3 505.315 11 511.885 11 c 0
 519.915 11 519.915 0 519.915 -10 c 0x8080
442.535 339 m 0
 442.535 594 343.255 680 272.445 680 c 0
 205.285 680 103.085 599 103.085 339 c 0
 103.085 109 184.845 36 224.265 16 c 1
 223.535 18 214.045 37 214.045 64 c 0
 214.045 105 236.675 148 273.905 148 c 0
 316.975 148 340.335 98 356.396 42 c 1
 433.775 120 442.535 261 442.535 339 c 0
337.415 26 m 1
 329.385 84 313.325 126 273.905 126 c 0
 245.436 126 230.105 93 230.105 64 c 0
 230.105 49 235.945 3 273.175 3 c 0
 289.235 3 312.595 7 337.415 26 c 1
EndSplineSet
Position2: "'cpsp' Capital Spacing lookup 0 subtable" dx=5 dy=0 dh=10 dv=0
EndChar

StartChar: q
Encoding: 113 113 91
Width: 550
Flags: HMW
HStem: -194 31<296.5 330> -11 22<209 269 209 276.5> 417 25<218.5 289.5 191.5 295.5>
VStem: 28.5 83<157.5 274.5 157.5 280> 374.5 69<-118 61 61 61>
LayerCount: 2
Fore
SplineSet
521.5 -194 m 1
 408.5 -191 l 1
 296.5 -194 l 1
 296.5 -163 l 1
 363.5 -163 374.5 -163 374.5 -118 c 2
 374.5 61 l 1
 352.5 32 311.5 -11 241.5 -11 c 0
 125.5 -11 28.5 90 28.5 215 c 0
 28.5 345 133.5 442 249.5 442 c 0
 329.5 442 370.5 379 383.5 351 c 1
 421.5 442 l 1
 443.5 442 l 1
 443.5 -118 l 2
 443.5 -163 454.5 -163 521.5 -163 c 1
 521.5 -194 l 1
377.5 136 m 2
 377.5 277 l 2
 377.5 330 335.5 417 255.5 417 c 0
 181.5 417 111.5 334 111.5 215 c 0
 111.5 100 172.5 11 245.5 11 c 0
 292.5 11 324.5 38 337.5 52 c 0
 359.5 76 377.5 104 377.5 136 c 2
EndSplineSet
EndChar

StartChar: question
Encoding: 63 63 92
Width: 550
Flags: HMW
HStem: 0 106<247 276> 187 21G<255.5 268> 481 91 524 91<131.5 138.5 131.5 155.5> 683 22<241.5 317>
VStem: 95.5 92<557 592.5 557 604.5> 208.5 106<38.5 67.5> 265.5 106 314.5 92 371.5 83<549 595.5>
LayerCount: 2
Fore
SplineSet
454.5 570 m 0x2d
 454.5 528 433.5 492 406.5 472 c 0
 371.5 446 274.5 375 274.5 249 c 2
 274.5 214 l 2
 274.5 196 274.5 187 261.5 187 c 0
 249.5 187 249.5 193 249.5 211 c 2
 249.5 256 l 2
 249.5 317 271.5 409 337.5 481 c 1x6080
 355.5 499 371.5 517 371.5 576 c 0
 371.5 615 371.5 683 262.5 683 c 0
 220.5 683 162.5 668 131.5 615 c 1
 145.5 615 187.5 615 187.5 570 c 0
 187.5 544 169.5 524 141.5 524 c 0x1c40
 118.5 524 95.5 538 95.5 572 c 0
 95.5 637 157.5 705 265.5 705 c 0
 414.5 705 454.5 628 454.5 570 c 0x2d
314.5 53 m 0
 314.5 24 290.5 0 261.5 0 c 0
 232.5 0 208.5 24 208.5 53 c 0
 208.5 82 232.5 106 261.5 106 c 0
 290.5 106 314.5 82 314.5 53 c 0
EndSplineSet
EndChar

StartChar: quotedbl
Encoding: 34 34 93
Width: 550
Flags: HMW
HStem: 423 21G<214 240 214 214 310 310 310 336> 685 20G<217 237 313 333>
LayerCount: 2
Fore
SplineSet
262 670 m 2
 240 423 l 1
 214 423 l 1
 192 670 l 2
 190 690 207 705 227 705 c 0
 247 705 264 690 262 670 c 2
358 670 m 2
 336 423 l 1
 310 423 l 1
 288 670 l 2
 286 690 303 705 323 705 c 0
 343 705 360 690 358 670 c 2
EndSplineSet
EndChar

StartChar: quotesingle
Encoding: 39 39 94
Width: 550
Flags: HMW
HStem: 423 21G<262 288 262 262> 685 20G<265 285>
VStem: 262 26<423 423>
LayerCount: 2
Fore
SplineSet
310 670 m 2
 288 423 l 1
 262 423 l 1
 240 670 l 2
 238 690 255 705 275 705 c 0
 295 705 312 690 310 670 c 2
EndSplineSet
EndChar

StartChar: R
Encoding: 82 82 95
Width: 550
Flags: HMW
HStem: -22 22<449.105 472.1> 0 31<20.5949 38.1149> 331 22<158.565 239.595 239.595 242.515 158.565 239.595> 652 31<20.5949 38.1149 20.5949 249.815 210.395 249.815 249.815 250.545>
VStem: 20.5949 75.19<0 605 31 605 78 683 78 683> 95.7849 62.78<78 331 353 605 605 612> 158.565 75.19<0 78 0 331>
CounterMasks: 1 0e
LayerCount: 2
Fore
SplineSet
529.405 88 m 0x9e
 529.405 60 516.995 -22 460.055 -22 c 0xbe
 438.155 -22 398.005 -16 368.075 20 c 1
 338.145 58 338.145 98 338.145 163 c 0
 338.145 230 338.145 261 310.405 297 c 0
 284.854 331 254.195 331 242.515 331 c 2
 158.564 331 l 1
 158.564 78 l 2
 158.564 42 160.025 31 216.235 31 c 2
 233.755 31 l 1
 233.755 0 l 1
 207.475 3 155.645 3 127.175 3 c 0
 98.7051 3 46.875 3 20.5947 0 c 1
 20.5947 31 l 1
 38.1152 31 l 2x6e
 94.3252 31 95.7852 42 95.7852 78 c 2
 95.7852 605 l 2
 95.7852 641 94.3252 652 38.1152 652 c 2
 20.5947 652 l 1
 20.5947 683 l 1
 249.814 683 l 2
 357.125 683 440.345 599 440.345 503 c 0
 440.345 425 383.405 364 312.595 340 c 1
 352.745 321 388.515 288 401.655 224 c 1
 411.145 144 l 1
 421.365 51 427.205 0 462.975 0 c 0
 481.225 0 506.775 18 511.155 89 c 0
 511.885 96 511.885 105 519.915 105 c 0
 529.405 105 529.405 94 529.405 88 c 0x9e
365.155 503 m 0
 365.155 648 283.395 652 217.695 652 c 0
 203.095 652 181.925 652 174.625 650 c 0
 158.564 647 158.564 635 158.564 612 c 2
 158.564 353 l 1
 239.595 353 l 2
 347.635 353 365.155 434 365.155 503 c 0
EndSplineSet
Position2: "'cpsp' Capital Spacing lookup 0 subtable" dx=5 dy=0 dh=10 dv=0
EndChar

StartChar: r
Encoding: 114 114 96
Width: 550
Flags: HMW
HStem: 0 31<107 140.5> 400 31<107 142> 420 22<332.5 372.5>
VStem: 185 66<76 78 78 232> 357 86<366 393>
LayerCount: 2
Fore
SplineSet
443 381 m 0x20
 443 349 418 337 400 337 c 0
 378 337 357 352 357 380 c 0
 357 406 377 418 380 419 c 1
 378 420 376 420 369 420 c 0x28
 293 420 251 331 251 232 c 2
 251 78 l 2
 251 42 253 31 327 31 c 2
 348 31 l 1
 348 0 l 1
 308 3 261 3 221 3 c 1
 107 0 l 1
 107 31 l 1
 174 31 185 31 185 76 c 2
 185 344 l 2
 185 393 177 400 107 400 c 1
 107 431 l 1xd0
 246 442 l 1
 246 332 l 1
 260 375 296 442 369 442 c 0
 412 442 443 413 443 381 c 0x20
EndSplineSet
EndChar

StartChar: S
Encoding: 83 83 97
Width: 550
Flags: HMW
HStem: -22 31<281.57 322.815 281.57 335.59> 186 31 388 31 480 31 677 28<227.915 288.14 215.14 317.34>
VStem: 113.305 46.72<517 564> 208.935 46.72 389.975 46.72<131 168.5>
LayerCount: 2
Fore
SplineSet
436.695 186 m 0
 436.695 76 378.295 -22 292.885 -22 c 0
 227.916 -22 181.195 14 158.564 48 c 1
 134.475 -5 132.285 -9 132.285 -9 c 2
 127.176 -20 126.445 -22 121.336 -22 c 0
 113.305 -22 113.305 -15 113.305 2 c 2
 113.305 202 l 2
 113.305 220 113.305 227 122.795 227 c 0
 124.984 227 130.826 227 131.555 217 c 0
 132.285 181 134.475 117 176.814 63 c 0
 215.506 14 270.984 9 292.156 9 c 0
 353.475 9 389.975 81 389.975 152 c 0
 389.975 185 382.676 218 367.346 244 c 1
 346.906 281 325.006 288 305.295 295 c 0
 254.195 312 216.965 324 208.936 328 c 0
 151.996 355 113.305 428 113.305 511 c 0
 113.305 617 174.625 705 255.656 705 c 0
 320.625 705 350.555 664 372.455 635 c 1
 398.006 692 l 2
 403.115 704 403.846 705 408.955 705 c 0
 416.984 705 416.984 698 416.984 681 c 2
 416.984 480 l 2
 416.984 461 416.984 456 407.496 456 c 0
 399.465 456 399.465 462 398.734 468 c 0
 394.355 513 378.295 677 256.385 677 c 0
 199.445 677 160.025 616 160.025 546 c 0
 160.025 488 188.496 434 233.756 419 c 2
 327.195 388 l 2
 388.516 368 436.695 286 436.695 186 c 0
EndSplineSet
Position2: "'cpsp' Capital Spacing lookup 0 subtable" dx=5 dy=0 dh=10 dv=0
EndChar

StartChar: s
Encoding: 115 115 98
Width: 550
Flags: HMW
HStem: -11 22<267 316.5 235.5 335> 13 19 429 19<228.5 279 210.5 326.5>
VStem: 111.5 48<324 353> 365.5 48 390.5 48<92 138>
LayerCount: 2
Fore
SplineSet
438.5 128 m 0x38
 438.5 56 392.5 -11 277.5 -11 c 0
 256.5 -11 211.5 -10 167.5 32 c 1
 149.5 13 149.5 11 147.5 9 c 0
 128.5 -10 127.5 -11 122.5 -11 c 0
 111.5 -11 111.5 -4 111.5 13 c 2
 111.5 145 l 2
 111.5 163 111.5 170 124.5 170 c 0
 134.5 170 135.5 166 138.5 153 c 0
 157.5 68 193.5 11 277.5 11 c 0
 355.5 11 390.5 51 390.5 102 c 0xd4
 390.5 174 308.5 190 286.5 194 c 0
 214.5 208 186.5 214 154.5 240 c 0
 127.5 262 111.5 290 111.5 325 c 0
 111.5 381 149.5 448 271.5 448 c 0
 286.5 448 327.5 448 365.5 420 c 1
 369.5 423 379.5 432 382.5 436 c 0
 395.5 448 397.5 448 402.5 448 c 0
 413.5 448 413.5 441 413.5 424 c 2
 413.5 323 l 2
 413.5 304 413.5 299 400.5 299 c 1
 400.5 299 389.5 299 388.5 308 c 0
 386.5 339 381.5 429 271.5 429 c 0
 185.5 429 159.5 388 159.5 353 c 0
 159.5 295 226.5 282 282.5 271 c 0
 324.5 263 363.5 255 396.5 223 c 0
 408.5 211 438.5 181 438.5 128 c 0x38
EndSplineSet
EndChar

StartChar: semicolon
Encoding: 59 59 99
Width: 550
Flags: HMW
HStem: -193 21G<244 252> 0 106<256 276> 325 106<259 288>
VStem: 220.5 106<363.5 392.5>
LayerCount: 2
Fore
SplineSet
326.5 378 m 0
 326.5 349 302.5 325 273.5 325 c 0
 244.5 325 220.5 349 220.5 378 c 0
 220.5 407 244.5 431 273.5 431 c 0
 302.5 431 326.5 407 326.5 378 c 0
329.5 3 m 0
 329.5 -113 257.5 -193 246.5 -193 c 0
 241.5 -193 236.5 -189 236.5 -182 c 0
 236.5 -179 236.5 -177 243.5 -169 c 0
 307.5 -95 307.5 -17 307.5 11 c 1
 299.5 4 288.5 2 281.5 1 c 2
 281.5 1 278.5 0 273.5 0 c 0
 237.5 0 220.5 27 220.5 53 c 0
 220.5 79 238.5 106 273.5 106 c 0
 327.5 106 329.5 32 329.5 3 c 0
EndSplineSet
EndChar

StartChar: seven
Encoding: 55 55 100
Width: 550
Flags: HMW
HStem: -22 21G<203.5 249.5> 567 77<202 489.5 246.5 415.5> 656 20G<93.5 118.5 118.5 118.5>
VStem: 180.5 92<28 33 33 84>
LayerCount: 2
Fore
SplineSet
489.5 644 m 1
 489.5 623 489.5 621 480.5 609 c 2
 345.5 419 l 2
 301.5 357 287.5 271 283.5 248 c 0
 275.5 194 272.5 139 272.5 84 c 2
 272.5 33 l 2
 272.5 23 272.5 -22 226.5 -22 c 0
 180.5 -22 180.5 23 180.5 33 c 0
 180.5 135 213.5 274 303.5 409 c 1
 415.5 567 l 1
 208.5 567 l 2
 195.5 567 117.5 567 110.5 561 c 0
 97.5 549 88.5 486 85.5 470 c 1
 60.5 470 l 1
 93.5 676 l 1
 118.5 676 l 1
 122.5 657 124.5 644 246.5 644 c 2
 489.5 644 l 1
EndSplineSet
Substitution2: "'pnum' Proportional Numbers lookup 6 subtable" seven.prop
Substitution2: "'onum' Oldstyle Figures lookup 4 subtable" seven.oldstyle
AlternateSubs2: "'aalt' Access All Alternates lookup 1 subtable" seven.oldstyle seven.prop
EndChar

StartChar: six
Encoding: 54 54 101
Width: 550
Flags: HMW
HStem: -22 28<245 288 245 332> 404 23<248.5 289.5> 510 91<413 419.5> 641 25<307 344.5>
VStem: 67.5 90<328 352 328 426.5> 330.5 90 392.5 90<181 229.5>
LayerCount: 2
Fore
SplineSet
482.5 204 m 0xfc
 482.5 72 387.5 -22 276.5 -22 c 0
 183.5 -22 67.5 49 67.5 316 c 0
 67.5 537 202.5 666 330.5 666 c 0
 413.5 666 457.5 618 457.5 558 c 0
 457.5 519 427.5 510 411.5 510 c 0
 389.5 510 365.5 525 365.5 556 c 0
 365.5 601 405.5 601 420.5 601 c 1
 398.5 635 356.5 641 332.5 641 c 0
 281.5 641 157.5 605 157.5 352 c 2
 157.5 328 l 1
 177.5 376 214.5 427 282.5 427 c 0
 393.5 427 482.5 331 482.5 204 c 0xfc
392.5 205 m 0
 392.5 254 392.5 305 374.5 342 c 0
 343.5 404 297.5 404 281.5 404 c 0
 191.5 404 159.5 304 159.5 226 c 0
 159.5 208 159.5 128 177.5 81 c 0
 183.5 66 213.5 6 276.5 6 c 0
 299.5 6 345.5 11 375.5 71 c 0
 392.5 107 392.5 157 392.5 205 c 0
EndSplineSet
Substitution2: "'pnum' Proportional Numbers lookup 6 subtable" six.prop
Substitution2: "'onum' Oldstyle Figures lookup 4 subtable" six.oldstyle
AlternateSubs2: "'aalt' Access All Alternates lookup 1 subtable" six.oldstyle six.prop
EndChar

StartChar: slash
Encoding: 47 47 102
Width: 550
Flags: HMW
HStem: -250 21G<96 108.5> 730 20G<427.5 454 441.5 468.5>
VStem: 81.5 387
LayerCount: 2
Fore
SplineSet
468.5 730 m 1
 468.5 730 468.5 725 463.5 712 c 2
 122.5 -230 l 2
 119.5 -240 115.5 -250 101.5 -250 c 0
 90.5 -250 81.5 -241 81.5 -230 c 1
 81.5 -230 81.5 -225 86.5 -212 c 2
 427.5 730 l 2
 430.5 740 434.5 750 448.5 750 c 0
 459.5 750 468.5 741 468.5 730 c 1
EndSplineSet
EndChar

StartChar: T
Encoding: 84 84 104
Width: 550
Flags: HMW
HStem: 0 31<136.665 165.865> 452 21G<38.115 56.365 38.115 38.115 493.635 511.885 493.635 493.635> 646 31<132.65 194.335 355.3 417.35>
VStem: 38.115 18.25<452 452> 242.515 64.97<79 606> 493.635 18.25<452 452>
CounterMasks: 1 1c
LayerCount: 2
Fore
SplineSet
511.885 452 m 1
 493.635 452 l 1
 483.415 613 472.465 646 362.235 646 c 0
 348.365 646 328.655 646 320.625 644 c 0
 307.485 640 307.485 626 307.485 606 c 2
 307.485 79 l 2
 307.485 45 307.485 31 384.135 31 c 2
 413.335 31 l 1
 413.335 0 l 1
 383.405 3 308.215 3 274.635 3 c 0
 241.055 3 166.595 3 136.665 0 c 1
 136.665 31 l 1
 165.865 31 l 2
 242.515 31 242.515 45 242.515 79 c 2
 242.515 606 l 2
 242.515 629 242.515 640 227.185 644 c 0
 219.885 646 200.905 646 187.765 646 c 0
 77.5352 646 66.585 613 56.3652 452 c 1
 38.1152 452 l 1
 51.9854 677 l 1
 498.015 677 l 1
 511.885 452 l 1
EndSplineSet
Position2: "'cpsp' Capital Spacing lookup 0 subtable" dx=5 dy=0 dh=10 dv=0
EndChar

StartChar: t
Encoding: 116 116 105
Width: 550
Flags: HMW
HStem: -11 25<314.5 358 306 368> 161 20G<406.5 431.5 431.5 431.5> 400 31<272.5 415.5 272.5 415.5> 595 20G<247.5 272.5 272.5 272.5>
VStem: 203.5 69<124 400> 247.5 25<615 615> 406.5 25<126 181>
LayerCount: 2
Fore
SplineSet
431.5 124 m 2xfa
 431.5 60 403.5 -11 332.5 -11 c 0
 296.5 -11 203.5 1 203.5 124 c 2
 203.5 400 l 1xaa
 118.5 400 l 1
 118.5 422 l 1
 216.5 426 246.5 533 247.5 615 c 1x34
 272.5 615 l 1
 272.5 431 l 1
 415.5 431 l 1
 415.5 400 l 1
 272.5 400 l 1
 272.5 122 l 2
 272.5 105 272.5 14 339.5 14 c 0
 376.5 14 406.5 52 406.5 126 c 2
 406.5 181 l 1
 431.5 181 l 1
 431.5 124 l 2xfa
EndSplineSet
EndChar

StartChar: three
Encoding: 51 51 106
Width: 550
Flags: HMW
HStem: -22 28<245 288.5 245 330.5> 77 116 337 23<208 211 207.5 216.5 207.5 260.5> 478 101<134.5 142 134.5 161> 641 25<249.5 288>
VStem: 179.5 92 271.5 92 363.5 92<523 569 488.5 574>
CounterMasks: 1 07
LayerCount: 2
Fore
SplineSet
482.5 171 m 0
 482.5 69 391.5 -22 269.5 -22 c 0
 160.5 -22 67.5 44 67.5 135 c 0
 67.5 179 99.5 193 123.5 193 c 0
 152.5 193 179.5 173 179.5 137 c 0
 179.5 99 148.5 77 113.5 82 c 1
 148.5 23 223.5 6 266.5 6 c 0
 310.5 6 379.5 35 379.5 171 c 0
 379.5 269 342.5 337 260.5 337 c 2
 216.5 337 l 2
 199.5 337 192.5 337 192.5 348 c 0
 192.5 358 199.5 359 207.5 360 c 0
 214.5 360 238.5 362 246.5 363 c 0
 271.5 364 305.5 367 335.5 415 c 1
 361.5 459 363.5 517 363.5 529 c 0
 363.5 619 308.5 641 267.5 641 c 0
 231.5 641 165.5 628 134.5 579 c 1
 149.5 579 196.5 579 196.5 529 c 0
 196.5 500 176.5 478 145.5 478 c 0
 116.5 478 94.5 497 94.5 530 c 0
 94.5 606 170.5 666 271.5 666 c 0
 367.5 666 455.5 610 455.5 528 c 0
 455.5 449 397.5 379 315.5 352 c 1
 419.5 331 482.5 253 482.5 171 c 0
EndSplineSet
Substitution2: "'pnum' Proportional Numbers lookup 6 subtable" three.prop
Substitution2: "'onum' Oldstyle Figures lookup 4 subtable" three.oldstyle
AlternateSubs2: "'aalt' Access All Alternates lookup 1 subtable" three.oldstyle three.prop
EndChar

StartChar: two
Encoding: 50 50 107
Width: 550
Flags: HMW
HStem: 0 77<152.5 332.5 332.5 343.5 152.5 446.5> 174 77 429 105<127 137> 635 31<220.5 295>
VStem: 75.5 105<461.5 495 461.5 529.5> 278.5 105 383.5 91<432 513>
LayerCount: 2
Fore
SplineSet
474.5 174 m 1xfa
 446.5 0 l 1
 75.5 0 l 1
 75.5 24 75.5 26 86.5 37 c 2
 278.5 251 l 2xcc
 333.5 313 383.5 392 383.5 472 c 0
 383.5 554 340.5 635 249.5 635 c 0
 191.5 635 137.5 598 114.5 533 c 1
 117.5 534 119.5 534 127.5 534 c 0
 162.5 534 180.5 508 180.5 482 c 0
 180.5 441 145.5 429 128.5 429 c 0
 125.5 429 75.5 429 75.5 485 c 0
 75.5 574 149.5 666 262.5 666 c 0
 384.5 666 474.5 586 474.5 472 c 0
 474.5 372 414.5 318 258.5 180 c 1
 152.5 77 l 1
 332.5 77 l 2
 354.5 77 420.5 77 427.5 85 c 1
 437.5 100 444.5 144 449.5 174 c 1
 474.5 174 l 1xfa
EndSplineSet
Substitution2: "'pnum' Proportional Numbers lookup 6 subtable" two.prop
Substitution2: "'onum' Oldstyle Figures lookup 4 subtable" two.oldstyle
AlternateSubs2: "'aalt' Access All Alternates lookup 1 subtable" two.oldstyle two.prop
EndChar

StartChar: U
Encoding: 85 85 108
Width: 550
Flags: HMW
HStem: -22 31<269.16 320.99 269.16 326.83> 574 31 652 31<25.7052 43.2252 25.7052 25.7052>
VStem: 100.895 64.97<228 605> 286.315 64.97 426.475 22.63<234 254 254 574>
LayerCount: 2
Fore
SplineSet
524.295 652 m 1
 449.105 652 449.105 607 449.105 574 c 2
 449.105 254 l 2
 449.105 214 449.105 205 446.915 185 c 0
 434.505 71 368.806 -22 284.855 -22 c 0
 185.575 -22 100.896 87 100.896 228 c 2
 100.896 605 l 2
 100.896 641 99.4355 652 43.2256 652 c 2
 25.7051 652 l 1
 25.7051 683 l 1
 51.2549 680 106.005 680 133.745 680 c 0
 161.485 680 215.505 680 241.056 683 c 1
 241.056 652 l 1
 223.535 652 l 2
 167.325 652 165.865 641 165.865 605 c 2
 165.865 224 l 2
 165.865 34 252.005 9 286.315 9 c 0
 355.665 9 426.476 89 426.476 231 c 2
 426.476 578 l 2
 426.476 605 426.476 652 351.285 652 c 1
 351.285 683 l 1
 438.155 680 l 1
 524.295 683 l 1
 524.295 652 l 1
EndSplineSet
Position2: "'cpsp' Capital Spacing lookup 0 subtable" dx=5 dy=0 dh=10 dv=0
EndChar

StartChar: u
Encoding: 117 117 109
Width: 550
Flags: HMW
HStem: -11 22<216.5 281.5> 0 31<491.5 526.5> 79 31 400 31<23.5 62.5> 400 42
VStem: 101.5 69<158 308 308 352.5> 379.5 69<166 344 344 368.5>
LayerCount: 2
Fore
SplineSet
526.5 0 m 1x4a
 382.5 -11 l 1
 382.5 79 l 1
 353.5 17 309.5 -11 253.5 -11 c 0
 101.5 -11 101.5 80 101.5 158 c 2
 101.5 308 l 2
 101.5 397 101.5 400 23.5 400 c 1
 23.5 431 l 1xb4
 170.5 442 l 1x0c
 170.5 110 l 2
 170.5 58 174.5 11 258.5 11 c 0
 331.5 11 379.5 79 379.5 166 c 2
 379.5 344 l 2
 379.5 393 371.5 400 301.5 400 c 1
 301.5 431 l 1xb6
 448.5 442 l 1
 448.5 87 l 2
 448.5 38 456.5 31 526.5 31 c 1
 526.5 0 l 1x4a
EndSplineSet
EndChar

StartChar: underscore
Encoding: 95 95 110
Width: 550
Flags: HMW
HStem: -138 26<-100 650 -100 650>
LayerCount: 2
Fore
SplineSet
650 -138 m 1
 -100 -138 l 1
 -100 -112 l 1
 650 -112 l 1
 650 -138 l 1
EndSplineSet
EndChar

StartChar: V
Encoding: 86 86 111
Width: 550
Flags: HMW
HStem: -22 21G<269.89 280.84> 652 31<15.4847 39.2097>
VStem: 15.4847 519.03<652 683 652 683>
LayerCount: 2
Fore
SplineSet
534.516 652 m 1
 484.875 651 465.164 622 454.945 585 c 2
 292.154 -3 l 2
 288.504 -17 287.045 -22 274.635 -22 c 0
 265.145 -22 261.494 -19 256.385 0 c 2
 87.0254 614 l 2
 76.8047 652 62.9355 652 15.4844 652 c 1
 15.4844 683 l 1
 108.195 680 l 2
 135.936 680 186.305 680 212.584 683 c 1
 212.584 652 l 1
 194.334 652 152.725 652 152.725 623 c 1
 152.725 623 152.725 619 157.105 605 c 2
 296.535 100 l 1
 430.125 582 l 2
 431.584 588 433.775 594 433.775 602 c 0
 433.775 625 418.445 651 380.484 652 c 1
 380.484 683 l 1
 463.705 680 l 2
 482.686 680 511.885 681 534.516 683 c 1
 534.516 652 l 1
EndSplineSet
Position2: "'cpsp' Capital Spacing lookup 0 subtable" dx=5 dy=0 dh=10 dv=0
EndChar

StartChar: v
Encoding: 118 118 112
Width: 550
Flags: HMW
HStem: -11 21G<269 282> 400 31<30.5 62>
VStem: 30.5 489<400 431 400 431>
LayerCount: 2
Fore
SplineSet
519.5 400 m 1
 453.5 399 436.5 356 427.5 333 c 2
 296.5 8 l 2
 292.5 -2 288.5 -11 275.5 -11 c 0
 262.5 -11 260.5 -6 254.5 8 c 2
 110.5 363 l 2
 97.5 394 93.5 400 30.5 400 c 1
 30.5 431 l 1
 60.5 429 100.5 428 127.5 428 c 2
 236.5 431 l 1
 236.5 400 l 1
 218.5 400 179.5 400 179.5 374 c 1
 179.5 374 179.5 370 185.5 357 c 2
 297.5 78 l 1
 399.5 333 l 2
 403.5 344 405.5 348 405.5 357 c 0
 405.5 376 394.5 399 357.5 400 c 1
 357.5 431 l 1
 444.5 428 l 2
 467.5 428 496.5 429 519.5 431 c 1
 519.5 400 l 1
EndSplineSet
EndChar

StartChar: W
Encoding: 87 87 113
Width: 550
Flags: HMW
HStem: -22 21G<173.24 180.395 369.34 376.495> 579 31 585 31 652 31<12.3852 32.2602>
VStem: 12.3852 525.23<652 683 652 683>
LayerCount: 2
Fore
SplineSet
537.615 652 m 1x58
 516.945 652 494.154 642 484.615 585 c 2x38
 383.385 -2 l 2
 381.266 -15 380.205 -22 372.785 -22 c 0
 365.895 -22 364.305 -12 362.715 -3 c 2
 274.734 506 l 1
 187.285 -2 l 2
 185.166 -15 184.105 -22 176.686 -22 c 0
 169.795 -22 168.205 -12 166.615 -3 c 2
 60.6152 610 l 2xc0
 54.2559 647 52.1348 652 12.3848 652 c 1
 12.3848 683 l 1
 77.0449 680 l 2
 97.1855 680 133.225 680 152.305 683 c 1
 152.305 652 l 1
 138.525 652 107.785 652 107.785 622 c 0
 107.785 619 108.314 612 108.846 609 c 2
 194.176 117 l 1
 267.846 546 l 1
 256.186 616 l 2x38
 249.826 652 238.695 652 208.484 652 c 1
 208.484 683 l 1
 273.145 680 l 2
 293.285 680 329.326 680 348.404 683 c 1
 348.404 652 l 1
 334.625 652 303.885 652 303.885 622 c 0
 303.885 617 304.945 611 305.475 607 c 2
 390.275 117 l 1
 469.775 579 l 2
 470.836 585 472.426 593 472.426 599 c 0
 472.426 618 461.826 651 426.314 652 c 1
 426.314 683 l 1
 489.385 680 l 2
 505.285 680 521.715 681 537.615 683 c 1
 537.615 652 l 1x58
EndSplineSet
Position2: "'cpsp' Capital Spacing lookup 0 subtable" dx=4 dy=0 dh=7 dv=0
EndChar

StartChar: w
Encoding: 119 119 114
Width: 550
Flags: HMWO
HStem: -11 21G<177.72 187.6 362.4 372.28> 354 31 400 31<14.7001 33.7001>
VStem: 14.7001 520.6<400 431 400 431>
LayerCount: 2
Fore
SplineSet
535.301 400 m 1
 508.699 399 485.141 386 471.461 336 c 2
 382.541 8 l 2
 379.5 -2 377.221 -11 367.34 -11 c 0
 357.461 -11 355.18 -3 352.141 8 c 2
 274.621 292 l 1
 197.859 9 l 2
 194.061 -5 192.541 -11 182.66 -11 c 0
 172.779 -11 170.5 -3 166.699 11 c 2
 70.9395 365 l 2
 61.8203 397 52.6992 400 14.6992 400 c 1
 14.6992 431 l 1
 85.3809 428 l 1
 168.221 431 l 1
 168.221 400 l 1
 153.02 400 123.381 400 123.381 373 c 0
 123.381 369 123.381 367 127.18 355 c 2
 199.381 88 l 1
 264.74 330 l 1
 259.42 349 251.061 379 247.26 385 c 0
 239.66 398 227.5 400 199.381 400 c 1
 199.381 431 l 1
 222.18 429 244.221 428 267.02 428 c 2
 346.061 431 l 1
 346.061 400 l 1
 330.859 400 301.221 400 301.221 373 c 0
 301.221 368 301.98 366 305.02 354 c 2
 380.26 75 l 1
 449.42 331 l 2
 453.221 344 453.221 346 453.221 352 c 0
 453.221 381 436.5 399 409.141 400 c 1
 409.141 431 l 1
 479.82 428 l 2
 496.541 428 518.58 429 535.301 431 c 1
 535.301 400 l 1
EndSplineSet
EndChar

StartChar: X
Encoding: 88 88 115
Width: 550
Flags: HMW
HStem: 0 31<18.77 55.635> 652 31<28.26 42.13 28.26 28.26>
VStem: 18.77 512.46<0 31 0 31>
LayerCount: 2
Fore
SplineSet
531.23 0 m 1
 436.33 3 l 2
 408.59 3 355.3 3 329.75 0 c 1
 329.75 31 l 1
 361.14 32 377.2 49 377.2 61 c 0
 377.2 64 375.01 68 373.55 72 c 2
 258.21 311 l 1
 154.55 101 l 2
 149.44 90 147.25 86 147.25 77 c 0
 147.25 59 159.66 32 193.24 31 c 1
 193.24 0 l 1
 166.96 3 126.81 3 99.7998 3 c 2
 18.7695 0 l 1
 18.7695 31 l 1
 92.5 31 114.4 77 124.62 97 c 2
 244.34 339 l 1
 110.02 617 l 2
 96.1504 645 82.2803 652 42.1299 652 c 2
 28.2598 652 l 1
 28.2598 683 l 1
 123.16 680 l 2
 150.9 680 204.19 680 229.74 683 c 1
 229.74 652 l 1
 198.35 651 182.29 634 182.29 622 c 0
 182.29 618 185.94 610 187.4 607 c 2
 281.57 414 l 1
 364.79 583 l 2
 369.9 594 371.36 596 371.36 606 c 0
 371.36 629 355.3 651 326.1 652 c 1
 326.1 683 l 1
 355.3 680 390.34 680 419.54 680 c 1
 500.57 683 l 1
 500.57 652 l 1
 435.6 651 410.78 619 394.72 587 c 2
 294.71 386 l 1
 448.74 67 l 2
 464.07 36 479.4 31 517.36 31 c 2
 531.23 31 l 1
 531.23 0 l 1
EndSplineSet
Position2: "'cpsp' Capital Spacing lookup 0 subtable" dx=5 dy=0 dh=10 dv=0
EndChar

StartChar: x
Encoding: 120 120 116
Width: 550
Flags: HMW
HStem: 0 31<23 33.5> 31 31 369 31 400 31<28 63>
VStem: 23 504<0 31 0 31>
LayerCount: 2
Fore
SplineSet
527 0 m 1x88
 497 2 458 3 431 3 c 2
 323 0 l 1x88
 323 31 l 1
 350 32 359 47 359 56 c 0
 359 62 346 78 338 89 c 2
 262 189 l 1
 201 117 172 84 172 62 c 0x40
 172 47 179 34 201 31 c 1
 201 0 l 1
 106 3 l 2
 80 3 49 2 23 0 c 1
 23 31 l 1
 44 31 103 33 151 91 c 0
 198 148 198 150 245 210 c 1
 146 339 l 2
 99 399 98 400 28 400 c 1
 28 431 l 1
 55 429 102 428 123 428 c 2
 231 431 l 1x98
 231 400 l 1
 211 399 196 390 196 375 c 0
 196 369 196 367 205 357 c 1
 283 256 l 1
 345 334 l 2
 350 340 360 353 360 369 c 0x20
 360 385 352 398 331 400 c 1
 331 431 l 1
 344 430 397 428 427 428 c 0
 453 428 483 429 509 431 c 1
 509 400 l 1
 462 399 421 384 390 348 c 1
 366 322 328 273 298 235 c 1
 432 62 l 2x50
 455 33 473 31 527 31 c 1
 527 0 l 1x88
EndSplineSet
EndChar

StartChar: Y
Encoding: 89 89 117
Width: 550
Flags: HMW
HStem: 0 31<168.055 185.575> 652 31<9.64475 22.7847 9.64475 9.64475>
VStem: 243.245 62.78<78 80 80 273>
LayerCount: 2
Fore
SplineSet
540.355 652 m 1
 516.994 652 473.924 648 446.914 587 c 2
 306.025 273 l 1
 306.025 80 l 2
 306.025 41 308.215 31 364.424 31 c 2
 381.215 31 l 1
 381.215 0 l 1
 354.936 3 303.105 3 274.635 3 c 0
 246.164 3 194.334 3 168.055 0 c 1
 168.055 31 l 1
 185.574 31 l 2
 241.785 31 243.244 42 243.244 78 c 2
 243.244 273 l 1
 89.9453 615 l 2
 78.2656 641 72.4238 652 22.7852 652 c 2
 9.64453 652 l 1
 9.64453 683 l 1
 104.545 680 l 2
 133.016 680 186.305 680 212.584 683 c 1
 212.584 652 l 1
 179.734 652 161.484 648 161.484 627 c 0
 161.484 622 161.484 620 166.596 610 c 2
 298.725 315 l 1
 419.174 583 l 2
 422.096 589 426.475 602 426.475 613 c 0
 426.475 633 414.795 652 384.865 652 c 1
 384.865 683 l 1
 468.814 680 l 2
 488.525 680 517.725 681 540.355 683 c 1
 540.355 652 l 1
EndSplineSet
Position2: "'cpsp' Capital Spacing lookup 0 subtable" dx=5 dy=0 dh=10 dv=0
EndChar

StartChar: y
Encoding: 121 121 118
Width: 550
Flags: HMW
HStem: -205 22<120 154> -165 84 -81 22 400 31<30.5 54.5>
VStem: 30.5 84<-131 -110 -131 -109>
LayerCount: 2
Fore
SplineSet
519.5 400 m 1xb8
 503.5 400 452.5 399 426.5 336 c 2
 250.5 -91 l 2
 226.5 -148 185.5 -205 122.5 -205 c 0
 72.5 -205 30.5 -169 30.5 -124 c 0
 30.5 -94 52.5 -81 72.5 -81 c 0
 95.5 -81 114.5 -97 114.5 -123 c 0
 114.5 -139 106.5 -161 75.5 -165 c 1xd8
 94.5 -183 117.5 -183 122.5 -183 c 0
 186.5 -183 214.5 -114 236.5 -59 c 1
 261.5 0 l 1
 111.5 365 l 2
 97.5 400 78.5 400 30.5 400 c 1
 30.5 431 l 1
 60.5 429 100.5 428 127.5 428 c 2
 236.5 431 l 1
 236.5 400 l 1
 217.5 400 180.5 400 180.5 374 c 0
 180.5 370 182.5 366 186.5 356 c 2
 297.5 87 l 1
 398.5 333 l 2
 403.5 345 404.5 347 404.5 357 c 0
 404.5 382 388.5 399 357.5 400 c 1
 357.5 431 l 1
 444.5 428 l 2
 467.5 428 496.5 429 519.5 431 c 1
 519.5 400 l 1xb8
EndSplineSet
EndChar

StartChar: Z
Encoding: 90 90 119
Width: 550
Flags: HMW
HStem: 0 34<166.23 285.95 285.95 353.475> 652 31<205.65 265.51 265.51 380.12>
VStem: 91.0402 367.92<8.5 267>
LayerCount: 2
Fore
SplineSet
458.96 267 m 1
 446.55 0 l 1
 110.021 0 l 2
 94.6904 0 91.04 0 91.04 17 c 0
 91.04 25 91.04 26 96.1504 37 c 2
 380.12 652 l 1
 265.51 652 l 2
 145.79 652 123.891 571 118.78 458 c 1
 100.53 458 l 1
 108.561 683 l 1
 435.601 683 l 2
 450.2 683 454.58 683 454.58 667 c 0
 454.58 660 454.58 659 449.47 648 c 2
 166.23 34 l 1
 285.95 34 l 2
 421 34 434.87 128 440.71 267 c 1
 458.96 267 l 1
EndSplineSet
Position2: "'cpsp' Capital Spacing lookup 0 subtable" dx=5 dy=0 dh=10 dv=0
EndChar

StartChar: z
Encoding: 122 122 120
Width: 550
Flags: HMW
HStem: 0 25<172.5 290.5 290.5 348.5> 409 22<207.5 262.5 262.5 376.5>
VStem: 88.5 373<7 187>
LayerCount: 2
Fore
SplineSet
461.5 187 m 1
 444.5 0 l 1
 114.5 0 l 2
 95.5 0 88.5 0 88.5 14 c 0
 88.5 19 88.5 21 97.5 32 c 2
 376.5 409 l 1
 262.5 409 l 2
 152.5 409 133.5 372 127.5 270 c 1
 102.5 270 l 1
 113.5 431 l 1
 433.5 431 l 2
 451.5 431 459.5 431 459.5 418 c 0
 459.5 414 459.5 412 450.5 401 c 2
 172.5 25 l 1
 290.5 25 l 2
 406.5 25 427.5 69 436.5 187 c 1
 461.5 187 l 1
EndSplineSet
EndChar

StartChar: zero
Encoding: 48 48 121
Width: 550
Flags: HMW
HStem: -22 22<255 297 255 301.5> 644 22<262 291>
VStem: 64.5 83<302.5 360> 402.5 83<294.5 360 280.5 363.5>
LayerCount: 2
Fore
SplineSet
485.5 320 m 0
 485.5 241 480.5 163 448.5 94 c 0
 404.5 -1 328.5 -22 274.5 -22 c 0
 225.5 -22 152.5 -2 109.5 79 c 0
 68.5 155 64.5 245 64.5 320 c 0
 64.5 400 69.5 478 101.5 547 c 1
 142.5 640 215.5 666 275.5 666 c 0
 317.5 666 399.5 650 445.5 554 c 0
 480.5 480 485.5 400 485.5 320 c 0
402.5 332 m 0
 402.5 395 402.5 471 392.5 527 c 0
 373.5 626 307.5 644 274.5 644 c 0
 249.5 644 174.5 635 155.5 516 c 0
 147.5 462 147.5 396 147.5 332 c 0
 147.5 273 147.5 181 158.5 121 c 0
 176.5 25 235.5 0 274.5 0 c 0
 319.5 0 376.5 30 391.5 125 c 0
 402.5 189 402.5 257 402.5 332 c 0
EndSplineSet
Substitution2: "'zero' Slashed Zero lookup 14 subtable" zero.slash
Substitution2: "'pnum' Proportional Numbers lookup 6 subtable" zero.prop
Substitution2: "'onum' Oldstyle Figures lookup 4 subtable" zero.oldstyle
AlternateSubs2: "'aalt' Access All Alternates lookup 1 subtable" zero.oldstyle zero.prop zero.slash
EndChar

StartChar: f_f
Encoding: 64256 64256 122
Width: 550
Flags: HMW
HStem: 0 31<-24.5 9> 400 31<-25.5 53.5 -25.5 53.5 119.5 329.5 119.5 119.5 395.5 510.5 395.5 395.5> 683 22<231 278 217 288 463 487>
VStem: 197.5 66 263.5 66 329.5 66<76 78 78 400>
CounterMasks: 1 1c
LayerCount: 2
Fore
SplineSet
575.5 635 m 0
 575.5 611 560.5 591 531.5 591 c 0
 504.5 591 488.5 611 488.5 634 c 0
 488.5 659 506.5 672 518.5 676 c 1
 503.5 683 488.5 683 485.5 683 c 0
 440.5 683 392.5 636 392.5 547 c 2
 392.5 431 l 1
 510.5 431 l 1
 510.5 400 l 1
 395.5 400 l 1
 395.5 78 l 2
 395.5 42 397.5 31 471.5 31 c 2
 492.5 31 l 1
 492.5 0 l 1
 452.5 3 405.5 3 365.5 3 c 1
 251.5 0 l 1
 251.5 31 l 1
 318.5 31 329.5 31 329.5 76 c 2
 329.5 400 l 1
 119.5 400 l 1
 119.5 76 l 2
 119.5 31 130.5 31 197.5 31 c 1
 197.5 0 l 1
 86.5 3 l 1
 -24.5 0 l 1
 -24.5 31 l 1
 42.5 31 53.5 31 53.5 76 c 2
 53.5 400 l 1
 -25.5 400 l 1
 -25.5 431 l 1
 53.5 431 l 1
 53.5 545 l 2
 53.5 653 169.5 705 264.5 705 c 0
 291.5 705 347.5 700 376.5 663 c 1
 381.5 667 425.5 705 484.5 705 c 0
 540.5 705 575.5 671 575.5 635 c 0
340.5 664 m 1
 340.5 664 312.5 683 263.5 683 c 0
 198.5 683 116.5 641 116.5 544 c 2
 116.5 431 l 1
 329.5 431 l 1
 329.5 546 l 2
 329.5 558 329.5 567 332.5 580 c 1
 305.5 589 304.5 614 304.5 620 c 0
 304.5 648 324.5 661 340.5 664 c 1
EndSplineSet
Ligature2: "'liga' Standard Ligatures lookup 8 subtable" f f
EndChar

StartChar: f_f_i
Encoding: 64259 64259 123
Width: 550
Flags: HMW
HStem: 0 31<-112.5 -79> 400 31<-113.5 -34.5 -113.5 -34.5 31.5 242.5 31.5 31.5 308.5 423.5 423.5 430.5 308.5 308.5> 558 92 683 22<145 186.5 422.5 468.5>
VStem: -34.5 66<76 400> 242.5 66<76 400> 519.5 66<76 346 346 366.5>
CounterMasks: 1 0e
LayerCount: 2
Fore
SplineSet
663.5 0 m 1
 552.5 3 l 1
 441.5 0 l 1
 441.5 31 l 1
 508.5 31 519.5 31 519.5 76 c 2
 519.5 346 l 2
 519.5 387 512.5 400 466.5 400 c 2
 308.5 400 l 1
 308.5 76 l 2
 308.5 31 319.5 31 386.5 31 c 1
 386.5 0 l 1
 275.5 3 l 1
 164.5 0 l 1
 164.5 31 l 1
 231.5 31 242.5 31 242.5 76 c 2
 242.5 400 l 1
 31.5 400 l 1
 31.5 76 l 2
 31.5 31 42.5 31 109.5 31 c 1
 109.5 0 l 1
 -1.5 3 l 1
 -112.5 0 l 1
 -112.5 31 l 1
 -45.5 31 -34.5 31 -34.5 76 c 2
 -34.5 400 l 1
 -113.5 400 l 1
 -113.5 431 l 1
 -34.5 431 l 1
 -34.5 545 l 2
 -34.5 654 82.5 705 176.5 705 c 0
 226.5 705 268.5 685 291.5 650 c 1
 309.5 665 366.5 705 454.5 705 c 0
 528.5 705 583.5 663 583.5 604 c 0
 583.5 574 560.5 558 537.5 558 c 0
 518.5 558 492.5 571 492.5 604 c 0
 492.5 620 498.5 648 539.5 650 c 1
 519.5 673 483.5 683 453.5 683 c 0
 391.5 683 305.5 643 305.5 544 c 2
 305.5 431 l 1
 423.5 431 l 2
 437.5 431 439.5 431 441.5 432 c 2
 546.5 440 l 1
 585.5 443 l 1
 585.5 76 l 2
 585.5 31 596.5 31 663.5 31 c 1
 663.5 0 l 1
260.5 650 m 1
 233.5 678 198.5 683 174.5 683 c 0
 115.5 683 28.5 644 28.5 544 c 2
 28.5 431 l 1
 242.5 431 l 1
 242.5 561 l 1
 224.5 566 212.5 582 212.5 604 c 0
 212.5 624 221.5 648 260.5 650 c 1
EndSplineSet
Ligature2: "'liga' Standard Ligatures in Latin lookup 12 subtable" f_f i
Ligature2: "'liga' Standard Ligatures in Latin lookup 11 subtable" f_f i
Ligature2: "'liga' Standard Ligatures lookup 9 subtable" f_f i
EndChar

StartChar: f_f_l
Encoding: 64260 64260 124
Width: 550
Flags: HMW
HStem: 0 31<-112.5 -79> 400 31<-113.5 -34.5 -113.5 -34.5 31.5 242.5 31.5 31.5 308.5 519.5 308.5 308.5> 674 31 683 22<143 185 421.5 460>
VStem: -34.5 66<76 400> 242.5 66<76 400> 519.5 66<76 400 400 400 431 595 595 595>
CounterMasks: 1 0e
LayerCount: 2
Fore
SplineSet
663.5 0 m 1xee
 552.5 3 l 1
 441.5 0 l 1
 441.5 31 l 1
 508.5 31 519.5 31 519.5 76 c 2
 519.5 400 l 1
 308.5 400 l 1
 308.5 76 l 2
 308.5 31 319.5 31 386.5 31 c 1
 386.5 0 l 1
 275.5 3 l 1
 164.5 0 l 1
 164.5 31 l 1
 231.5 31 242.5 31 242.5 76 c 2
 242.5 400 l 1
 31.5 400 l 1
 31.5 76 l 2
 31.5 31 42.5 31 109.5 31 c 1
 109.5 0 l 1
 -1.5 3 l 1
 -112.5 0 l 1
 -112.5 31 l 1
 -45.5 31 -34.5 31 -34.5 76 c 2
 -34.5 400 l 1
 -113.5 400 l 1
 -113.5 431 l 1
 -34.5 431 l 1
 -34.5 545 l 2
 -34.5 652 79.5 705 177.5 705 c 0
 218.5 705 274.5 694 295.5 653 c 1
 332.5 683 386.5 705 456.5 705 c 0
 467.5 705 508.5 705 540.5 691 c 0
 544.5 689 545.5 688 549.5 688 c 2
 585.5 694 l 1
 585.5 76 l 2
 585.5 31 596.5 31 663.5 31 c 1
 663.5 0 l 1xee
253.5 664 m 1
 227.5 680 193.5 683 176.5 683 c 0x5e
 109.5 683 28.5 641 28.5 544 c 2
 28.5 431 l 1
 242.5 431 l 1
 242.5 545 l 2
 242.5 556 242.5 569 245.5 580 c 1
 223.5 588 217.5 605 217.5 620 c 0
 217.5 653 243.5 662 253.5 664 c 1
519.5 431 m 1
 519.5 595 l 1
 502.5 601 494.5 616 494.5 634 c 0
 494.5 660 510.5 670 519.5 674 c 1x6e
 491.5 683 464.5 683 455.5 683 c 0
 381.5 683 305.5 637 305.5 544 c 2
 305.5 431 l 1
 519.5 431 l 1
EndSplineSet
Ligature2: "'liga' Standard Ligatures lookup 8 subtable" f f l
EndChar

StartChar: f_i
Encoding: 64257 64257 125
Width: 550
Flags: HMW
HStem: 0 31<26 59.5> 400 31<25 104 25 104 170 285 285 292 170 170> 558 89 683 22<284 330>
VStem: 104 66<76 400> 315 66 381 66<76 346 346 366.5>
LayerCount: 2
Fore
SplineSet
525 0 m 1xc2
 414 3 l 1
 303 0 l 1
 303 31 l 1
 370 31 381 31 381 76 c 2
 381 346 l 2
 381 387 374 400 328 400 c 2
 170 400 l 1
 170 76 l 2
 170 31 181 31 248 31 c 1
 248 0 l 1
 137 3 l 1
 26 0 l 1
 26 31 l 1
 93 31 104 31 104 76 c 2
 104 400 l 1
 25 400 l 1
 25 431 l 1
 104 431 l 1
 104 545 l 2
 104 654 223 705 316 705 c 0
 390 705 445 663 445 604 c 0
 445 574 422 558 399 558 c 0
 380 558 354 571 354 604 c 0
 354 620 360 648 401 650 c 1
 381 673 345 683 315 683 c 0xfc
 253 683 167 643 167 544 c 2
 167 431 l 1
 285 431 l 2
 299 431 301 431 303 432 c 2
 303 432 305 433 321 434 c 2
 447 443 l 1
 447 76 l 2
 447 31 458 31 525 31 c 1
 525 0 l 1xc2
EndSplineSet
Ligature2: "'liga' Standard Ligatures in Latin lookup 12 subtable" f i
Ligature2: "'liga' Standard Ligatures in Latin lookup 11 subtable" f i
Ligature2: "'liga' Standard Ligatures lookup 9 subtable" f i
EndChar

StartChar: f_l
Encoding: 64258 64258 126
Width: 550
Flags: HMW
HStem: 0 31<26 59.5> 400 31<25 104 25 104 170 381 170 170> 674 31 683 22<280 321.5>
VStem: 104 66<76 400> 381 66<76 400 400 400 431 595 595 595>
LayerCount: 2
Fore
SplineSet
525 0 m 1xec
 414 3 l 1
 303 0 l 1
 303 31 l 1
 370 31 381 31 381 76 c 2
 381 400 l 1
 170 400 l 1
 170 76 l 2
 170 31 181 31 248 31 c 1
 248 0 l 1
 137 3 l 1
 26 0 l 1
 26 31 l 1
 93 31 104 31 104 76 c 2
 104 400 l 1
 25 400 l 1
 25 431 l 1
 104 431 l 1
 104 545 l 2
 104 649 213 705 318 705 c 0
 329 705 370 705 402 691 c 0
 406 689 407 688 411 688 c 2
 447 694 l 1
 447 76 l 2
 447 31 458 31 525 31 c 1
 525 0 l 1xec
381 431 m 1
 381 595 l 1
 364 601 356 616 356 634 c 0
 356 660 372 670 381 674 c 1x64
 353 683 326 683 317 683 c 0x10
 243 683 167 637 167 544 c 2
 167 431 l 1
 381 431 l 1
EndSplineSet
Ligature2: "'liga' Standard Ligatures lookup 8 subtable" f l
EndChar

StartChar: Aacute
Encoding: 193 193 127
Width: 550
Flags: HMW
HStem: 0 31<24.9747 24.9747> 228 31<171.705 335.955 171.705 343.985 163.675 335.955> 696 20G<257.845 281.205 269.525 292.155> 746 21G<224.995 235.215> 889 20G<345.445 357.855>
LayerCount: 2
Fore
SplineSet
525.025 0 m 1
 429.395 3 l 2
 401.654 3 350.555 3 324.275 0 c 1
 324.275 31 l 1
 343.984 31 384.865 31 384.865 61 c 0
 384.865 65 383.404 71 382.674 75 c 2
 343.984 228 l 1
 163.674 228 l 1
 130.096 97 l 2
 129.365 95 128.635 85 128.635 82 c 0
 128.635 56 146.885 31 183.385 31 c 1
 183.385 0 l 1
 99.4355 3 l 1
 24.9746 0 l 1
 24.9746 31 l 1
 64.3945 32 93.5957 47 106.734 98 c 2
 257.846 696 l 2
 261.494 710 263.686 716 275.365 716 c 0
 287.045 716 288.504 709 292.154 696 c 2
 449.834 71 l 2
 457.865 38 468.084 31 511.885 31 c 2
 525.025 31 l 1
 525.025 0 l 1
335.955 259 m 1
 253.465 584 l 1
 171.705 259 l 1
 335.955 259 l 1
375.375 867 m 0x18
 373.914 855 367.346 845 359.314 840 c 2
 235.215 746 l 1
 224.994 767 l 1
 330.846 897 l 2
 333.766 901 341.064 909 349.824 909 c 0
 365.885 909 378.295 889 375.375 867 c 0x18
EndSplineSet
Position2: "'cpsp' Capital Spacing lookup 0 subtable" dx=5 dy=0 dh=10 dv=0
EndChar

StartChar: aacute
Encoding: 225 225 128
Width: 550
Flags: HMW
HStem: -11 22<192 239 192 242.5> -6 31<423 429> 288 90 426 22<211.5 252> 510 21G<222.5 222.5> 678 20G<348 364.5>
VStem: 49.5 77<71 117> 333.5 69<140 240 240 240 261 275> 475.5 25<89 145>
LayerCount: 2
Fore
SplineSet
500.5 89 m 2x7380
 500.5 8 439.5 -6 418.5 -6 c 0x4080
 371.5 -6 344.5 36 340.5 76 c 1
 321.5 29 275.5 -11 209.5 -11 c 0x80
 146.5 -11 49.5 14 49.5 95 c 0
 49.5 139 74.5 191 149.5 225 c 1
 212.5 255 282.5 258 333.5 261 c 1
 333.5 298 l 2
 333.5 387 276.5 426 227.5 426 c 0
 195.5 426 146.5 415 119.5 380 c 1
 165.5 379 170.5 346 170.5 334 c 0
 170.5 308 152.5 288 124.5 288 c 0
 98.5 288 78.5 305 78.5 335 c 0
 78.5 401 147.5 448 229.5 448 c 0
 277.5 448 327.5 432 366.5 393 c 0
 402.5 356 402.5 317 402.5 275 c 2
 402.5 75 l 2
 402.5 70 406.5 25 439.5 25 c 0
 450.5 25 475.5 31 475.5 89 c 2
 475.5 145 l 1
 500.5 145 l 1
 500.5 89 l 2x7380
333.5 140 m 2
 333.5 240 l 1
 168.5 234 126.5 151 126.5 96 c 0
 126.5 46 167.5 11 216.5 11 c 0x83
 261.5 11 333.5 45 333.5 140 c 2
391.5 662 m 0x0c
 391.5 650 383.5 639 374.5 632 c 2
 222.5 510 l 1
 205.5 528 l 1
 325.5 681 l 2
 329.5 687 340.5 698 355.5 698 c 0
 373.5 698 391.5 680 391.5 662 c 0x0c
EndSplineSet
EndChar

StartChar: Abreve
Encoding: 258 258 129
Width: 550
Flags: HMW
HStem: 0 31<-67.5 -67.5> 228 31<133.5 358.5 133.5 369.5 122.5 358.5> 696 20G<251.5 283.5 267.5 298.5> 746 38<245 306 245 314.5> 898 20G<126.5 148.5 148.5 148.5 403.5 425.5 425.5 425.5>
LayerCount: 2
Fore
SplineSet
617.5 0 m 1
 486.5 3 l 2
 448.5 3 378.5 3 342.5 0 c 1
 342.5 31 l 1
 369.5 31 425.5 31 425.5 61 c 0
 425.5 65 423.5 71 422.5 75 c 2
 369.5 228 l 1
 122.5 228 l 1
 76.5 97 l 2
 75.5 95 74.5 85 74.5 82 c 0
 74.5 56 99.5 31 149.5 31 c 1
 149.5 0 l 1
 34.5 3 l 1
 -67.5 0 l 1
 -67.5 31 l 1
 -13.5 32 26.5 47 44.5 98 c 2
 251.5 696 l 2
 256.5 710 259.5 716 275.5 716 c 0
 291.5 716 293.5 709 298.5 696 c 2
 514.5 71 l 2
 525.5 38 539.5 31 599.5 31 c 2
 617.5 31 l 1
 617.5 0 l 1
358.5 259 m 1
 245.5 584 l 1
 133.5 259 l 1
 358.5 259 l 1
425.5 918 m 1x18
 423.5 813 353.5 746 275.5 746 c 0
 201.5 746 128.5 810 126.5 918 c 1
 148.5 918 l 1
 150.5 833 213.5 784 276.5 784 c 0
 335.5 784 401.5 831 403.5 918 c 1
 425.5 918 l 1x18
EndSplineSet
Position2: "'cpsp' Capital Spacing lookup 0 subtable" dx=5 dy=0 dh=10 dv=0
EndChar

StartChar: abreve
Encoding: 259 259 130
Width: 550
Flags: HMW
HStem: -11 22<192 239 192 242.5> -6 31<423 429> 288 90 426 22<211.5 252> 518 38<237 298 237 306.5> 670 20G<118.5 140.5 140.5 140.5 395.5 417.5 417.5 417.5>
VStem: 49.5 77<71 117> 333.5 69<140 240 240 240 261 275> 475.5 25<89 145>
LayerCount: 2
Fore
SplineSet
500.5 89 m 2x7380
 500.5 8 439.5 -6 418.5 -6 c 0x4080
 371.5 -6 344.5 36 340.5 76 c 1
 321.5 29 275.5 -11 209.5 -11 c 0x80
 146.5 -11 49.5 14 49.5 95 c 0
 49.5 139 74.5 191 149.5 225 c 1
 212.5 255 282.5 258 333.5 261 c 1
 333.5 298 l 2
 333.5 387 276.5 426 227.5 426 c 0
 195.5 426 146.5 415 119.5 380 c 1
 165.5 379 170.5 346 170.5 334 c 0
 170.5 308 152.5 288 124.5 288 c 0
 98.5 288 78.5 305 78.5 335 c 0
 78.5 401 147.5 448 229.5 448 c 0
 277.5 448 327.5 432 366.5 393 c 0
 402.5 356 402.5 317 402.5 275 c 2
 402.5 75 l 2
 402.5 70 406.5 25 439.5 25 c 0
 450.5 25 475.5 31 475.5 89 c 2
 475.5 145 l 1
 500.5 145 l 1
 500.5 89 l 2x7380
333.5 140 m 2
 333.5 240 l 1
 168.5 234 126.5 151 126.5 96 c 0
 126.5 46 167.5 11 216.5 11 c 0x83
 261.5 11 333.5 45 333.5 140 c 2
417.5 690 m 1x0c
 415.5 585 345.5 518 267.5 518 c 0
 193.5 518 120.5 582 118.5 690 c 1
 140.5 690 l 1
 142.5 605 205.5 556 268.5 556 c 0
 327.5 556 393.5 603 395.5 690 c 1
 417.5 690 l 1x0c
EndSplineSet
EndChar

StartChar: Abreveacute
Encoding: 7854 7854 131
Width: 550
Flags: HMW
HStem: 0 31<-67.5 -67.5> 228 31<133.5 358.5 133.5 369.5 122.5 358.5> 696 20G<251.5 283.5 267.5 298.5> 746 38<245 306 245 314.5> 1081 20G<337.5 354.5>
LayerCount: 2
Fore
SplineSet
617.5 0 m 1
 486.5 3 l 2
 448.5 3 378.5 3 342.5 0 c 1
 342.5 31 l 1
 369.5 31 425.5 31 425.5 61 c 0
 425.5 65 423.5 71 422.5 75 c 2
 369.5 228 l 1
 122.5 228 l 1
 76.5 97 l 2
 75.5 95 74.5 85 74.5 82 c 0
 74.5 56 99.5 31 149.5 31 c 1
 149.5 0 l 1
 34.5 3 l 1
 -67.5 0 l 1
 -67.5 31 l 1
 -13.5 32 26.5 47 44.5 98 c 2
 251.5 696 l 2
 256.5 710 259.5 716 275.5 716 c 0
 291.5 716 293.5 709 298.5 696 c 2
 514.5 71 l 2
 525.5 38 539.5 31 599.5 31 c 2
 617.5 31 l 1
 617.5 0 l 1
358.5 259 m 1
 245.5 584 l 1
 133.5 259 l 1
 358.5 259 l 1
425.5 918 m 1x18
 423.5 813 353.5 746 275.5 746 c 0
 201.5 746 128.5 810 126.5 918 c 1
 148.5 918 l 1
 150.5 833 213.5 784 276.5 784 c 0
 335.5 784 401.5 831 403.5 918 c 1
 425.5 918 l 1x18
378.5 1059 m 0
 376.5 1047 367.5 1037 356.5 1032 c 2
 186.5 938 l 1
 172.5 959 l 1
 317.5 1089 l 2
 321.5 1093 331.5 1101 343.5 1101 c 0
 365.5 1101 382.5 1081 378.5 1059 c 0
EndSplineSet
Position2: "'cpsp' Capital Spacing lookup 0 subtable" dx=7 dy=0 dh=14 dv=0
EndChar

StartChar: abreveacute
Encoding: 7855 7855 132
Width: 550
Flags: HMW
HStem: -11 22<192 239 192 242.5> -6 31<423 429> 288 90 426 22<211.5 252> 518 38<237 298 237 306.5> 853 20G<329.5 346.5>
VStem: 49.5 77<71 117> 333.5 69<140 240 240 240 261 275> 475.5 25<89 145>
LayerCount: 2
Fore
SplineSet
500.5 89 m 2x7380
 500.5 8 439.5 -6 418.5 -6 c 0x4080
 371.5 -6 344.5 36 340.5 76 c 1
 321.5 29 275.5 -11 209.5 -11 c 0x80
 146.5 -11 49.5 14 49.5 95 c 0
 49.5 139 74.5 191 149.5 225 c 1
 212.5 255 282.5 258 333.5 261 c 1
 333.5 298 l 2
 333.5 387 276.5 426 227.5 426 c 0
 195.5 426 146.5 415 119.5 380 c 1
 165.5 379 170.5 346 170.5 334 c 0
 170.5 308 152.5 288 124.5 288 c 0
 98.5 288 78.5 305 78.5 335 c 0
 78.5 401 147.5 448 229.5 448 c 0
 277.5 448 327.5 432 366.5 393 c 0
 402.5 356 402.5 317 402.5 275 c 2
 402.5 75 l 2
 402.5 70 406.5 25 439.5 25 c 0
 450.5 25 475.5 31 475.5 89 c 2
 475.5 145 l 1
 500.5 145 l 1
 500.5 89 l 2x7380
333.5 140 m 2
 333.5 240 l 1
 168.5 234 126.5 151 126.5 96 c 0
 126.5 46 167.5 11 216.5 11 c 0x83
 261.5 11 333.5 45 333.5 140 c 2
417.5 690 m 1x0c
 415.5 585 345.5 518 267.5 518 c 0
 193.5 518 120.5 582 118.5 690 c 1
 140.5 690 l 1
 142.5 605 205.5 556 268.5 556 c 0
 327.5 556 393.5 603 395.5 690 c 1
 417.5 690 l 1x0c
370.5 831 m 0
 368.5 819 359.5 809 348.5 804 c 2
 178.5 710 l 1
 164.5 731 l 1
 309.5 861 l 2
 313.5 865 323.5 873 335.5 873 c 0
 357.5 873 374.5 853 370.5 831 c 0
EndSplineSet
EndChar

StartChar: Abrevedotbelow
Encoding: 7862 7862 133
Width: 550
Flags: HMW
HStem: -200 106<259.5 290.5 258.5 291.5> 0 31<-67.5 -67.5> 228 31<133.5 358.5 133.5 369.5 122.5 358.5> 696 20G<251.5 283.5 267.5 298.5> 746 38<245 306 245 314.5> 898 20G<126.5 148.5 148.5 148.5 403.5 425.5 425.5 425.5>
VStem: 221.5 107<-159.5 -134.5>
LayerCount: 2
Fore
SplineSet
617.5 0 m 1
 486.5 3 l 2
 448.5 3 378.5 3 342.5 0 c 1
 342.5 31 l 1
 369.5 31 425.5 31 425.5 61 c 0
 425.5 65 423.5 71 422.5 75 c 2
 369.5 228 l 1
 122.5 228 l 1
 76.5 97 l 2
 75.5 95 74.5 85 74.5 82 c 0
 74.5 56 99.5 31 149.5 31 c 1
 149.5 0 l 1
 34.5 3 l 1
 -67.5 0 l 1
 -67.5 31 l 1
 -13.5 32 26.5 47 44.5 98 c 2
 251.5 696 l 2
 256.5 710 259.5 716 275.5 716 c 0
 291.5 716 293.5 709 298.5 696 c 2
 514.5 71 l 2
 525.5 38 539.5 31 599.5 31 c 2
 617.5 31 l 1
 617.5 0 l 1
358.5 259 m 1
 245.5 584 l 1
 133.5 259 l 1
 358.5 259 l 1
425.5 918 m 1
 423.5 813 353.5 746 275.5 746 c 0
 201.5 746 128.5 810 126.5 918 c 1
 148.5 918 l 1
 150.5 833 213.5 784 276.5 784 c 0
 335.5 784 401.5 831 403.5 918 c 1
 425.5 918 l 1
328.5 -147 m 0x82
 328.5 -172 308.5 -200 274.5 -200 c 0
 244.5 -200 221.5 -174 221.5 -147 c 0
 221.5 -122 241.5 -94 275.5 -94 c 0
 305.5 -94 328.5 -120 328.5 -147 c 0x82
EndSplineSet
Position2: "'cpsp' Capital Spacing lookup 0 subtable" dx=7 dy=0 dh=14 dv=0
EndChar

StartChar: abrevedotbelow
Encoding: 7863 7863 134
Width: 550
Flags: HMW
HStem: -200 106<251.5 282.5 250.5 283.5> -11 22<192 239 192 242.5> -6 31<423 429> 288 90 426 22<211.5 252> 518 38<237 298 237 306.5> 670 20G<118.5 140.5 140.5 140.5 395.5 417.5 417.5 417.5>
VStem: 49.5 77<71 117> 213.5 107<-159.5 -134.5> 333.5 69<140 240 240 240 261 275> 475.5 25<89 145>
LayerCount: 2
Fore
SplineSet
500.5 89 m 2x3960
 500.5 8 439.5 -6 418.5 -6 c 0x2020
 371.5 -6 344.5 36 340.5 76 c 1
 321.5 29 275.5 -11 209.5 -11 c 0x40
 146.5 -11 49.5 14 49.5 95 c 0
 49.5 139 74.5 191 149.5 225 c 1
 212.5 255 282.5 258 333.5 261 c 1
 333.5 298 l 2
 333.5 387 276.5 426 227.5 426 c 0
 195.5 426 146.5 415 119.5 380 c 1
 165.5 379 170.5 346 170.5 334 c 0
 170.5 308 152.5 288 124.5 288 c 0
 98.5 288 78.5 305 78.5 335 c 0
 78.5 401 147.5 448 229.5 448 c 0
 277.5 448 327.5 432 366.5 393 c 0
 402.5 356 402.5 317 402.5 275 c 2
 402.5 75 l 2
 402.5 70 406.5 25 439.5 25 c 0
 450.5 25 475.5 31 475.5 89 c 2
 475.5 145 l 1
 500.5 145 l 1
 500.5 89 l 2x3960
333.5 140 m 2
 333.5 240 l 1
 168.5 234 126.5 151 126.5 96 c 0
 126.5 46 167.5 11 216.5 11 c 0x4740
 261.5 11 333.5 45 333.5 140 c 2
417.5 690 m 1
 415.5 585 345.5 518 267.5 518 c 0
 193.5 518 120.5 582 118.5 690 c 1
 140.5 690 l 1
 142.5 605 205.5 556 268.5 556 c 0
 327.5 556 393.5 603 395.5 690 c 1
 417.5 690 l 1
320.5 -147 m 0x8080
 320.5 -172 300.5 -200 266.5 -200 c 0
 236.5 -200 213.5 -174 213.5 -147 c 0
 213.5 -122 233.5 -94 267.5 -94 c 0
 297.5 -94 320.5 -120 320.5 -147 c 0x8080
EndSplineSet
EndChar

StartChar: Abrevegrave
Encoding: 7856 7856 135
Width: 550
Flags: HMW
HStem: 0 31<-67.5 -67.5> 228 31<133.5 358.5 133.5 369.5 122.5 358.5> 696 20G<251.5 283.5 267.5 298.5> 746 38<245 306 245 314.5> 898 20G<126.5 148.5 148.5 148.5 403.5 425.5 425.5 425.5>
LayerCount: 2
Fore
SplineSet
617.5 0 m 1
 486.5 3 l 2
 448.5 3 378.5 3 342.5 0 c 1
 342.5 31 l 1
 369.5 31 425.5 31 425.5 61 c 0
 425.5 65 423.5 71 422.5 75 c 2
 369.5 228 l 1
 122.5 228 l 1
 76.5 97 l 2
 75.5 95 74.5 85 74.5 82 c 0
 74.5 56 99.5 31 149.5 31 c 1
 149.5 0 l 1
 34.5 3 l 1
 -67.5 0 l 1
 -67.5 31 l 1
 -13.5 32 26.5 47 44.5 98 c 2
 251.5 696 l 2
 256.5 710 259.5 716 275.5 716 c 0
 291.5 716 293.5 709 298.5 696 c 2
 514.5 71 l 2
 525.5 38 539.5 31 599.5 31 c 2
 617.5 31 l 1
 617.5 0 l 1
358.5 259 m 1
 245.5 584 l 1
 133.5 259 l 1
 358.5 259 l 1
425.5 918 m 1x18
 423.5 813 353.5 746 275.5 746 c 0
 201.5 746 128.5 810 126.5 918 c 1
 148.5 918 l 1
 150.5 833 213.5 784 276.5 784 c 0
 335.5 784 401.5 831 403.5 918 c 1
 425.5 918 l 1x18
379.5 959 m 1
 234.5 1089 l 2
 230.5 1093 220.5 1101 208.5 1101 c 0
 186.5 1101 169.5 1081 173.5 1059 c 0
 175.5 1047 184.5 1037 195.5 1032 c 2
 365.5 938 l 1
 379.5 959 l 1
EndSplineSet
Position2: "'cpsp' Capital Spacing lookup 0 subtable" dx=7 dy=0 dh=14 dv=0
EndChar

StartChar: abrevegrave
Encoding: 7857 7857 136
Width: 550
Flags: HMW
HStem: -11 22<192 239 192 242.5> -6 31<423 429> 288 90 426 22<211.5 252> 518 38<237 298 237 306.5> 670 20G<118.5 140.5 140.5 140.5 395.5 417.5 417.5 417.5>
VStem: 49.5 77<71 117> 333.5 69<140 240 240 240 261 275> 475.5 25<89 145>
LayerCount: 2
Fore
SplineSet
500.5 89 m 2x7380
 500.5 8 439.5 -6 418.5 -6 c 0x4080
 371.5 -6 344.5 36 340.5 76 c 1
 321.5 29 275.5 -11 209.5 -11 c 0x80
 146.5 -11 49.5 14 49.5 95 c 0
 49.5 139 74.5 191 149.5 225 c 1
 212.5 255 282.5 258 333.5 261 c 1
 333.5 298 l 2
 333.5 387 276.5 426 227.5 426 c 0
 195.5 426 146.5 415 119.5 380 c 1
 165.5 379 170.5 346 170.5 334 c 0
 170.5 308 152.5 288 124.5 288 c 0
 98.5 288 78.5 305 78.5 335 c 0
 78.5 401 147.5 448 229.5 448 c 0
 277.5 448 327.5 432 366.5 393 c 0
 402.5 356 402.5 317 402.5 275 c 2
 402.5 75 l 2
 402.5 70 406.5 25 439.5 25 c 0
 450.5 25 475.5 31 475.5 89 c 2
 475.5 145 l 1
 500.5 145 l 1
 500.5 89 l 2x7380
333.5 140 m 2
 333.5 240 l 1
 168.5 234 126.5 151 126.5 96 c 0
 126.5 46 167.5 11 216.5 11 c 0x83
 261.5 11 333.5 45 333.5 140 c 2
417.5 690 m 1x0c
 415.5 585 345.5 518 267.5 518 c 0
 193.5 518 120.5 582 118.5 690 c 1
 140.5 690 l 1
 142.5 605 205.5 556 268.5 556 c 0
 327.5 556 393.5 603 395.5 690 c 1
 417.5 690 l 1x0c
371.5 731 m 1
 226.5 861 l 2
 222.5 865 212.5 873 200.5 873 c 0
 178.5 873 161.5 853 165.5 831 c 0
 167.5 819 176.5 809 187.5 804 c 2
 357.5 710 l 1
 371.5 731 l 1
EndSplineSet
EndChar

StartChar: Abrevehookabove
Encoding: 7858 7858 137
Width: 550
Flags: HMW
HStem: 0 31<-67.5 -67.5> 228 31<133.5 358.5 133.5 369.5 122.5 358.5> 696 20G<251.5 283.5 267.5 298.5> 746 38<245 306 245 314.5> 1107 20G<246 284>
LayerCount: 2
Fore
SplineSet
617.5 0 m 1
 486.5 3 l 2
 448.5 3 378.5 3 342.5 0 c 1
 342.5 31 l 1
 369.5 31 425.5 31 425.5 61 c 0
 425.5 65 423.5 71 422.5 75 c 2
 369.5 228 l 1
 122.5 228 l 1
 76.5 97 l 2
 75.5 95 74.5 85 74.5 82 c 0
 74.5 56 99.5 31 149.5 31 c 1
 149.5 0 l 1
 34.5 3 l 1
 -67.5 0 l 1
 -67.5 31 l 1
 -13.5 32 26.5 47 44.5 98 c 2
 251.5 696 l 2
 256.5 710 259.5 716 275.5 716 c 0
 291.5 716 293.5 709 298.5 696 c 2
 514.5 71 l 2
 525.5 38 539.5 31 599.5 31 c 2
 617.5 31 l 1
 617.5 0 l 1
358.5 259 m 1
 245.5 584 l 1
 133.5 259 l 1
 358.5 259 l 1
425.5 918 m 1x18
 423.5 813 353.5 746 275.5 746 c 0
 201.5 746 128.5 810 126.5 918 c 1
 148.5 918 l 1
 150.5 833 213.5 784 276.5 784 c 0
 335.5 784 401.5 831 403.5 918 c 1
 425.5 918 l 1x18
373.5 1060 m 0
 373.5 1041 361.5 1025 343.5 1017 c 0
 303.5 997 279.5 975 279.5 947 c 2
 279.5 928 l 2
 279.5 922 275.5 918 269.5 918 c 0
 264.5 918 259.5 922 259.5 928 c 2
 259.5 947 l 2
 259.5 980 279.5 1010 307.5 1033 c 0
 315.5 1039 319.5 1049 319.5 1060 c 0
 319.5 1079 318.5 1089 311.5 1095 c 0
 300.5 1105 284.5 1108 269.5 1108 c 0
 246.5 1108 226.5 1101 213.5 1090 c 1
 227.5 1088 238.5 1077 238.5 1060 c 0
 238.5 1042 224.5 1031 209.5 1031 c 0
 193.5 1031 179.5 1042 179.5 1061 c 0
 179.5 1102 222.5 1127 269.5 1127 c 0
 298.5 1127 323.5 1123 344.5 1111 c 0
 362.5 1100 373.5 1081 373.5 1060 c 0
EndSplineSet
Position2: "'cpsp' Capital Spacing lookup 0 subtable" dx=7 dy=0 dh=14 dv=0
EndChar

StartChar: abrevehookabove
Encoding: 7859 7859 138
Width: 550
Flags: HMW
HStem: -11 22<192 239 192 242.5> -6 31<423 429> 288 90 426 22<211.5 252> 518 38<237 298 237 306.5> 879 20G<238 276>
VStem: 49.5 77<71 117> 333.5 69<140 240 240 240 261 275> 475.5 25<89 145>
LayerCount: 2
Fore
SplineSet
500.5 89 m 2x7380
 500.5 8 439.5 -6 418.5 -6 c 0x4080
 371.5 -6 344.5 36 340.5 76 c 1
 321.5 29 275.5 -11 209.5 -11 c 0x80
 146.5 -11 49.5 14 49.5 95 c 0
 49.5 139 74.5 191 149.5 225 c 1
 212.5 255 282.5 258 333.5 261 c 1
 333.5 298 l 2
 333.5 387 276.5 426 227.5 426 c 0
 195.5 426 146.5 415 119.5 380 c 1
 165.5 379 170.5 346 170.5 334 c 0
 170.5 308 152.5 288 124.5 288 c 0
 98.5 288 78.5 305 78.5 335 c 0
 78.5 401 147.5 448 229.5 448 c 0
 277.5 448 327.5 432 366.5 393 c 0
 402.5 356 402.5 317 402.5 275 c 2
 402.5 75 l 2
 402.5 70 406.5 25 439.5 25 c 0
 450.5 25 475.5 31 475.5 89 c 2
 475.5 145 l 1
 500.5 145 l 1
 500.5 89 l 2x7380
333.5 140 m 2
 333.5 240 l 1
 168.5 234 126.5 151 126.5 96 c 0
 126.5 46 167.5 11 216.5 11 c 0x83
 261.5 11 333.5 45 333.5 140 c 2
417.5 690 m 1x0c
 415.5 585 345.5 518 267.5 518 c 0
 193.5 518 120.5 582 118.5 690 c 1
 140.5 690 l 1
 142.5 605 205.5 556 268.5 556 c 0
 327.5 556 393.5 603 395.5 690 c 1
 417.5 690 l 1x0c
365.5 832 m 0
 365.5 813 353.5 797 335.5 789 c 0
 295.5 769 271.5 747 271.5 719 c 2
 271.5 700 l 2
 271.5 694 267.5 690 261.5 690 c 0
 256.5 690 251.5 694 251.5 700 c 2
 251.5 719 l 2
 251.5 752 271.5 782 299.5 805 c 0
 307.5 811 311.5 821 311.5 832 c 0
 311.5 851 310.5 861 303.5 867 c 0
 292.5 877 276.5 880 261.5 880 c 0
 238.5 880 218.5 873 205.5 862 c 1
 219.5 860 230.5 849 230.5 832 c 0
 230.5 814 216.5 803 201.5 803 c 0
 185.5 803 171.5 814 171.5 833 c 0
 171.5 874 214.5 899 261.5 899 c 0
 290.5 899 315.5 895 336.5 883 c 0
 354.5 872 365.5 853 365.5 832 c 0
EndSplineSet
EndChar

StartChar: Abrevetilde
Encoding: 7860 7860 139
Width: 550
Flags: HMW
HStem: 0 31<-67.5 -67.5> 228 31<133.5 358.5 133.5 369.5 122.5 358.5> 696 20G<251.5 283.5 267.5 298.5> 746 38<245 306 245 314.5> 958 45<333 353.5> 1006 45<198.5 219>
LayerCount: 2
Fore
SplineSet
617.5 0 m 1
 486.5 3 l 2
 448.5 3 378.5 3 342.5 0 c 1
 342.5 31 l 1
 369.5 31 425.5 31 425.5 61 c 0
 425.5 65 423.5 71 422.5 75 c 2
 369.5 228 l 1
 122.5 228 l 1
 76.5 97 l 2
 75.5 95 74.5 85 74.5 82 c 0
 74.5 56 99.5 31 149.5 31 c 1
 149.5 0 l 1
 34.5 3 l 1
 -67.5 0 l 1
 -67.5 31 l 1
 -13.5 32 26.5 47 44.5 98 c 2
 251.5 696 l 2
 256.5 710 259.5 716 275.5 716 c 0
 291.5 716 293.5 709 298.5 696 c 2
 514.5 71 l 2
 525.5 38 539.5 31 599.5 31 c 2
 617.5 31 l 1
 617.5 0 l 1
358.5 259 m 1
 245.5 584 l 1
 133.5 259 l 1
 358.5 259 l 1
425.5 918 m 1x1c
 423.5 813 353.5 746 275.5 746 c 0
 201.5 746 128.5 810 126.5 918 c 1
 148.5 918 l 1
 150.5 833 213.5 784 276.5 784 c 0
 335.5 784 401.5 831 403.5 918 c 1
 425.5 918 l 1x1c
442.5 1036 m 1
 391.5 980 372.5 958 334.5 958 c 0
 317.5 958 299.5 965 272.5 981 c 0
 255.5 991 230.5 1006 207.5 1006 c 0
 163.5 1006 125.5 958 125.5 958 c 1
 109.5 973 l 1
 160.5 1029 179.5 1051 217.5 1051 c 0
 234.5 1051 252.5 1044 279.5 1028 c 0
 296.5 1018 321.5 1003 344.5 1003 c 0
 388.5 1003 426.5 1051 426.5 1051 c 1
 442.5 1036 l 1
EndSplineSet
Position2: "'cpsp' Capital Spacing lookup 0 subtable" dx=7 dy=0 dh=14 dv=0
EndChar

StartChar: abrevetilde
Encoding: 7861 7861 140
Width: 550
Flags: HMW
HStem: -11 22<192 239 192 242.5> -6 31<423 429> 288 90 426 22<211.5 252> 518 38<237 298 237 306.5> 730 45<325 345.5> 778 45<190.5 211>
VStem: 49.5 77<71 117> 333.5 69<140 240 240 240 261 275> 475.5 25<89 145>
LayerCount: 2
Fore
SplineSet
500.5 89 m 2x71c0
 500.5 8 439.5 -6 418.5 -6 c 0x4040
 371.5 -6 344.5 36 340.5 76 c 1
 321.5 29 275.5 -11 209.5 -11 c 0x80
 146.5 -11 49.5 14 49.5 95 c 0
 49.5 139 74.5 191 149.5 225 c 1
 212.5 255 282.5 258 333.5 261 c 1
 333.5 298 l 2
 333.5 387 276.5 426 227.5 426 c 0
 195.5 426 146.5 415 119.5 380 c 1
 165.5 379 170.5 346 170.5 334 c 0
 170.5 308 152.5 288 124.5 288 c 0
 98.5 288 78.5 305 78.5 335 c 0
 78.5 401 147.5 448 229.5 448 c 0
 277.5 448 327.5 432 366.5 393 c 0
 402.5 356 402.5 317 402.5 275 c 2
 402.5 75 l 2
 402.5 70 406.5 25 439.5 25 c 0
 450.5 25 475.5 31 475.5 89 c 2
 475.5 145 l 1
 500.5 145 l 1
 500.5 89 l 2x71c0
333.5 140 m 2
 333.5 240 l 1
 168.5 234 126.5 151 126.5 96 c 0
 126.5 46 167.5 11 216.5 11 c 0x8180
 261.5 11 333.5 45 333.5 140 c 2
417.5 690 m 1x0e
 415.5 585 345.5 518 267.5 518 c 0
 193.5 518 120.5 582 118.5 690 c 1
 140.5 690 l 1
 142.5 605 205.5 556 268.5 556 c 0
 327.5 556 393.5 603 395.5 690 c 1
 417.5 690 l 1x0e
434.5 808 m 1
 383.5 752 364.5 730 326.5 730 c 0
 309.5 730 291.5 737 264.5 753 c 0
 247.5 763 222.5 778 199.5 778 c 0
 155.5 778 117.5 730 117.5 730 c 1
 101.5 745 l 1
 152.5 801 171.5 823 209.5 823 c 0
 226.5 823 244.5 816 271.5 800 c 0
 288.5 790 313.5 775 336.5 775 c 0
 380.5 775 418.5 823 418.5 823 c 1
 434.5 808 l 1
EndSplineSet
EndChar

StartChar: Acaron
Encoding: 461 461 141
Width: 550
Flags: HMW
HStem: 0 31<-67.5 -67.5> 228 31<133.5 358.5 133.5 369.5 122.5 358.5> 696 20G<251.5 283.5 267.5 298.5> 736 21G<275.5 275.5> 849 20G<136.5 136.5 416.5 416.5>
LayerCount: 2
Fore
SplineSet
617.5 0 m 1
 486.5 3 l 2
 448.5 3 378.5 3 342.5 0 c 1
 342.5 31 l 1
 369.5 31 425.5 31 425.5 61 c 0
 425.5 65 423.5 71 422.5 75 c 2
 369.5 228 l 1
 122.5 228 l 1
 76.5 97 l 2
 75.5 95 74.5 85 74.5 82 c 0
 74.5 56 99.5 31 149.5 31 c 1
 149.5 0 l 1
 34.5 3 l 1
 -67.5 0 l 1
 -67.5 31 l 1
 -13.5 32 26.5 47 44.5 98 c 2
 251.5 696 l 2
 256.5 710 259.5 716 275.5 716 c 0
 291.5 716 293.5 709 298.5 696 c 2
 514.5 71 l 2
 525.5 38 539.5 31 599.5 31 c 2
 617.5 31 l 1
 617.5 0 l 1
358.5 259 m 1
 245.5 584 l 1
 133.5 259 l 1
 358.5 259 l 1
426.5 853 m 1x18
 275.5 736 l 1
 124.5 853 l 1
 136.5 869 l 1
 276.5 803 l 1
 416.5 869 l 1
 426.5 853 l 1x18
EndSplineSet
EndChar

StartChar: acaron
Encoding: 462 462 142
Width: 550
Flags: HMW
HStem: -11 22<192 239 192 242.5> -6 31<423 429> 288 90 426 22<211.5 252> 516 21G<267.5 267.5> 672 20G<128.5 128.5 406.5 406.5>
VStem: 49.5 77<71 117> 333.5 69<140 240 240 240 261 275> 475.5 25<89 145>
LayerCount: 2
Fore
SplineSet
500.5 89 m 2x7380
 500.5 8 439.5 -6 418.5 -6 c 0x4080
 371.5 -6 344.5 36 340.5 76 c 1
 321.5 29 275.5 -11 209.5 -11 c 0x80
 146.5 -11 49.5 14 49.5 95 c 0
 49.5 139 74.5 191 149.5 225 c 1
 212.5 255 282.5 258 333.5 261 c 1
 333.5 298 l 2
 333.5 387 276.5 426 227.5 426 c 0
 195.5 426 146.5 415 119.5 380 c 1
 165.5 379 170.5 346 170.5 334 c 0
 170.5 308 152.5 288 124.5 288 c 0
 98.5 288 78.5 305 78.5 335 c 0
 78.5 401 147.5 448 229.5 448 c 0
 277.5 448 327.5 432 366.5 393 c 0
 402.5 356 402.5 317 402.5 275 c 2
 402.5 75 l 2
 402.5 70 406.5 25 439.5 25 c 0
 450.5 25 475.5 31 475.5 89 c 2
 475.5 145 l 1
 500.5 145 l 1
 500.5 89 l 2x7380
333.5 140 m 2
 333.5 240 l 1
 168.5 234 126.5 151 126.5 96 c 0
 126.5 46 167.5 11 216.5 11 c 0x83
 261.5 11 333.5 45 333.5 140 c 2
419.5 678 m 1x0c
 267.5 516 l 1
 115.5 678 l 1
 128.5 692 l 1
 267.5 584 l 1
 406.5 692 l 1
 419.5 678 l 1x0c
EndSplineSet
EndChar

StartChar: Acircumflex
Encoding: 194 194 143
Width: 550
Flags: HMW
HStem: 0 31<24.9747 24.9747> 228 31<171.705 335.955 171.705 343.985 163.675 335.955> 696 20G<257.845 281.205 269.525 292.155> 736 21G<172.435 172.435 376.835 376.835> 849 20G<275.365 275.365>
LayerCount: 2
Fore
SplineSet
525.025 0 m 1
 429.395 3 l 2
 401.654 3 350.555 3 324.275 0 c 1
 324.275 31 l 1
 343.984 31 384.865 31 384.865 61 c 0
 384.865 65 383.404 71 382.674 75 c 2
 343.984 228 l 1
 163.674 228 l 1
 130.096 97 l 2
 129.365 95 128.635 85 128.635 82 c 0
 128.635 56 146.885 31 183.385 31 c 1
 183.385 0 l 1
 99.4355 3 l 1
 24.9746 0 l 1
 24.9746 31 l 1
 64.3945 32 93.5957 47 106.734 98 c 2
 257.846 696 l 2
 261.494 710 263.686 716 275.365 716 c 0
 287.045 716 288.504 709 292.154 696 c 2
 449.834 71 l 2
 457.865 38 468.084 31 511.885 31 c 2
 525.025 31 l 1
 525.025 0 l 1
335.955 259 m 1
 253.465 584 l 1
 171.705 259 l 1
 335.955 259 l 1
385.596 752 m 1x18
 376.834 736 l 1
 274.635 802 l 1
 172.436 736 l 1
 165.135 752 l 1
 275.365 869 l 1
 385.596 752 l 1x18
EndSplineSet
Position2: "'cpsp' Capital Spacing lookup 0 subtable" dx=5 dy=0 dh=10 dv=0
EndChar

StartChar: acircumflex
Encoding: 226 226 144
Width: 550
Flags: HMW
HStem: -11 22<192 239 192 242.5> -6 31<423 429> 288 90 426 22<211.5 252> 516 21G<128.5 128.5 406.5 406.5> 672 20G<267.5 267.5>
VStem: 49.5 77<71 117> 333.5 69<140 240 240 240 261 275> 475.5 25<89 145>
LayerCount: 2
Fore
SplineSet
500.5 89 m 2x7380
 500.5 8 439.5 -6 418.5 -6 c 0x4080
 371.5 -6 344.5 36 340.5 76 c 1
 321.5 29 275.5 -11 209.5 -11 c 0x80
 146.5 -11 49.5 14 49.5 95 c 0
 49.5 139 74.5 191 149.5 225 c 1
 212.5 255 282.5 258 333.5 261 c 1
 333.5 298 l 2
 333.5 387 276.5 426 227.5 426 c 0
 195.5 426 146.5 415 119.5 380 c 1
 165.5 379 170.5 346 170.5 334 c 0
 170.5 308 152.5 288 124.5 288 c 0
 98.5 288 78.5 305 78.5 335 c 0
 78.5 401 147.5 448 229.5 448 c 0
 277.5 448 327.5 432 366.5 393 c 0
 402.5 356 402.5 317 402.5 275 c 2
 402.5 75 l 2
 402.5 70 406.5 25 439.5 25 c 0
 450.5 25 475.5 31 475.5 89 c 2
 475.5 145 l 1
 500.5 145 l 1
 500.5 89 l 2x7380
333.5 140 m 2
 333.5 240 l 1
 168.5 234 126.5 151 126.5 96 c 0
 126.5 46 167.5 11 216.5 11 c 0x83
 261.5 11 333.5 45 333.5 140 c 2
419.5 530 m 1x0c
 406.5 516 l 1
 267.5 624 l 1
 128.5 516 l 1
 115.5 530 l 1
 267.5 692 l 1
 419.5 530 l 1x0c
EndSplineSet
EndChar

StartChar: Acircumflexacute
Encoding: 7844 7844 145
Width: 550
Flags: HMW
HStem: 0 31<-67.5 -67.5> 228 31<133.5 358.5 133.5 369.5 122.5 358.5> 696 20G<251.5 283.5 267.5 298.5> 736 21G<134.5 134.5 414.5 414.5> 1032 20G<337.5 354.5>
LayerCount: 2
Fore
SplineSet
617.5 0 m 1
 486.5 3 l 2
 448.5 3 378.5 3 342.5 0 c 1
 342.5 31 l 1
 369.5 31 425.5 31 425.5 61 c 0
 425.5 65 423.5 71 422.5 75 c 2
 369.5 228 l 1
 122.5 228 l 1
 76.5 97 l 2
 75.5 95 74.5 85 74.5 82 c 0
 74.5 56 99.5 31 149.5 31 c 1
 149.5 0 l 1
 34.5 3 l 1
 -67.5 0 l 1
 -67.5 31 l 1
 -13.5 32 26.5 47 44.5 98 c 2
 251.5 696 l 2
 256.5 710 259.5 716 275.5 716 c 0
 291.5 716 293.5 709 298.5 696 c 2
 514.5 71 l 2
 525.5 38 539.5 31 599.5 31 c 2
 617.5 31 l 1
 617.5 0 l 1
358.5 259 m 1
 245.5 584 l 1
 133.5 259 l 1
 358.5 259 l 1
426.5 752 m 1x18
 414.5 736 l 1
 274.5 802 l 1
 134.5 736 l 1
 124.5 752 l 1
 275.5 869 l 1
 426.5 752 l 1x18
378.5 1010 m 0
 376.5 998 367.5 988 356.5 983 c 2
 186.5 889 l 1
 172.5 910 l 1
 317.5 1040 l 2
 321.5 1044 331.5 1052 343.5 1052 c 0
 365.5 1052 382.5 1032 378.5 1010 c 0
EndSplineSet
Position2: "'cpsp' Capital Spacing lookup 0 subtable" dx=7 dy=0 dh=14 dv=0
EndChar

StartChar: acircumflexacute
Encoding: 7845 7845 146
Width: 550
Flags: HMW
HStem: -11 22<192 239 192 242.5> -6 31<423 429> 288 90 426 22<211.5 252> 516 21G<126.5 126.5 406.5 406.5> 812 20G<329.5 346.5>
VStem: 49.5 77<71 117> 333.5 69<140 240 240 240 261 275> 475.5 25<89 145>
LayerCount: 2
Fore
SplineSet
500.5 89 m 2x7380
 500.5 8 439.5 -6 418.5 -6 c 0x4080
 371.5 -6 344.5 36 340.5 76 c 1
 321.5 29 275.5 -11 209.5 -11 c 0x80
 146.5 -11 49.5 14 49.5 95 c 0
 49.5 139 74.5 191 149.5 225 c 1
 212.5 255 282.5 258 333.5 261 c 1
 333.5 298 l 2
 333.5 387 276.5 426 227.5 426 c 0
 195.5 426 146.5 415 119.5 380 c 1
 165.5 379 170.5 346 170.5 334 c 0
 170.5 308 152.5 288 124.5 288 c 0
 98.5 288 78.5 305 78.5 335 c 0
 78.5 401 147.5 448 229.5 448 c 0
 277.5 448 327.5 432 366.5 393 c 0
 402.5 356 402.5 317 402.5 275 c 2
 402.5 75 l 2
 402.5 70 406.5 25 439.5 25 c 0
 450.5 25 475.5 31 475.5 89 c 2
 475.5 145 l 1
 500.5 145 l 1
 500.5 89 l 2x7380
333.5 140 m 2
 333.5 240 l 1
 168.5 234 126.5 151 126.5 96 c 0
 126.5 46 167.5 11 216.5 11 c 0x83
 261.5 11 333.5 45 333.5 140 c 2
418.5 532 m 1x0e
 406.5 516 l 1
 266.5 582 l 1
 126.5 516 l 1
 116.5 532 l 1
 267.5 649 l 1
 418.5 532 l 1x0e
370.5 790 m 0
 368.5 778 359.5 768 348.5 763 c 2
 178.5 669 l 1
 164.5 690 l 1
 309.5 820 l 2
 313.5 824 323.5 832 335.5 832 c 0
 357.5 832 374.5 812 370.5 790 c 0
EndSplineSet
EndChar

StartChar: Acircumflexdotbelow
Encoding: 7852 7852 147
Width: 550
Flags: HMW
HStem: -200 106<259.5 290.5 258.5 291.5> 0 31<-67.5 -67.5> 228 31<133.5 358.5 133.5 369.5 122.5 358.5> 696 20G<251.5 283.5 267.5 298.5> 736 21G<134.5 134.5 414.5 414.5> 849 20G<275.5 275.5>
VStem: 221.5 107<-159.5 -134.5>
LayerCount: 2
Fore
SplineSet
617.5 0 m 1
 486.5 3 l 2
 448.5 3 378.5 3 342.5 0 c 1
 342.5 31 l 1
 369.5 31 425.5 31 425.5 61 c 0
 425.5 65 423.5 71 422.5 75 c 2
 369.5 228 l 1
 122.5 228 l 1
 76.5 97 l 2
 75.5 95 74.5 85 74.5 82 c 0
 74.5 56 99.5 31 149.5 31 c 1
 149.5 0 l 1
 34.5 3 l 1
 -67.5 0 l 1
 -67.5 31 l 1
 -13.5 32 26.5 47 44.5 98 c 2
 251.5 696 l 2
 256.5 710 259.5 716 275.5 716 c 0
 291.5 716 293.5 709 298.5 696 c 2
 514.5 71 l 2
 525.5 38 539.5 31 599.5 31 c 2
 617.5 31 l 1
 617.5 0 l 1
358.5 259 m 1
 245.5 584 l 1
 133.5 259 l 1
 358.5 259 l 1
426.5 752 m 1
 414.5 736 l 1
 274.5 802 l 1
 134.5 736 l 1
 124.5 752 l 1
 275.5 869 l 1
 426.5 752 l 1
328.5 -147 m 0x82
 328.5 -172 308.5 -200 274.5 -200 c 0
 244.5 -200 221.5 -174 221.5 -147 c 0
 221.5 -122 241.5 -94 275.5 -94 c 0
 305.5 -94 328.5 -120 328.5 -147 c 0x82
EndSplineSet
Position2: "'cpsp' Capital Spacing lookup 0 subtable" dx=7 dy=0 dh=14 dv=0
EndChar

StartChar: acircumflexdotbelow
Encoding: 7853 7853 148
Width: 550
Flags: HMW
HStem: -200 106<251.5 282.5 250.5 283.5> -11 22<192 239 192 242.5> -6 31<423 429> 288 90 426 22<211.5 252> 516 21G<128.5 128.5 406.5 406.5> 672 20G<267.5 267.5>
VStem: 49.5 77<71 117> 213.5 107<-159.5 -134.5> 333.5 69<140 240 240 240 261 275> 475.5 25<89 145>
LayerCount: 2
Fore
SplineSet
500.5 89 m 2x3960
 500.5 8 439.5 -6 418.5 -6 c 0x2020
 371.5 -6 344.5 36 340.5 76 c 1
 321.5 29 275.5 -11 209.5 -11 c 0x40
 146.5 -11 49.5 14 49.5 95 c 0
 49.5 139 74.5 191 149.5 225 c 1
 212.5 255 282.5 258 333.5 261 c 1
 333.5 298 l 2
 333.5 387 276.5 426 227.5 426 c 0
 195.5 426 146.5 415 119.5 380 c 1
 165.5 379 170.5 346 170.5 334 c 0
 170.5 308 152.5 288 124.5 288 c 0
 98.5 288 78.5 305 78.5 335 c 0
 78.5 401 147.5 448 229.5 448 c 0
 277.5 448 327.5 432 366.5 393 c 0
 402.5 356 402.5 317 402.5 275 c 2
 402.5 75 l 2
 402.5 70 406.5 25 439.5 25 c 0
 450.5 25 475.5 31 475.5 89 c 2
 475.5 145 l 1
 500.5 145 l 1
 500.5 89 l 2x3960
333.5 140 m 2
 333.5 240 l 1
 168.5 234 126.5 151 126.5 96 c 0
 126.5 46 167.5 11 216.5 11 c 0x4740
 261.5 11 333.5 45 333.5 140 c 2
419.5 530 m 1
 406.5 516 l 1
 267.5 624 l 1
 128.5 516 l 1
 115.5 530 l 1
 267.5 692 l 1
 419.5 530 l 1
320.5 -147 m 0x8080
 320.5 -172 300.5 -200 266.5 -200 c 0
 236.5 -200 213.5 -174 213.5 -147 c 0
 213.5 -122 233.5 -94 267.5 -94 c 0
 297.5 -94 320.5 -120 320.5 -147 c 0x8080
EndSplineSet
EndChar

StartChar: Acircumflexgrave
Encoding: 7846 7846 149
Width: 550
Flags: HMW
HStem: 0 31<-67.5 -67.5> 228 31<133.5 358.5 133.5 369.5 122.5 358.5> 696 20G<251.5 283.5 267.5 298.5> 736 21G<134.5 134.5 414.5 414.5> 849 20G<275.5 275.5>
LayerCount: 2
Fore
SplineSet
617.5 0 m 1
 486.5 3 l 2
 448.5 3 378.5 3 342.5 0 c 1
 342.5 31 l 1
 369.5 31 425.5 31 425.5 61 c 0
 425.5 65 423.5 71 422.5 75 c 2
 369.5 228 l 1
 122.5 228 l 1
 76.5 97 l 2
 75.5 95 74.5 85 74.5 82 c 0
 74.5 56 99.5 31 149.5 31 c 1
 149.5 0 l 1
 34.5 3 l 1
 -67.5 0 l 1
 -67.5 31 l 1
 -13.5 32 26.5 47 44.5 98 c 2
 251.5 696 l 2
 256.5 710 259.5 716 275.5 716 c 0
 291.5 716 293.5 709 298.5 696 c 2
 514.5 71 l 2
 525.5 38 539.5 31 599.5 31 c 2
 617.5 31 l 1
 617.5 0 l 1
358.5 259 m 1
 245.5 584 l 1
 133.5 259 l 1
 358.5 259 l 1
426.5 752 m 1x18
 414.5 736 l 1
 274.5 802 l 1
 134.5 736 l 1
 124.5 752 l 1
 275.5 869 l 1
 426.5 752 l 1x18
378.5 910 m 1
 233.5 1040 l 2
 229.5 1044 219.5 1052 207.5 1052 c 0
 185.5 1052 168.5 1032 172.5 1010 c 0
 174.5 998 183.5 988 194.5 983 c 2
 364.5 889 l 1
 378.5 910 l 1
EndSplineSet
Position2: "'cpsp' Capital Spacing lookup 0 subtable" dx=7 dy=0 dh=14 dv=0
EndChar

StartChar: acircumflexgrave
Encoding: 7847 7847 150
Width: 550
Flags: HMW
HStem: -11 22<192 239 192 242.5> -6 31<423 429> 288 90 426 22<211.5 252> 516 21G<126.5 126.5 406.5 406.5> 629 20G<267.5 267.5>
VStem: 49.5 77<71 117> 333.5 69<140 240 240 240 261 275> 475.5 25<89 145>
LayerCount: 2
Fore
SplineSet
500.5 89 m 2x7380
 500.5 8 439.5 -6 418.5 -6 c 0x4080
 371.5 -6 344.5 36 340.5 76 c 1
 321.5 29 275.5 -11 209.5 -11 c 0x80
 146.5 -11 49.5 14 49.5 95 c 0
 49.5 139 74.5 191 149.5 225 c 1
 212.5 255 282.5 258 333.5 261 c 1
 333.5 298 l 2
 333.5 387 276.5 426 227.5 426 c 0
 195.5 426 146.5 415 119.5 380 c 1
 165.5 379 170.5 346 170.5 334 c 0
 170.5 308 152.5 288 124.5 288 c 0
 98.5 288 78.5 305 78.5 335 c 0
 78.5 401 147.5 448 229.5 448 c 0
 277.5 448 327.5 432 366.5 393 c 0
 402.5 356 402.5 317 402.5 275 c 2
 402.5 75 l 2
 402.5 70 406.5 25 439.5 25 c 0
 450.5 25 475.5 31 475.5 89 c 2
 475.5 145 l 1
 500.5 145 l 1
 500.5 89 l 2x7380
333.5 140 m 2
 333.5 240 l 1
 168.5 234 126.5 151 126.5 96 c 0
 126.5 46 167.5 11 216.5 11 c 0x83
 261.5 11 333.5 45 333.5 140 c 2
418.5 532 m 1x0e
 406.5 516 l 1
 266.5 582 l 1
 126.5 516 l 1
 116.5 532 l 1
 267.5 649 l 1
 418.5 532 l 1x0e
370.5 690 m 1
 225.5 820 l 2
 221.5 824 211.5 832 199.5 832 c 0
 177.5 832 160.5 812 164.5 790 c 0
 166.5 778 175.5 768 186.5 763 c 2
 356.5 669 l 1
 370.5 690 l 1
EndSplineSet
EndChar

StartChar: Acircumflexhookabove
Encoding: 7848 7848 151
Width: 550
Flags: HMW
HStem: 0 31<-67.5 -67.5> 228 31<133.5 358.5 133.5 369.5 122.5 358.5> 696 20G<251.5 283.5 267.5 298.5> 736 21G<134.5 134.5 414.5 414.5> 1058 20G<342 380>
LayerCount: 2
Fore
SplineSet
617.5 0 m 1
 486.5 3 l 2
 448.5 3 378.5 3 342.5 0 c 1
 342.5 31 l 1
 369.5 31 425.5 31 425.5 61 c 0
 425.5 65 423.5 71 422.5 75 c 2
 369.5 228 l 1
 122.5 228 l 1
 76.5 97 l 2
 75.5 95 74.5 85 74.5 82 c 0
 74.5 56 99.5 31 149.5 31 c 1
 149.5 0 l 1
 34.5 3 l 1
 -67.5 0 l 1
 -67.5 31 l 1
 -13.5 32 26.5 47 44.5 98 c 2
 251.5 696 l 2
 256.5 710 259.5 716 275.5 716 c 0
 291.5 716 293.5 709 298.5 696 c 2
 514.5 71 l 2
 525.5 38 539.5 31 599.5 31 c 2
 617.5 31 l 1
 617.5 0 l 1
358.5 259 m 1
 245.5 584 l 1
 133.5 259 l 1
 358.5 259 l 1
426.5 752 m 1x18
 414.5 736 l 1
 274.5 802 l 1
 134.5 736 l 1
 124.5 752 l 1
 275.5 869 l 1
 426.5 752 l 1x18
469.5 1011 m 0
 469.5 992 457.5 976 439.5 968 c 0
 399.5 948 375.5 926 375.5 898 c 2
 375.5 879 l 2
 375.5 873 371.5 869 365.5 869 c 0
 360.5 869 355.5 873 355.5 879 c 2
 355.5 898 l 2
 355.5 931 375.5 961 403.5 984 c 0
 411.5 990 415.5 1000 415.5 1011 c 0
 415.5 1030 414.5 1040 407.5 1046 c 0
 396.5 1056 380.5 1059 365.5 1059 c 0
 342.5 1059 322.5 1052 309.5 1041 c 1
 323.5 1039 334.5 1028 334.5 1011 c 0
 334.5 993 320.5 982 305.5 982 c 0
 289.5 982 275.5 993 275.5 1012 c 0
 275.5 1053 318.5 1078 365.5 1078 c 0
 394.5 1078 419.5 1074 440.5 1062 c 0
 458.5 1051 469.5 1032 469.5 1011 c 0
EndSplineSet
Position2: "'cpsp' Capital Spacing lookup 0 subtable" dx=7 dy=0 dh=14 dv=0
EndChar

StartChar: acircumflexhookabove
Encoding: 7849 7849 152
Width: 550
Flags: HMW
HStem: -11 22<192 239 192 242.5> -6 31<423 429> 288 90 426 22<211.5 252> 516 21G<126.5 126.5 406.5 406.5> 838 20G<334 372>
VStem: 49.5 77<71 117> 333.5 69<140 240 240 240 261 275> 475.5 25<89 145>
LayerCount: 2
Fore
SplineSet
500.5 89 m 2x7380
 500.5 8 439.5 -6 418.5 -6 c 0x4080
 371.5 -6 344.5 36 340.5 76 c 1
 321.5 29 275.5 -11 209.5 -11 c 0x80
 146.5 -11 49.5 14 49.5 95 c 0
 49.5 139 74.5 191 149.5 225 c 1
 212.5 255 282.5 258 333.5 261 c 1
 333.5 298 l 2
 333.5 387 276.5 426 227.5 426 c 0
 195.5 426 146.5 415 119.5 380 c 1
 165.5 379 170.5 346 170.5 334 c 0
 170.5 308 152.5 288 124.5 288 c 0
 98.5 288 78.5 305 78.5 335 c 0
 78.5 401 147.5 448 229.5 448 c 0
 277.5 448 327.5 432 366.5 393 c 0
 402.5 356 402.5 317 402.5 275 c 2
 402.5 75 l 2
 402.5 70 406.5 25 439.5 25 c 0
 450.5 25 475.5 31 475.5 89 c 2
 475.5 145 l 1
 500.5 145 l 1
 500.5 89 l 2x7380
333.5 140 m 2
 333.5 240 l 1
 168.5 234 126.5 151 126.5 96 c 0
 126.5 46 167.5 11 216.5 11 c 0x83
 261.5 11 333.5 45 333.5 140 c 2
418.5 532 m 1x0e
 406.5 516 l 1
 266.5 582 l 1
 126.5 516 l 1
 116.5 532 l 1
 267.5 649 l 1
 418.5 532 l 1x0e
461.5 791 m 0
 461.5 772 449.5 756 431.5 748 c 0
 391.5 728 367.5 706 367.5 678 c 2
 367.5 659 l 2
 367.5 653 363.5 649 357.5 649 c 0
 352.5 649 347.5 653 347.5 659 c 2
 347.5 678 l 2
 347.5 711 367.5 741 395.5 764 c 0
 403.5 770 407.5 780 407.5 791 c 0
 407.5 810 406.5 820 399.5 826 c 0
 388.5 836 372.5 839 357.5 839 c 0
 334.5 839 314.5 832 301.5 821 c 1
 315.5 819 326.5 808 326.5 791 c 0
 326.5 773 312.5 762 297.5 762 c 0
 281.5 762 267.5 773 267.5 792 c 0
 267.5 833 310.5 858 357.5 858 c 0
 386.5 858 411.5 854 432.5 842 c 0
 450.5 831 461.5 812 461.5 791 c 0
EndSplineSet
EndChar

StartChar: Acircumflextilde
Encoding: 7850 7850 153
Width: 550
Flags: HMW
HStem: 0 31<-67.5 -67.5> 228 31<133.5 358.5 133.5 369.5 122.5 358.5> 696 20G<251.5 283.5 267.5 298.5> 736 21G<134.5 134.5 414.5 414.5> 909 45<333 353.5> 957 45<198.5 219>
LayerCount: 2
Fore
SplineSet
617.5 0 m 1
 486.5 3 l 2
 448.5 3 378.5 3 342.5 0 c 1
 342.5 31 l 1
 369.5 31 425.5 31 425.5 61 c 0
 425.5 65 423.5 71 422.5 75 c 2
 369.5 228 l 1
 122.5 228 l 1
 76.5 97 l 2
 75.5 95 74.5 85 74.5 82 c 0
 74.5 56 99.5 31 149.5 31 c 1
 149.5 0 l 1
 34.5 3 l 1
 -67.5 0 l 1
 -67.5 31 l 1
 -13.5 32 26.5 47 44.5 98 c 2
 251.5 696 l 2
 256.5 710 259.5 716 275.5 716 c 0
 291.5 716 293.5 709 298.5 696 c 2
 514.5 71 l 2
 525.5 38 539.5 31 599.5 31 c 2
 617.5 31 l 1
 617.5 0 l 1
358.5 259 m 1
 245.5 584 l 1
 133.5 259 l 1
 358.5 259 l 1
426.5 752 m 1x1c
 414.5 736 l 1
 274.5 802 l 1
 134.5 736 l 1
 124.5 752 l 1
 275.5 869 l 1
 426.5 752 l 1x1c
442.5 987 m 1
 391.5 931 372.5 909 334.5 909 c 0
 317.5 909 299.5 916 272.5 932 c 0
 255.5 942 230.5 957 207.5 957 c 0
 163.5 957 125.5 909 125.5 909 c 1
 109.5 924 l 1
 160.5 980 179.5 1002 217.5 1002 c 0
 234.5 1002 252.5 995 279.5 979 c 0
 296.5 969 321.5 954 344.5 954 c 0
 388.5 954 426.5 1002 426.5 1002 c 1
 442.5 987 l 1
EndSplineSet
Position2: "'cpsp' Capital Spacing lookup 0 subtable" dx=7 dy=0 dh=14 dv=0
EndChar

StartChar: acircumflextilde
Encoding: 7851 7851 154
Width: 550
Flags: HMW
HStem: -11 22<192 239 192 242.5> -6 31<423 429> 288 90 426 22<211.5 252> 516 21G<126.5 126.5 406.5 406.5> 689 45<325 345.5> 737 45<190.5 211>
VStem: 49.5 77<71 117> 333.5 69<140 240 240 240 261 275> 475.5 25<89 145>
LayerCount: 2
Fore
SplineSet
500.5 89 m 2x71c0
 500.5 8 439.5 -6 418.5 -6 c 0x4040
 371.5 -6 344.5 36 340.5 76 c 1
 321.5 29 275.5 -11 209.5 -11 c 0x80
 146.5 -11 49.5 14 49.5 95 c 0
 49.5 139 74.5 191 149.5 225 c 1
 212.5 255 282.5 258 333.5 261 c 1
 333.5 298 l 2
 333.5 387 276.5 426 227.5 426 c 0
 195.5 426 146.5 415 119.5 380 c 1
 165.5 379 170.5 346 170.5 334 c 0
 170.5 308 152.5 288 124.5 288 c 0
 98.5 288 78.5 305 78.5 335 c 0
 78.5 401 147.5 448 229.5 448 c 0
 277.5 448 327.5 432 366.5 393 c 0
 402.5 356 402.5 317 402.5 275 c 2
 402.5 75 l 2
 402.5 70 406.5 25 439.5 25 c 0
 450.5 25 475.5 31 475.5 89 c 2
 475.5 145 l 1
 500.5 145 l 1
 500.5 89 l 2x71c0
333.5 140 m 2
 333.5 240 l 1
 168.5 234 126.5 151 126.5 96 c 0
 126.5 46 167.5 11 216.5 11 c 0x8180
 261.5 11 333.5 45 333.5 140 c 2
418.5 532 m 1x0f
 406.5 516 l 1
 266.5 582 l 1
 126.5 516 l 1
 116.5 532 l 1
 267.5 649 l 1
 418.5 532 l 1x0f
434.5 767 m 1
 383.5 711 364.5 689 326.5 689 c 0
 309.5 689 291.5 696 264.5 712 c 0
 247.5 722 222.5 737 199.5 737 c 0
 155.5 737 117.5 689 117.5 689 c 1
 101.5 704 l 1
 152.5 760 171.5 782 209.5 782 c 0
 226.5 782 244.5 775 271.5 759 c 0
 288.5 749 313.5 734 336.5 734 c 0
 380.5 734 418.5 782 418.5 782 c 1
 434.5 767 l 1
EndSplineSet
EndChar

StartChar: acute
Encoding: 180 180 155
Width: 550
Flags: HMW
HStem: 510 21G<199 199> 678 20G<324.5 341>
LayerCount: 2
Fore
SplineSet
368 662 m 0
 368 650 360 639 351 632 c 2
 199 510 l 1
 182 528 l 1
 302 681 l 2
 306 687 317 698 332 698 c 0
 350 698 368 680 368 662 c 0
EndSplineSet
EndChar

StartChar: uni0301
Encoding: 769 769 156
Width: 550
Flags: HMW
HStem: 510 21G<199 199> 678 20G<324.5 341>
LayerCount: 2
Fore
SplineSet
368 662 m 0
 368 650 360 639 351 632 c 2
 199 510 l 1
 182 528 l 1
 302 681 l 2
 306 687 317 698 332 698 c 0
 350 698 368 680 368 662 c 0
EndSplineSet
EndChar

StartChar: Adblgrave
Encoding: 512 512 157
Width: 550
Flags: HMW
HStem: 0 31<-67.5 -67.5> 228 31<133.5 358.5 133.5 369.5 122.5 358.5> 696 20G<251.5 283.5 267.5 298.5> 746 21G<181.5 181.5 348.5 348.5> 912 20G<105 126 272 293>
LayerCount: 2
Fore
SplineSet
617.5 0 m 1
 486.5 3 l 2
 448.5 3 378.5 3 342.5 0 c 1
 342.5 31 l 1
 369.5 31 425.5 31 425.5 61 c 0
 425.5 65 423.5 71 422.5 75 c 2
 369.5 228 l 1
 122.5 228 l 1
 76.5 97 l 2
 75.5 95 74.5 85 74.5 82 c 0
 74.5 56 99.5 31 149.5 31 c 1
 149.5 0 l 1
 34.5 3 l 1
 -67.5 0 l 1
 -67.5 31 l 1
 -13.5 32 26.5 47 44.5 98 c 2
 251.5 696 l 2
 256.5 710 259.5 716 275.5 716 c 0
 291.5 716 293.5 709 298.5 696 c 2
 514.5 71 l 2
 525.5 38 539.5 31 599.5 31 c 2
 617.5 31 l 1
 617.5 0 l 1
358.5 259 m 1
 245.5 584 l 1
 133.5 259 l 1
 358.5 259 l 1
369.5 758 m 1x18
 365.5 755 350.5 747 348.5 746 c 1
 256.5 872 l 2
 247.5 884 244.5 888 244.5 898 c 0
 244.5 916 262.5 932 281.5 932 c 0
 304.5 932 310.5 915 315.5 903 c 2
 369.5 758 l 1x18
202.5 758 m 1
 198.5 755 183.5 747 181.5 746 c 1
 89.5 872 l 2
 80.5 884 77.5 888 77.5 898 c 0
 77.5 916 95.5 932 114.5 932 c 0
 137.5 932 143.5 915 148.5 903 c 2
 202.5 758 l 1
EndSplineSet
Position2: "'cpsp' Capital Spacing lookup 0 subtable" dx=7 dy=0 dh=14 dv=0
EndChar

StartChar: adblgrave
Encoding: 513 513 158
Width: 550
Flags: HMW
HStem: -11 22<192 239 192 242.5> -6 31<423 429> 288 90 426 22<211.5 252> 511 21G<201.5 201.5 368.5 368.5> 677 20G<125 146 292 313>
VStem: 49.5 77<71 117> 333.5 69<140 240 240 240 261 275> 475.5 25<89 145>
LayerCount: 2
Fore
SplineSet
500.5 89 m 2x7380
 500.5 8 439.5 -6 418.5 -6 c 0x4080
 371.5 -6 344.5 36 340.5 76 c 1
 321.5 29 275.5 -11 209.5 -11 c 0x80
 146.5 -11 49.5 14 49.5 95 c 0
 49.5 139 74.5 191 149.5 225 c 1
 212.5 255 282.5 258 333.5 261 c 1
 333.5 298 l 2
 333.5 387 276.5 426 227.5 426 c 0
 195.5 426 146.5 415 119.5 380 c 1
 165.5 379 170.5 346 170.5 334 c 0
 170.5 308 152.5 288 124.5 288 c 0
 98.5 288 78.5 305 78.5 335 c 0
 78.5 401 147.5 448 229.5 448 c 0
 277.5 448 327.5 432 366.5 393 c 0
 402.5 356 402.5 317 402.5 275 c 2
 402.5 75 l 2
 402.5 70 406.5 25 439.5 25 c 0
 450.5 25 475.5 31 475.5 89 c 2
 475.5 145 l 1
 500.5 145 l 1
 500.5 89 l 2x7380
333.5 140 m 2
 333.5 240 l 1
 168.5 234 126.5 151 126.5 96 c 0
 126.5 46 167.5 11 216.5 11 c 0x83
 261.5 11 333.5 45 333.5 140 c 2
389.5 523 m 1x0c
 385.5 520 370.5 512 368.5 511 c 1
 276.5 637 l 2
 267.5 649 264.5 653 264.5 663 c 0
 264.5 681 282.5 697 301.5 697 c 0
 324.5 697 330.5 680 335.5 668 c 2
 389.5 523 l 1x0c
222.5 523 m 1
 218.5 520 203.5 512 201.5 511 c 1
 109.5 637 l 2
 100.5 649 97.5 653 97.5 663 c 0
 97.5 681 115.5 697 134.5 697 c 0
 157.5 697 163.5 680 168.5 668 c 2
 222.5 523 l 1
EndSplineSet
EndChar

StartChar: Adieresis
Encoding: 196 196 159
Width: 550
Flags: HMW
HStem: 0 31<24.9747 24.9747> 228 31<171.705 335.955 171.705 343.985 163.675 335.955> 696 20G<257.845 281.205 269.525 292.155> 736 95<188.86 209.3 188.13 210.03 342.16 362.6>
VStem: 163.675 70.81<772.5 795> 316.975 70.81<772.5 795>
LayerCount: 2
Fore
SplineSet
525.025 0 m 1
 429.395 3 l 2
 401.654 3 350.555 3 324.275 0 c 1
 324.275 31 l 1
 343.984 31 384.865 31 384.865 61 c 0
 384.865 65 383.404 71 382.674 75 c 2
 343.984 228 l 1
 163.674 228 l 1
 130.096 97 l 2
 129.365 95 128.635 85 128.635 82 c 0
 128.635 56 146.885 31 183.385 31 c 1
 183.385 0 l 1
 99.4355 3 l 1
 24.9746 0 l 1
 24.9746 31 l 1
 64.3945 32 93.5957 47 106.734 98 c 2
 257.846 696 l 2
 261.494 710 263.686 716 275.365 716 c 0
 287.045 716 288.504 709 292.154 696 c 2
 449.834 71 l 2
 457.865 38 468.084 31 511.885 31 c 2
 525.025 31 l 1
 525.025 0 l 1
335.955 259 m 1
 253.465 584 l 1
 171.705 259 l 1
 335.955 259 l 1
234.484 784 m 0x1c
 234.484 761 221.346 736 198.715 736 c 0
 179.004 736 163.674 759 163.674 784 c 0
 163.674 806 176.814 831 199.445 831 c 0
 219.154 831 234.484 808 234.484 784 c 0x1c
387.785 784 m 0
 387.785 761 374.645 736 352.016 736 c 0
 332.305 736 316.975 759 316.975 784 c 0
 316.975 806 330.115 831 352.744 831 c 0
 372.455 831 387.785 808 387.785 784 c 0
EndSplineSet
Position2: "'cpsp' Capital Spacing lookup 0 subtable" dx=5 dy=0 dh=10 dv=0
EndChar

StartChar: adieresis
Encoding: 228 228 160
Width: 550
Flags: HMW
HStem: -11 22<192 239 192 242.5> -6 31<423 429> 288 90 426 22<211.5 252> 557 95<165 193 164 194 343 371>
VStem: 49.5 77<71 117> 130.5 97<593.5 616> 308.5 97<593.5 616> 333.5 69<140 240 240 240 261 275> 475.5 25<89 145>
LayerCount: 2
Fore
SplineSet
500.5 89 m 2x76c0
 500.5 8 439.5 -6 418.5 -6 c 0x4040
 371.5 -6 344.5 36 340.5 76 c 1
 321.5 29 275.5 -11 209.5 -11 c 0x80
 146.5 -11 49.5 14 49.5 95 c 0
 49.5 139 74.5 191 149.5 225 c 1
 212.5 255 282.5 258 333.5 261 c 1
 333.5 298 l 2
 333.5 387 276.5 426 227.5 426 c 0
 195.5 426 146.5 415 119.5 380 c 1
 165.5 379 170.5 346 170.5 334 c 0
 170.5 308 152.5 288 124.5 288 c 0
 98.5 288 78.5 305 78.5 335 c 0
 78.5 401 147.5 448 229.5 448 c 0
 277.5 448 327.5 432 366.5 393 c 0
 402.5 356 402.5 317 402.5 275 c 2
 402.5 75 l 2
 402.5 70 406.5 25 439.5 25 c 0
 450.5 25 475.5 31 475.5 89 c 2
 475.5 145 l 1
 500.5 145 l 1
 500.5 89 l 2x76c0
333.5 140 m 2
 333.5 240 l 1
 168.5 234 126.5 151 126.5 96 c 0
 126.5 46 167.5 11 216.5 11 c 0x8480
 261.5 11 333.5 45 333.5 140 c 2
227.5 605 m 0x0b
 227.5 582 209.5 557 178.5 557 c 0
 151.5 557 130.5 580 130.5 605 c 0
 130.5 627 148.5 652 179.5 652 c 0
 206.5 652 227.5 629 227.5 605 c 0x0b
405.5 605 m 0
 405.5 582 387.5 557 356.5 557 c 0
 329.5 557 308.5 580 308.5 605 c 0
 308.5 627 326.5 652 357.5 652 c 0
 384.5 652 405.5 629 405.5 605 c 0
EndSplineSet
EndChar

StartChar: Adotbelow
Encoding: 7840 7840 161
Width: 550
Flags: HMW
HStem: -200 106<259.5 290.5 258.5 291.5> 0 31<-67.5 -67.5> 228 31<133.5 358.5 133.5 369.5 122.5 358.5> 696 20G<251.5 283.5 267.5 298.5>
VStem: 221.5 107<-159.5 -134.5>
LayerCount: 2
Fore
SplineSet
617.5 0 m 1
 486.5 3 l 2
 448.5 3 378.5 3 342.5 0 c 1
 342.5 31 l 1
 369.5 31 425.5 31 425.5 61 c 0
 425.5 65 423.5 71 422.5 75 c 2
 369.5 228 l 1
 122.5 228 l 1
 76.5 97 l 2
 75.5 95 74.5 85 74.5 82 c 0
 74.5 56 99.5 31 149.5 31 c 1
 149.5 0 l 1
 34.5 3 l 1
 -67.5 0 l 1
 -67.5 31 l 1
 -13.5 32 26.5 47 44.5 98 c 2
 251.5 696 l 2
 256.5 710 259.5 716 275.5 716 c 0
 291.5 716 293.5 709 298.5 696 c 2
 514.5 71 l 2
 525.5 38 539.5 31 599.5 31 c 2
 617.5 31 l 1
 617.5 0 l 1
358.5 259 m 1
 245.5 584 l 1
 133.5 259 l 1
 358.5 259 l 1
328.5 -147 m 0x88
 328.5 -172 308.5 -200 274.5 -200 c 0
 244.5 -200 221.5 -174 221.5 -147 c 0
 221.5 -122 241.5 -94 275.5 -94 c 0
 305.5 -94 328.5 -120 328.5 -147 c 0x88
EndSplineSet
Position2: "'cpsp' Capital Spacing lookup 0 subtable" dx=7 dy=0 dh=14 dv=0
EndChar

StartChar: adotbelow
Encoding: 7841 7841 162
Width: 550
Flags: HMW
HStem: -200 106<251.5 282.5 250.5 283.5> -11 22<192 239 192 242.5> -6 31<423 429> 288 90 426 22<211.5 252>
VStem: 49.5 77<71 117> 213.5 107<-159.5 -134.5> 333.5 69<140 240 240 240 261 275> 475.5 25<89 145>
LayerCount: 2
Fore
SplineSet
500.5 89 m 2x3d80
 500.5 8 439.5 -6 418.5 -6 c 0x2080
 371.5 -6 344.5 36 340.5 76 c 1
 321.5 29 275.5 -11 209.5 -11 c 0x40
 146.5 -11 49.5 14 49.5 95 c 0
 49.5 139 74.5 191 149.5 225 c 1
 212.5 255 282.5 258 333.5 261 c 1
 333.5 298 l 2
 333.5 387 276.5 426 227.5 426 c 0
 195.5 426 146.5 415 119.5 380 c 1
 165.5 379 170.5 346 170.5 334 c 0
 170.5 308 152.5 288 124.5 288 c 0
 98.5 288 78.5 305 78.5 335 c 0
 78.5 401 147.5 448 229.5 448 c 0
 277.5 448 327.5 432 366.5 393 c 0
 402.5 356 402.5 317 402.5 275 c 2
 402.5 75 l 2
 402.5 70 406.5 25 439.5 25 c 0
 450.5 25 475.5 31 475.5 89 c 2
 475.5 145 l 1
 500.5 145 l 1
 500.5 89 l 2x3d80
333.5 140 m 2
 333.5 240 l 1
 168.5 234 126.5 151 126.5 96 c 0
 126.5 46 167.5 11 216.5 11 c 0x45
 261.5 11 333.5 45 333.5 140 c 2
320.5 -147 m 0x82
 320.5 -172 300.5 -200 266.5 -200 c 0
 236.5 -200 213.5 -174 213.5 -147 c 0
 213.5 -122 233.5 -94 267.5 -94 c 0
 297.5 -94 320.5 -120 320.5 -147 c 0x82
EndSplineSet
EndChar

StartChar: AE
Encoding: 198 198 163
Width: 550
Flags: HMW
HStem: 0 31<-32.3299 -6.77994 191.78 215.87 344.35 413.7 413.7 475.02> 313 31<138.49 247.99 138.49 247.99 130.46 247.99 308.58 370.63> 652 31<132.65 165.5 132.65 541.45 327.195 344.35 344.35 413.7>
VStem: 72.0601 60.59 247.99 60.59<76 313 344 604 604 612> 445.82 18.25<196 238 419 461> 543.64 18.25<458 458> 564.08 18.25<258 258>
LayerCount: 2
Fore
SplineSet
582.33 258 m 1
 551.67 0 l 1
 191.779 0 l 1
 191.779 31 l 1
 239.961 31 247.99 31 247.99 76 c 2
 247.99 313 l 1
 130.461 313 l 1
 75.7109 103 l 2
 72.0605 90 72.0605 89 72.0605 81 c 0
 72.0605 56 89.5801 32 126.08 31 c 1
 126.08 0 l 1
 42.1309 3 l 1
 12.9297 3 -16.2695 1 -32.3301 0 c 1
 -32.3301 31 l 1
 18.7695 31 39.9395 59 50.1602 98 c 2
 194.699 651 l 1
 185.211 651 174.99 652 165.5 652 c 2
 132.65 652 l 1
 132.65 683 l 1
 541.449 683 l 1
 561.891 458 l 1
 543.641 458 l 1
 531.961 594 517.359 652 413.699 652 c 2
 344.35 652 l 2
 310.041 652 308.58 645 308.58 612 c 2
 308.58 344 l 1
 370.631 344 l 2
 439.25 344 445.82 377 445.82 461 c 1
 464.07 461 l 1
 464.07 196 l 1
 445.82 196 l 1
 445.82 280 439.25 313 370.631 313 c 2
 308.58 313 l 1
 308.58 71 l 2
 308.58 38 310.041 31 344.35 31 c 2
 413.699 31 l 2
 536.34 31 545.83 110 564.08 258 c 1
 582.33 258 l 1
247.99 344 m 1
 247.99 604 l 2
 247.99 620 247.99 647 218.061 648 c 1
 138.49 344 l 1
 247.99 344 l 1
EndSplineSet
Position2: "'cpsp' Capital Spacing lookup 0 subtable" dx=5 dy=0 dh=10 dv=0
EndChar

StartChar: ae
Encoding: 230 230 164
Width: 550
Flags: HMW
HStem: -11 22<91.5 150.5> 111 21 132 22 229 21<232 232> 231 21<302 533 302 574 301 533> 288 93 426 22<108 151.5 413 478.5>
VStem: -49 77<68.5 119 68.5 140> 69 57 244 57<122.5 133.5> 533 66<252 252>
LayerCount: 2
Fore
SplineSet
599 119 m 0x4ee0
 599 100 557 -11 444 -11 c 0
 414 -11 336 -3 277 78 c 1
 253 29 191 -11 110 -11 c 0
 43 -11 -49 13 -49 92 c 0
 -49 188 70 250 232 250 c 1x9120
 232 298 l 2
 232 385 177 426 126 426 c 0
 90 426 43 412 18 380 c 1
 64 379 69 346 69 334 c 0
 69 308 51 288 23 288 c 0
 -3 288 -23 305 -23 335 c 0
 -23 402 48 448 128 448 c 0
 192 448 252 419 281 371 c 1
 332 432 388 448 432 448 c 0
 541 448 599 363 599 252 c 0
 599 231 596 231 574 231 c 2
 301 231 l 1
 301 14 438 14 448 14 c 0
 510 14 556 61 571 111 c 0
 576 127 577 131 586 131 c 0
 591 131 599 129 599 119 c 0x4ee0
533 252 m 1
 531 291 526 426 431 426 c 0
 395 426 312 398 302 252 c 1x8b20
 533 252 l 1
244 132 m 0
 244 135 244 143 241 154 c 0
 232 185 232 205 232 229 c 1x3040
 70 223 28 146 28 92 c 0
 28 45 68 11 115 11 c 0
 187 11 244 68 244 132 c 0
EndSplineSet
EndChar

StartChar: AEacute
Encoding: 508 508 165
Width: 550
Flags: HMW
HStem: 0 31<-146 -111 161 194 370 465 465 549> 313 31<88 238 88 238 77 238 321 406> 652 31<80 125 80 640 346.5 370 370 465> 746 21G<204 218> 889 20G<369 386>
VStem: -3 83 238 83<76 313 344 604 604 612> 509 25<196 238 419 461> 643 25<458 458> 671 25<258 258>
LayerCount: 2
Fore
SplineSet
696 258 m 1
 654 0 l 1
 161 0 l 1
 161 31 l 1
 227 31 238 31 238 76 c 2
 238 313 l 1
 77 313 l 1
 2 103 l 2
 -3 90 -3 89 -3 81 c 0
 -3 56 21 32 71 31 c 1
 71 0 l 1
 -44 3 l 1
 -84 3 -124 1 -146 0 c 1
 -146 31 l 1
 -76 31 -47 59 -33 98 c 2
 165 651 l 1
 152 651 138 652 125 652 c 2
 80 652 l 1
 80 683 l 1
 640 683 l 1
 668 458 l 1
 643 458 l 1
 627 594 607 652 465 652 c 2
 370 652 l 2
 323 652 321 645 321 612 c 2
 321 344 l 1
 406 344 l 2
 500 344 509 377 509 461 c 1
 534 461 l 1
 534 196 l 1
 509 196 l 1
 509 280 500 313 406 313 c 2
 321 313 l 1
 321 71 l 2
 321 38 323 31 370 31 c 2
 465 31 l 2
 633 31 646 110 671 258 c 1
 696 258 l 1
238 344 m 1
 238 604 l 2
 238 620 238 647 197 648 c 1
 88 344 l 1
 238 344 l 1
410 867 m 0x18
 408 855 399 845 388 840 c 2
 218 746 l 1
 204 767 l 1
 349 897 l 2
 353 901 363 909 375 909 c 0
 397 909 414 889 410 867 c 0x18
EndSplineSet
Position2: "'cpsp' Capital Spacing lookup 0 subtable" dx=7 dy=0 dh=14 dv=0
EndChar

StartChar: aeacute
Encoding: 509 509 166
Width: 550
Flags: HMW
HStem: -11 22<91.5 150.5> 111 21 132 22 229 21<232 232> 231 21<302 533 302 574 301 533> 288 93 426 22<108 151.5 413 478.5> 510 21G<222 222> 678 20G<347.5 364>
VStem: -49 77<68.5 119 68.5 140> 69 57 244 57<122.5 133.5> 533 66<252 252>
LayerCount: 2
Fore
SplineSet
599 119 m 0x4e38
 599 100 557 -11 444 -11 c 0
 414 -11 336 -3 277 78 c 1
 253 29 191 -11 110 -11 c 0
 43 -11 -49 13 -49 92 c 0
 -49 188 70 250 232 250 c 1x9048
 232 298 l 2
 232 385 177 426 126 426 c 0
 90 426 43 412 18 380 c 1
 64 379 69 346 69 334 c 0
 69 308 51 288 23 288 c 0
 -3 288 -23 305 -23 335 c 0
 -23 402 48 448 128 448 c 0
 192 448 252 419 281 371 c 1
 332 432 388 448 432 448 c 0
 541 448 599 363 599 252 c 0
 599 231 596 231 574 231 c 2
 301 231 l 1
 301 14 438 14 448 14 c 0
 510 14 556 61 571 111 c 0
 576 127 577 131 586 131 c 0
 591 131 599 129 599 119 c 0x4e38
533 252 m 1
 531 291 526 426 431 426 c 0
 395 426 312 398 302 252 c 1x8a48
 533 252 l 1
244 132 m 0
 244 135 244 143 241 154 c 0
 232 185 232 205 232 229 c 1x3010
 70 223 28 146 28 92 c 0
 28 45 68 11 115 11 c 0
 187 11 244 68 244 132 c 0
391 662 m 0x0180
 391 650 383 639 374 632 c 2
 222 510 l 1
 205 528 l 1
 325 681 l 2
 329 687 340 698 355 698 c 0
 373 698 391 680 391 662 c 0x0180
EndSplineSet
EndChar

StartChar: Agrave
Encoding: 192 192 167
Width: 550
Flags: HMW
HStem: 0 31<24.9747 24.9747> 228 31<171.705 335.955 171.705 343.985 163.675 335.955> 696 20G<257.845 281.205 269.525 292.155> 746 21G<315.515 325.735> 889 20G<192.875 205.285>
LayerCount: 2
Fore
SplineSet
525.025 0 m 1
 429.395 3 l 2
 401.654 3 350.555 3 324.275 0 c 1
 324.275 31 l 1
 343.984 31 384.865 31 384.865 61 c 0
 384.865 65 383.404 71 382.674 75 c 2
 343.984 228 l 1
 163.674 228 l 1
 130.096 97 l 2
 129.365 95 128.635 85 128.635 82 c 0
 128.635 56 146.885 31 183.385 31 c 1
 183.385 0 l 1
 99.4355 3 l 1
 24.9746 0 l 1
 24.9746 31 l 1
 64.3945 32 93.5957 47 106.734 98 c 2
 257.846 696 l 2
 261.494 710 263.686 716 275.365 716 c 0
 287.045 716 288.504 709 292.154 696 c 2
 449.834 71 l 2
 457.865 38 468.084 31 511.885 31 c 2
 525.025 31 l 1
 525.025 0 l 1
335.955 259 m 1
 253.465 584 l 1
 171.705 259 l 1
 335.955 259 l 1
325.734 767 m 1x18
 315.516 746 l 1
 191.414 840 l 2
 183.385 845 176.814 855 175.355 867 c 0
 172.436 889 184.846 909 200.904 909 c 0
 209.664 909 216.965 901 219.885 897 c 2
 325.734 767 l 1x18
EndSplineSet
Position2: "'cpsp' Capital Spacing lookup 0 subtable" dx=5 dy=0 dh=10 dv=0
EndChar

StartChar: agrave
Encoding: 224 224 168
Width: 550
Flags: HMW
HStem: -11 22<192 239 192 242.5> -6 31<423 429> 288 90 426 22<211.5 252> 510 21G<312.5 312.5> 678 20G<170.5 187>
VStem: 49.5 77<71 117> 333.5 69<140 240 240 240 261 275> 475.5 25<89 145>
LayerCount: 2
Fore
SplineSet
500.5 89 m 2x7380
 500.5 8 439.5 -6 418.5 -6 c 0x4080
 371.5 -6 344.5 36 340.5 76 c 1
 321.5 29 275.5 -11 209.5 -11 c 0x80
 146.5 -11 49.5 14 49.5 95 c 0
 49.5 139 74.5 191 149.5 225 c 1
 212.5 255 282.5 258 333.5 261 c 1
 333.5 298 l 2
 333.5 387 276.5 426 227.5 426 c 0
 195.5 426 146.5 415 119.5 380 c 1
 165.5 379 170.5 346 170.5 334 c 0
 170.5 308 152.5 288 124.5 288 c 0
 98.5 288 78.5 305 78.5 335 c 0
 78.5 401 147.5 448 229.5 448 c 0
 277.5 448 327.5 432 366.5 393 c 0
 402.5 356 402.5 317 402.5 275 c 2
 402.5 75 l 2
 402.5 70 406.5 25 439.5 25 c 0
 450.5 25 475.5 31 475.5 89 c 2
 475.5 145 l 1
 500.5 145 l 1
 500.5 89 l 2x7380
333.5 140 m 2
 333.5 240 l 1
 168.5 234 126.5 151 126.5 96 c 0
 126.5 46 167.5 11 216.5 11 c 0x83
 261.5 11 333.5 45 333.5 140 c 2
329.5 528 m 1x0c
 312.5 510 l 1
 160.5 632 l 2
 151.5 639 143.5 650 143.5 662 c 0
 143.5 680 161.5 698 179.5 698 c 0
 194.5 698 205.5 687 209.5 681 c 2
 329.5 528 l 1x0c
EndSplineSet
EndChar

StartChar: Ahookabove
Encoding: 7842 7842 169
Width: 550
Flags: HMW
HStem: 0 31<-67.5 -67.5> 228 31<133.5 358.5 133.5 369.5 122.5 358.5> 696 20G<251.5 283.5 267.5 298.5> 758 21G<266 271.5> 947 20G<245 283>
LayerCount: 2
Fore
SplineSet
617.5 0 m 1
 486.5 3 l 2
 448.5 3 378.5 3 342.5 0 c 1
 342.5 31 l 1
 369.5 31 425.5 31 425.5 61 c 0
 425.5 65 423.5 71 422.5 75 c 2
 369.5 228 l 1
 122.5 228 l 1
 76.5 97 l 2
 75.5 95 74.5 85 74.5 82 c 0
 74.5 56 99.5 31 149.5 31 c 1
 149.5 0 l 1
 34.5 3 l 1
 -67.5 0 l 1
 -67.5 31 l 1
 -13.5 32 26.5 47 44.5 98 c 2
 251.5 696 l 2
 256.5 710 259.5 716 275.5 716 c 0
 291.5 716 293.5 709 298.5 696 c 2
 514.5 71 l 2
 525.5 38 539.5 31 599.5 31 c 2
 617.5 31 l 1
 617.5 0 l 1
358.5 259 m 1
 245.5 584 l 1
 133.5 259 l 1
 358.5 259 l 1
372.5 900 m 0x18
 372.5 881 360.5 865 342.5 857 c 0
 302.5 837 278.5 815 278.5 787 c 2
 278.5 768 l 2
 278.5 762 274.5 758 268.5 758 c 0
 263.5 758 258.5 762 258.5 768 c 2
 258.5 787 l 2
 258.5 820 278.5 850 306.5 873 c 0
 314.5 879 318.5 889 318.5 900 c 0
 318.5 919 317.5 929 310.5 935 c 0
 299.5 945 283.5 948 268.5 948 c 0
 245.5 948 225.5 941 212.5 930 c 1
 226.5 928 237.5 917 237.5 900 c 0
 237.5 882 223.5 871 208.5 871 c 0
 192.5 871 178.5 882 178.5 901 c 0
 178.5 942 221.5 967 268.5 967 c 0
 297.5 967 322.5 963 343.5 951 c 0
 361.5 940 372.5 921 372.5 900 c 0x18
EndSplineSet
Position2: "'cpsp' Capital Spacing lookup 0 subtable" dx=7 dy=0 dh=14 dv=0
EndChar

StartChar: ahookabove
Encoding: 7843 7843 170
Width: 550
Flags: HMW
HStem: -11 22<192 239 192 242.5> -6 31<423 429> 288 90 426 22<211.5 252> 500 21G<258 263.5> 689 20G<237 275>
VStem: 49.5 77<71 117> 333.5 69<140 240 240 240 261 275> 475.5 25<89 145>
LayerCount: 2
Fore
SplineSet
500.5 89 m 2x7380
 500.5 8 439.5 -6 418.5 -6 c 0x4080
 371.5 -6 344.5 36 340.5 76 c 1
 321.5 29 275.5 -11 209.5 -11 c 0x80
 146.5 -11 49.5 14 49.5 95 c 0
 49.5 139 74.5 191 149.5 225 c 1
 212.5 255 282.5 258 333.5 261 c 1
 333.5 298 l 2
 333.5 387 276.5 426 227.5 426 c 0
 195.5 426 146.5 415 119.5 380 c 1
 165.5 379 170.5 346 170.5 334 c 0
 170.5 308 152.5 288 124.5 288 c 0
 98.5 288 78.5 305 78.5 335 c 0
 78.5 401 147.5 448 229.5 448 c 0
 277.5 448 327.5 432 366.5 393 c 0
 402.5 356 402.5 317 402.5 275 c 2
 402.5 75 l 2
 402.5 70 406.5 25 439.5 25 c 0
 450.5 25 475.5 31 475.5 89 c 2
 475.5 145 l 1
 500.5 145 l 1
 500.5 89 l 2x7380
333.5 140 m 2
 333.5 240 l 1
 168.5 234 126.5 151 126.5 96 c 0
 126.5 46 167.5 11 216.5 11 c 0x83
 261.5 11 333.5 45 333.5 140 c 2
364.5 642 m 0x0c
 364.5 623 352.5 607 334.5 599 c 0
 294.5 579 270.5 557 270.5 529 c 2
 270.5 510 l 2
 270.5 504 266.5 500 260.5 500 c 0
 255.5 500 250.5 504 250.5 510 c 2
 250.5 529 l 2
 250.5 562 270.5 592 298.5 615 c 0
 306.5 621 310.5 631 310.5 642 c 0
 310.5 661 309.5 671 302.5 677 c 0
 291.5 687 275.5 690 260.5 690 c 0
 237.5 690 217.5 683 204.5 672 c 1
 218.5 670 229.5 659 229.5 642 c 0
 229.5 624 215.5 613 200.5 613 c 0
 184.5 613 170.5 624 170.5 643 c 0
 170.5 684 213.5 709 260.5 709 c 0
 289.5 709 314.5 705 335.5 693 c 0
 353.5 682 364.5 663 364.5 642 c 0x0c
EndSplineSet
EndChar

StartChar: Alpha
Encoding: 913 913 171
Width: 550
Flags: HMW
HStem: 0 31<-67.5 -67.5> 228 31<133.5 358.5 133.5 369.5 122.5 358.5> 696 20G<251.5 283.5 267.5 298.5>
LayerCount: 2
Fore
SplineSet
617.5 0 m 1
 486.5 3 l 2
 448.5 3 378.5 3 342.5 0 c 1
 342.5 31 l 1
 369.5 31 425.5 31 425.5 61 c 0
 425.5 65 423.5 71 422.5 75 c 2
 369.5 228 l 1
 122.5 228 l 1
 76.5 97 l 2
 75.5 95 74.5 85 74.5 82 c 0
 74.5 56 99.5 31 149.5 31 c 1
 149.5 0 l 1
 34.5 3 l 1
 -67.5 0 l 1
 -67.5 31 l 1
 -13.5 32 26.5 47 44.5 98 c 2
 251.5 696 l 2
 256.5 710 259.5 716 275.5 716 c 0
 291.5 716 293.5 709 298.5 696 c 2
 514.5 71 l 2
 525.5 38 539.5 31 599.5 31 c 2
 617.5 31 l 1
 617.5 0 l 1
358.5 259 m 1
 245.5 584 l 1
 133.5 259 l 1
 358.5 259 l 1
EndSplineSet
EndChar

StartChar: Amacron
Encoding: 256 256 172
Width: 550
Flags: HMW
HStem: 0 31<-67.5 -67.5> 228 31<133.5 358.5 133.5 369.5 122.5 358.5> 696 20G<251.5 283.5 267.5 298.5> 756 31<95.5 456.5 95.5 456.5>
LayerCount: 2
Fore
SplineSet
617.5 0 m 1
 486.5 3 l 2
 448.5 3 378.5 3 342.5 0 c 1
 342.5 31 l 1
 369.5 31 425.5 31 425.5 61 c 0
 425.5 65 423.5 71 422.5 75 c 2
 369.5 228 l 1
 122.5 228 l 1
 76.5 97 l 2
 75.5 95 74.5 85 74.5 82 c 0
 74.5 56 99.5 31 149.5 31 c 1
 149.5 0 l 1
 34.5 3 l 1
 -67.5 0 l 1
 -67.5 31 l 1
 -13.5 32 26.5 47 44.5 98 c 2
 251.5 696 l 2
 256.5 710 259.5 716 275.5 716 c 0
 291.5 716 293.5 709 298.5 696 c 2
 514.5 71 l 2
 525.5 38 539.5 31 599.5 31 c 2
 617.5 31 l 1
 617.5 0 l 1
358.5 259 m 1
 245.5 584 l 1
 133.5 259 l 1
 358.5 259 l 1
456.5 756 m 1x10
 95.5 756 l 1
 95.5 787 l 1
 456.5 787 l 1
 456.5 756 l 1x10
EndSplineSet
Position2: "'cpsp' Capital Spacing lookup 0 subtable" dx=5 dy=0 dh=10 dv=0
EndChar

StartChar: amacron
Encoding: 257 257 173
Width: 550
Flags: HMW
HStem: -11 22<192 239 192 242.5> -6 31<423 429> 288 90 426 22<211.5 252> 589 31<87.5 448.5 87.5 448.5>
VStem: 49.5 77<71 117> 333.5 69<140 240 240 240 261 275> 475.5 25<89 145>
LayerCount: 2
Fore
SplineSet
500.5 89 m 2x77
 500.5 8 439.5 -6 418.5 -6 c 0x41
 371.5 -6 344.5 36 340.5 76 c 1
 321.5 29 275.5 -11 209.5 -11 c 0x80
 146.5 -11 49.5 14 49.5 95 c 0
 49.5 139 74.5 191 149.5 225 c 1
 212.5 255 282.5 258 333.5 261 c 1
 333.5 298 l 2
 333.5 387 276.5 426 227.5 426 c 0
 195.5 426 146.5 415 119.5 380 c 1
 165.5 379 170.5 346 170.5 334 c 0
 170.5 308 152.5 288 124.5 288 c 0
 98.5 288 78.5 305 78.5 335 c 0
 78.5 401 147.5 448 229.5 448 c 0
 277.5 448 327.5 432 366.5 393 c 0
 402.5 356 402.5 317 402.5 275 c 2
 402.5 75 l 2
 402.5 70 406.5 25 439.5 25 c 0
 450.5 25 475.5 31 475.5 89 c 2
 475.5 145 l 1
 500.5 145 l 1
 500.5 89 l 2x77
333.5 140 m 2
 333.5 240 l 1
 168.5 234 126.5 151 126.5 96 c 0
 126.5 46 167.5 11 216.5 11 c 0x86
 261.5 11 333.5 45 333.5 140 c 2
448.5 589 m 1x08
 87.5 589 l 1
 87.5 620 l 1
 448.5 620 l 1
 448.5 589 l 1x08
EndSplineSet
EndChar

StartChar: anglearc
Encoding: 8738 8738 174
Width: 550
Flags: HMW
HStem: -83 21G<348 356.5> 563 20G<348 356.5>
VStem: 443.5 40<225 275>
LayerCount: 2
Fore
SplineSet
607.5 20 m 0
 607.5 6 593.5 -4 580.5 1 c 2
 444.5 51 l 1
 425.5 6 400.5 -37 369.5 -75 c 0
 365.5 -80 359.5 -83 353.5 -83 c 0
 342.5 -83 333.5 -74 333.5 -63 c 0
 333.5 -58 335.5 -54 337.5 -51 c 0
 366.5 -15 389.5 24 406.5 65 c 1
 -44.5 231 l 2
 -52.5 234 -57.5 241 -57.5 250 c 0
 -57.5 259 -52.5 266 -44.5 269 c 2
 406.5 435 l 1
 389.5 476 366.5 515 337.5 551 c 0
 335.5 554 333.5 558 333.5 563 c 0
 333.5 574 342.5 583 353.5 583 c 0
 359.5 583 365.5 580 369.5 575 c 0
 400.5 537 425.5 494 444.5 449 c 1
 580.5 499 l 2
 593.5 504 607.5 494 607.5 480 c 0
 607.5 471 602.5 464 594.5 461 c 2
 457.5 411 l 1
 474.5 359 483.5 305 483.5 250 c 0
 483.5 195 474.5 141 457.5 89 c 1
 594.5 39 l 2
 602.5 36 607.5 29 607.5 20 c 0
443.5 250 m 0
 443.5 300 435.5 350 420.5 397 c 1
 20.5 250 l 1
 420.5 103 l 1
 435.5 150 443.5 200 443.5 250 c 0
EndSplineSet
EndChar

StartChar: angleleft
Encoding: 9001 9001 175
Width: 550
Flags: HMW
HStem: -249 21G<356.5 372> 731 20G<367.5 373>
LayerCount: 2
Fore
SplineSet
386.5 -229 m 0
 386.5 -239 377.5 -249 366.5 -249 c 0
 346.5 -249 339.5 -217 333.5 -198 c 1
 172.5 224 l 2
 169.5 232 163.5 242 163.5 251 c 0
 163.5 261 170.5 272 173.5 282 c 2
 197.5 345 l 1
 335.5 705 l 2
 340.5 720 346.5 747 361.5 750 c 0
 363.5 751 367.5 751 367.5 751 c 1
 378.5 751 385.5 741 385.5 730 c 0
 385.5 727 385.5 724 384.5 722 c 0
 369.5 677 350.5 632 333.5 587 c 2
 217.5 283 l 1
 209.5 263 l 2
 208.5 259 206.5 255 206.5 251 c 0
 206.5 243 211.5 234 214.5 226 c 2
 234.5 174 l 1
 372.5 -187 l 1
 376.5 -198 l 2
 379.5 -207 386.5 -219 386.5 -229 c 0
EndSplineSet
EndChar

StartChar: angleright
Encoding: 9002 9002 176
Width: 550
Flags: HMW
HStem: -249 21G<178 183.5 183.5 185.5> 731 20G
LayerCount: 2
Fore
SplineSet
386.5 251 m 0
 386.5 241 379.5 230 376.5 220 c 2
 352.5 157 l 1
 214.5 -205 l 1
 206.5 -226 l 2
 202.5 -236 197.5 -248 185.5 -249 c 1
 183.5 -249 l 2
 172.5 -249 163.5 -240 163.5 -229 c 0
 163.5 -223 166.5 -217 168.5 -212 c 2
 332.5 219 l 1
 340.5 239 l 2
 341.5 243 343.5 247 343.5 251 c 0
 343.5 260 337.5 270 334.5 278 c 2
 176.5 694 l 2
 171.5 705 164.5 717 163.5 729 c 1
 163.5 731 l 2
 163.5 740 170.5 748 178.5 750 c 0
 180.5 751 184.5 751 184.5 751 c 1
 204.5 751 212.5 710 216.5 702 c 2
 376.5 280 l 2
 380.5 271 386.5 261 386.5 251 c 0
EndSplineSet
EndChar

StartChar: Aogonek
Encoding: 260 260 177
Width: 550
Flags: HMW
HStem: -211 47<498.5 517.5> 0 31<-67.5 -67.5> 228 31<133.5 358.5 133.5 369.5 122.5 358.5> 696 20G<251.5 283.5 267.5 298.5>
VStem: 74.5 48 381.5 48<-118 -95>
LayerCount: 2
Fore
SplineSet
617.5 0 m 1
 579.5 2 540.5 4 501.5 4 c 1
 466.5 -20 429.5 -55 429.5 -95 c 0
 429.5 -141 480.5 -164 516.5 -164 c 0
 548.5 -164 576.5 -144 593.5 -108 c 0
 598.5 -98 613.5 -103 610.5 -115 c 0
 594.5 -172 542.5 -211 492.5 -211 c 0
 428.5 -211 381.5 -167 381.5 -121 c 0
 381.5 -69 414.5 -30 462.5 3 c 1
 423.5 3 371.5 2 342.5 0 c 1
 342.5 31 l 1
 369.5 31 425.5 31 425.5 61 c 0
 425.5 65 423.5 71 422.5 75 c 2
 369.5 228 l 1
 122.5 228 l 1
 76.5 97 l 2
 75.5 95 74.5 85 74.5 82 c 0
 74.5 56 99.5 31 149.5 31 c 1
 149.5 0 l 1
 34.5 3 l 1
 -67.5 0 l 1
 -67.5 31 l 1
 -13.5 32 26.5 47 44.5 98 c 2
 251.5 696 l 2
 256.5 710 259.5 716 275.5 716 c 0
 291.5 716 293.5 709 298.5 696 c 2
 514.5 71 l 2
 525.5 38 539.5 31 599.5 31 c 2
 617.5 31 l 1
 617.5 0 l 1
358.5 259 m 1
 245.5 584 l 1
 133.5 259 l 1
 358.5 259 l 1
EndSplineSet
Position2: "'cpsp' Capital Spacing lookup 0 subtable" dx=5 dy=0 dh=10 dv=0
EndChar

StartChar: aogonek
Encoding: 261 261 178
Width: 550
Flags: HMW
HStem: -211 47<385.5 404.5> -11 22<192 239 192 242.5> -6 31<423 429> 426 22<211.5 252>
VStem: 49.5 77<71 117> 78.5 48 268.5 48<-118 -95> 333.5 69<140 240 240 240 261 275> 475.5 25<89 145>
LayerCount: 2
Fore
SplineSet
500.5 89 m 2x3580
 500.5 8 439.5 -6 418.5 -6 c 0x2080
 407.5 -6 397.5 -4 389.5 0 c 1
 354.5 -24 316.5 -55 316.5 -95 c 0
 316.5 -141 367.5 -164 403.5 -164 c 0
 435.5 -164 463.5 -144 480.5 -108 c 0
 485.5 -98 500.5 -103 497.5 -115 c 0
 481.5 -172 429.5 -211 379.5 -211 c 0
 315.5 -211 268.5 -167 268.5 -121 c 0
 268.5 -69 319.5 -15 368.5 15 c 1
 352.5 31 342.5 54 340.5 76 c 1
 321.5 29 275.5 -11 209.5 -11 c 0
 146.5 -11 49.5 14 49.5 95 c 0xca
 49.5 139 74.5 191 149.5 225 c 1
 212.5 255 282.5 258 333.5 261 c 1
 333.5 298 l 2
 333.5 387 276.5 426 227.5 426 c 0
 195.5 426 146.5 415 119.5 380 c 1
 165.5 379 170.5 346 170.5 334 c 0
 170.5 308 152.5 288 124.5 288 c 0
 98.5 288 78.5 305 78.5 335 c 0
 78.5 401 147.5 448 229.5 448 c 0
 277.5 448 327.5 432 366.5 393 c 0
 402.5 356 402.5 317 402.5 275 c 2
 402.5 75 l 2
 402.5 70 406.5 25 439.5 25 c 0
 450.5 25 475.5 31 475.5 89 c 2
 475.5 145 l 1
 500.5 145 l 1
 500.5 89 l 2x3580
333.5 140 m 2
 333.5 240 l 1
 168.5 234 126.5 151 126.5 96 c 0
 126.5 46 167.5 11 216.5 11 c 0x45
 261.5 11 333.5 45 333.5 140 c 2
EndSplineSet
EndChar

StartChar: Aring
Encoding: 197 197 179
Width: 550
Flags: HMW
HStem: 0 31<24.9747 24.9747> 228 31<171.705 335.955 171.705 343.985 163.675 335.955> 716 30<261.495 289.6 261.495 295.075 269.525 281.205> 862 30<261.13 289.235>
VStem: 205.285 24.09<783.5 824 783.5 827> 321.355 24.09<784 824.5>
LayerCount: 2
Fore
SplineSet
525.025 0 m 1
 429.395 3 l 2
 401.654 3 350.555 3 324.275 0 c 1
 324.275 31 l 1
 343.984 31 384.865 31 384.865 61 c 0
 384.865 65 383.404 71 382.674 75 c 2
 343.984 228 l 1
 163.674 228 l 1
 130.096 97 l 2
 129.365 95 128.635 85 128.635 82 c 0
 128.635 56 146.885 31 183.385 31 c 1
 183.385 0 l 1
 99.4355 3 l 1
 24.9746 0 l 1
 24.9746 31 l 1
 64.3945 32 93.5957 47 106.734 98 c 2
 257.846 696 l 2
 261.494 710 263.686 716 275.365 716 c 0
 287.045 716 288.504 709 292.154 696 c 2
 449.834 71 l 2
 457.865 38 468.084 31 511.885 31 c 2
 525.025 31 l 1
 525.025 0 l 1
335.955 259 m 1
 253.465 584 l 1
 171.705 259 l 1
 335.955 259 l 1
321.355 804 m 0x3c
 321.355 845 303.105 862 275.365 862 c 0
 246.895 862 229.375 844 229.375 804 c 0
 229.375 763 247.625 746 275.365 746 c 0
 303.834 746 321.355 764 321.355 804 c 0x3c
345.445 805 m 0
 345.445 756 315.516 716 274.635 716 c 0
 237.404 716 205.285 754 205.285 805 c 0
 205.285 849 233.754 892 276.096 892 c 0
 315.516 892 345.445 851 345.445 805 c 0
EndSplineSet
Position2: "'cpsp' Capital Spacing lookup 0 subtable" dx=5 dy=0 dh=10 dv=0
EndChar

StartChar: aring
Encoding: 229 229 180
Width: 550
Flags: HMW
HStem: -11 22<192 239 192 242.5> -6 31<423 429> 288 90 426 22<211.5 252> 529 30<248.5 287 248.5 294.5> 675 30<248 286.5>
VStem: 49.5 77<71 117> 171.5 33<596.5 637 596.5 640> 330.5 33<597 637.5> 333.5 69<140 240 240 240 261 275> 475.5 25<89 145>
LayerCount: 2
Fore
SplineSet
500.5 89 m 2x7260
 500.5 8 439.5 -6 418.5 -6 c 0x4020
 371.5 -6 344.5 36 340.5 76 c 1
 321.5 29 275.5 -11 209.5 -11 c 0x80
 146.5 -11 49.5 14 49.5 95 c 0
 49.5 139 74.5 191 149.5 225 c 1
 212.5 255 282.5 258 333.5 261 c 1
 333.5 298 l 2
 333.5 387 276.5 426 227.5 426 c 0
 195.5 426 146.5 415 119.5 380 c 1
 165.5 379 170.5 346 170.5 334 c 0
 170.5 308 152.5 288 124.5 288 c 0
 98.5 288 78.5 305 78.5 335 c 0
 78.5 401 147.5 448 229.5 448 c 0
 277.5 448 327.5 432 366.5 393 c 0
 402.5 356 402.5 317 402.5 275 c 2
 402.5 75 l 2
 402.5 70 406.5 25 439.5 25 c 0
 450.5 25 475.5 31 475.5 89 c 2
 475.5 145 l 1
 500.5 145 l 1
 500.5 89 l 2x7260
333.5 140 m 2
 333.5 240 l 1
 168.5 234 126.5 151 126.5 96 c 0
 126.5 46 167.5 11 216.5 11 c 0x8240
 261.5 11 333.5 45 333.5 140 c 2
330.5 617 m 0x0d80
 330.5 658 305.5 675 267.5 675 c 0
 228.5 675 204.5 657 204.5 617 c 0
 204.5 576 229.5 559 267.5 559 c 0
 306.5 559 330.5 577 330.5 617 c 0x0d80
363.5 618 m 0
 363.5 569 322.5 529 266.5 529 c 0
 215.5 529 171.5 567 171.5 618 c 0
 171.5 662 210.5 705 268.5 705 c 0
 322.5 705 363.5 664 363.5 618 c 0
EndSplineSet
EndChar

StartChar: Aringacute
Encoding: 506 506 181
Width: 550
Flags: HMW
HStem: 0 31<-67.5 -67.5> 228 31<133.5 358.5 133.5 369.5 122.5 358.5> 716 30<256.5 295 256.5 302.5 267.5 283.5> 862 30<256 294.5> 1033 30 1055 20G<337.5 354.5>
VStem: 179.5 33<783.5 824 783.5 827> 338.5 33<784 824.5>
LayerCount: 2
Fore
SplineSet
617.5 0 m 1xe0
 486.5 3 l 2
 448.5 3 378.5 3 342.5 0 c 1
 342.5 31 l 1
 369.5 31 425.5 31 425.5 61 c 0
 425.5 65 423.5 71 422.5 75 c 2
 369.5 228 l 1
 122.5 228 l 1
 76.5 97 l 2
 75.5 95 74.5 85 74.5 82 c 0
 74.5 56 99.5 31 149.5 31 c 1
 149.5 0 l 1
 34.5 3 l 1
 -67.5 0 l 1
 -67.5 31 l 1
 -13.5 32 26.5 47 44.5 98 c 2
 251.5 696 l 2
 256.5 710 259.5 716 275.5 716 c 0
 291.5 716 293.5 709 298.5 696 c 2
 514.5 71 l 2
 525.5 38 539.5 31 599.5 31 c 2
 617.5 31 l 1
 617.5 0 l 1xe0
358.5 259 m 1
 245.5 584 l 1
 133.5 259 l 1
 358.5 259 l 1
338.5 804 m 0x37
 338.5 845 313.5 862 275.5 862 c 0
 236.5 862 212.5 844 212.5 804 c 0
 212.5 763 237.5 746 275.5 746 c 0
 314.5 746 338.5 764 338.5 804 c 0x37
371.5 805 m 0
 371.5 756 330.5 716 274.5 716 c 0
 223.5 716 179.5 754 179.5 805 c 0
 179.5 849 218.5 892 276.5 892 c 0
 330.5 892 371.5 851 371.5 805 c 0
378.5 1033 m 0
 376.5 1021 367.5 1011 356.5 1006 c 2
 186.5 912 l 1
 172.5 933 l 1
 317.5 1063 l 2x08
 321.5 1067 331.5 1075 343.5 1075 c 0
 365.5 1075 382.5 1055 378.5 1033 c 0
EndSplineSet
Position2: "'cpsp' Capital Spacing lookup 0 subtable" dx=7 dy=0 dh=14 dv=0
EndChar

StartChar: aringacute
Encoding: 507 507 182
Width: 550
Flags: HMW
HStem: -11 22<192 239 192 242.5> -6 31<423 429> 288 90 426 22<211.5 252> 529 30<248.5 287 248.5 294.5> 675 30<248 286.5> 846 30 868 20G<329.5 346.5>
VStem: 49.5 77<71 117> 171.5 33<596.5 637 596.5 640> 330.5 33<597 637.5> 333.5 69<140 240 240 240 261 275> 475.5 25<89 145>
LayerCount: 2
Fore
SplineSet
500.5 89 m 2x7098
 500.5 8 439.5 -6 418.5 -6 c 0x4008
 371.5 -6 344.5 36 340.5 76 c 1
 321.5 29 275.5 -11 209.5 -11 c 0x80
 146.5 -11 49.5 14 49.5 95 c 0
 49.5 139 74.5 191 149.5 225 c 1
 212.5 255 282.5 258 333.5 261 c 1
 333.5 298 l 2
 333.5 387 276.5 426 227.5 426 c 0
 195.5 426 146.5 415 119.5 380 c 1
 165.5 379 170.5 346 170.5 334 c 0
 170.5 308 152.5 288 124.5 288 c 0
 98.5 288 78.5 305 78.5 335 c 0
 78.5 401 147.5 448 229.5 448 c 0
 277.5 448 327.5 432 366.5 393 c 0
 402.5 356 402.5 317 402.5 275 c 2
 402.5 75 l 2
 402.5 70 406.5 25 439.5 25 c 0
 450.5 25 475.5 31 475.5 89 c 2
 475.5 145 l 1
 500.5 145 l 1
 500.5 89 l 2x7098
333.5 140 m 2
 333.5 240 l 1
 168.5 234 126.5 151 126.5 96 c 0
 126.5 46 167.5 11 216.5 11 c 0x8090
 261.5 11 333.5 45 333.5 140 c 2
330.5 617 m 0x0d60
 330.5 658 305.5 675 267.5 675 c 0
 228.5 675 204.5 657 204.5 617 c 0
 204.5 576 229.5 559 267.5 559 c 0
 306.5 559 330.5 577 330.5 617 c 0x0d60
363.5 618 m 0
 363.5 569 322.5 529 266.5 529 c 0
 215.5 529 171.5 567 171.5 618 c 0
 171.5 662 210.5 705 268.5 705 c 0
 322.5 705 363.5 664 363.5 618 c 0
370.5 846 m 0
 368.5 834 359.5 824 348.5 819 c 2
 178.5 725 l 1
 164.5 746 l 1
 309.5 876 l 2x02
 313.5 880 323.5 888 335.5 888 c 0
 357.5 888 374.5 868 370.5 846 c 0
EndSplineSet
EndChar

StartChar: uni2193
Encoding: 8595 8595 183
Width: 550
Flags: HMW
VStem: 255 40<-62 674 -62 687.5>
LayerCount: 2
Fore
SplineSet
497 36 m 1
 384 10 297 -80 275 -194 c 1
 253 -80 166 10 53 36 c 1
 53 76 l 1
 137 57 208 7 255 -62 c 1
 255 674 l 2
 255 701 295 701 295 674 c 2
 295 -62 l 1
 342 7 413 57 497 76 c 1
 497 36 l 1
EndSplineSet
EndChar

StartChar: uni2190
Encoding: 8592 8592 184
Width: 550
Flags: HMW
HStem: 1 21G<32 72 32 32> 230 41 231 41 481 20G<32 72 72 72>
LayerCount: 2
Fore
SplineSet
719 251 m 0x40
 719 233 704 231 692 231 c 2x20
 -63 230 l 1x40
 -56 226 -51 221 -45 215 c 0
 14 166 60 81 72 1 c 1
 32 1 l 1
 12 102 -46 182 -138 236 c 0
 -148 241 -159 245 -169 251 c 1
 -159 257 -148 261 -138 266 c 0
 -46 320 12 400 32 501 c 1
 72 501 l 1
 62 436 31 372 -11 322 c 0
 -27 303 -46 282 -63 272 c 1xb0
 692 271 l 2
 704 271 719 269 719 251 c 0x40
EndSplineSet
EndChar

StartChar: uni2192
Encoding: 8594 8594 185
Width: 550
Flags: HMW
HStem: 1 21G<478 518 478 478> 230 41 231 41 481 20G<478 518 518 518>
LayerCount: 2
Fore
SplineSet
719 251 m 1x30
 709 245 698 241 688 236 c 0
 596 182 538 102 518 1 c 1
 478 1 l 1
 488 66 519 130 561 180 c 0
 577 199 596 220 613 230 c 1xc0
 -142 231 l 2x20
 -154 231 -169 233 -169 251 c 0
 -169 269 -154 271 -142 271 c 2x40
 613 272 l 1
 606 276 601 281 595 287 c 0
 536 336 490 421 478 501 c 1
 518 501 l 1
 538 400 596 320 688 266 c 0
 698 261 709 257 719 251 c 1x30
EndSplineSet
EndChar

StartChar: uni2191
Encoding: 8593 8593 186
Width: 550
Flags: HMW
VStem: 255 40<-174 562>
LayerCount: 2
Fore
SplineSet
497 424 m 1
 413 443 342 493 295 562 c 1
 295 -174 l 2
 295 -201 255 -201 255 -174 c 2
 255 562 l 1
 208 493 137 443 53 424 c 1
 53 464 l 1
 166 490 253 580 275 694 c 1
 297 580 384 490 497 464 c 1
 497 424 l 1
EndSplineSet
EndChar

StartChar: asterisk.math
Encoding: 8727 8727 187
Width: 550
Flags: HMW
HStem: 36 21G<267.5 275 275 277> 446 20G<275 277 277 285.5>
VStem: 247 53<83 83 83 91> 262 197<150.5 229 150.5 300.5>
LayerCount: 2
Fore
SplineSet
459 158 m 0x10
 459 143 446 130 431 130 c 0
 417 130 405 142 394 150 c 2
 287 229 l 1
 287 211 290 192 292 174 c 2
 300 83 l 2
 301 77 302 71 302 65 c 0
 302 52 292 36 277 36 c 2
 275 36 l 2
 260 36 247 48 247 64 c 0xa0
 247 118 262 175 262 229 c 1
 155 150 l 2
 144 142 132 130 118 130 c 0
 102 130 91 144 91 158 c 0
 91 179 111 185 126 192 c 2
 165 210 l 2
 192 223 221 241 250 250 c 1
 250 252 l 1
 221 261 192 279 165 292 c 2
 126 310 l 2
 111 317 91 323 91 344 c 0
 91 358 102 372 118 372 c 0
 132 372 144 360 155 352 c 2
 262 273 l 1x10
 262 328 247 382 247 438 c 0
 247 454 260 466 275 466 c 2
 277 466 l 2
 294 466 302 448 302 437 c 0
 302 431 301 425 300 419 c 2x60
 292 328 l 2
 290 310 287 291 287 273 c 1
 394 352 l 2
 405 360 417 372 431 372 c 0
 446 372 459 359 459 344 c 0
 459 324 437 317 423 310 c 2
 384 292 l 2
 357 279 328 261 299 252 c 1
 299 250 l 1
 328 241 357 223 384 210 c 2
 423 192 l 2
 437 185 459 178 459 158 c 0x10
EndSplineSet
EndChar

StartChar: Atilde
Encoding: 195 195 188
Width: 550
Flags: HMW
HStem: 0 31<24.9747 24.9747> 228 31<171.705 335.955 171.705 343.985 163.675 335.955> 696 20G<257.845 281.205 269.525 292.155> 736 45<317.34 332.305> 784 45<219.155 234.12>
LayerCount: 2
Fore
SplineSet
525.025 0 m 1
 429.395 3 l 2
 401.654 3 350.555 3 324.275 0 c 1
 324.275 31 l 1
 343.984 31 384.865 31 384.865 61 c 0
 384.865 65 383.404 71 382.674 75 c 2
 343.984 228 l 1
 163.674 228 l 1
 130.096 97 l 2
 129.365 95 128.635 85 128.635 82 c 0
 128.635 56 146.885 31 183.385 31 c 1
 183.385 0 l 1
 99.4355 3 l 1
 24.9746 0 l 1
 24.9746 31 l 1
 64.3945 32 93.5957 47 106.734 98 c 2
 257.846 696 l 2
 261.494 710 263.686 716 275.365 716 c 0
 287.045 716 288.504 709 292.154 696 c 2
 449.834 71 l 2
 457.865 38 468.084 31 511.885 31 c 2
 525.025 31 l 1
 525.025 0 l 1
335.955 259 m 1
 253.465 584 l 1
 171.705 259 l 1
 335.955 259 l 1
397.275 814 m 1x18
 360.045 758 346.174 736 318.436 736 c 0
 306.025 736 292.885 743 273.174 759 c 0
 260.766 769 242.516 784 225.725 784 c 0
 193.605 784 165.865 736 165.865 736 c 1
 154.186 751 l 1
 191.414 807 205.285 829 233.025 829 c 0
 245.436 829 258.574 822 278.285 806 c 0
 290.695 796 308.945 781 325.734 781 c 0
 357.855 781 385.596 829 385.596 829 c 1
 397.275 814 l 1x18
EndSplineSet
Position2: "'cpsp' Capital Spacing lookup 0 subtable" dx=5 dy=0 dh=10 dv=0
EndChar

StartChar: atilde
Encoding: 227 227 189
Width: 550
Flags: HMW
HStem: -11 22<192 239 192 242.5> -6 31<423 429> 288 90 426 22<211.5 252> 558 45<325 345.5> 606 45<190.5 211>
VStem: 49.5 77<71 117> 333.5 69<140 240 240 240 261 275> 475.5 25<89 145>
LayerCount: 2
Fore
SplineSet
500.5 89 m 2x7380
 500.5 8 439.5 -6 418.5 -6 c 0x4080
 371.5 -6 344.5 36 340.5 76 c 1
 321.5 29 275.5 -11 209.5 -11 c 0x80
 146.5 -11 49.5 14 49.5 95 c 0
 49.5 139 74.5 191 149.5 225 c 1
 212.5 255 282.5 258 333.5 261 c 1
 333.5 298 l 2
 333.5 387 276.5 426 227.5 426 c 0
 195.5 426 146.5 415 119.5 380 c 1
 165.5 379 170.5 346 170.5 334 c 0
 170.5 308 152.5 288 124.5 288 c 0
 98.5 288 78.5 305 78.5 335 c 0
 78.5 401 147.5 448 229.5 448 c 0
 277.5 448 327.5 432 366.5 393 c 0
 402.5 356 402.5 317 402.5 275 c 2
 402.5 75 l 2
 402.5 70 406.5 25 439.5 25 c 0
 450.5 25 475.5 31 475.5 89 c 2
 475.5 145 l 1
 500.5 145 l 1
 500.5 89 l 2x7380
333.5 140 m 2
 333.5 240 l 1
 168.5 234 126.5 151 126.5 96 c 0
 126.5 46 167.5 11 216.5 11 c 0x83
 261.5 11 333.5 45 333.5 140 c 2
434.5 636 m 1x0c
 383.5 580 364.5 558 326.5 558 c 0
 309.5 558 291.5 565 264.5 581 c 0
 247.5 591 222.5 606 199.5 606 c 0
 155.5 606 117.5 558 117.5 558 c 1
 101.5 573 l 1
 152.5 629 171.5 651 209.5 651 c 0
 226.5 651 244.5 644 271.5 628 c 0
 288.5 618 313.5 603 336.5 603 c 0
 380.5 603 418.5 651 418.5 651 c 1
 434.5 636 l 1x0c
EndSplineSet
EndChar

StartChar: baht
Encoding: 3647 3647 190
Width: 550
Flags: HMW
HStem: 0 31<-32.5 -8.5 -8.5 30 202.5 262.5 -32.5 -8.5 292.5 327.5 327.5 359.5> 344 22<153.5 262.5 153.5 262.5 292.5 298.5 298.5 341.5> 652 31<-32.5 -8.5 -32.5 262.5 179 202.5 202.5 262.5 -32.5 292.5 292.5 326.5>
VStem: 70.5 83<78 344 366 605 605 612> 262.5 97<-30 0 0 0 0 344> 292.5 97 458.5 97<482 540.5> 482.5 100<148.5 217.5>
LayerCount: 2
Fore
SplineSet
582.5 183 m 0x26
 582.5 89 492.5 0 359.5 0 c 2xc9
 292.5 0 l 1
 292.5 -30 l 2x84
 292.5 -38 285.5 -45 277.5 -45 c 0
 269.5 -45 262.5 -38 262.5 -30 c 2
 262.5 0 l 1
 -32.5 0 l 1
 -32.5 31 l 1
 -8.5 31 l 2
 68.5 31 70.5 42 70.5 78 c 2
 70.5 605 l 2
 70.5 641 68.5 652 -8.5 652 c 2
 -32.5 652 l 1
 -32.5 683 l 1
 262.5 683 l 1
 262.5 713 l 2xb8
 262.5 722 269.5 728 277.5 728 c 0
 285.5 728 292.5 722 292.5 713 c 2
 292.5 683 l 1
 333.5 683 l 2
 463.5 683 555.5 601 555.5 514 c 0
 555.5 440 486.5 376 389.5 357 c 1
 500.5 345 582.5 270 582.5 183 c 0x26
458.5 514 m 0
 458.5 567 423.5 652 326.5 652 c 2
 292.5 652 l 1
 292.5 366 l 1x76
 298.5 366 l 2
 409.5 366 458.5 450 458.5 514 c 0
262.5 366 m 1
 262.5 652 l 1xe8
 202.5 652 l 2
 155.5 652 153.5 645 153.5 612 c 2
 153.5 366 l 1
 262.5 366 l 1
482.5 184 m 0
 482.5 251 440.5 344 341.5 344 c 2
 292.5 344 l 1
 292.5 31 l 1xd5
 327.5 31 l 2
 430.5 31 482.5 113 482.5 184 c 0
262.5 31 m 1
 262.5 344 l 1xc8
 153.5 344 l 1
 153.5 71 l 2
 153.5 38 155.5 31 202.5 31 c 2
 262.5 31 l 1
EndSplineSet
EndChar

StartChar: Beta
Encoding: 914 914 191
Width: 550
Flags: HMW
HStem: 0 31<-32.5 -8.5 -8.5 30 202.5 327.5 327.5 359.5 -32.5 -8.5> 344 22<153.5 298.5 298.5 341.5 153.5 298.5> 652 31<-32.5 -8.5 -32.5 333.5 179 202.5 202.5 326.5>
VStem: 70.5 83<78 344 366 605 605 612> 458.5 97<482 540.5> 482.5 100<148.5 217.5>
LayerCount: 2
Fore
SplineSet
582.5 183 m 0xb8
 582.5 89 492.5 0 359.5 0 c 2
 -32.5 0 l 1
 -32.5 31 l 1
 -8.5 31 l 2
 68.5 31 70.5 42 70.5 78 c 2
 70.5 605 l 2
 70.5 641 68.5 652 -8.5 652 c 2
 -32.5 652 l 1
 -32.5 683 l 1
 333.5 683 l 2
 463.5 683 555.5 601 555.5 514 c 0
 555.5 440 486.5 376 389.5 357 c 1
 500.5 345 582.5 270 582.5 183 c 0xb8
458.5 514 m 0
 458.5 567 423.5 652 326.5 652 c 2
 202.5 652 l 2
 155.5 652 153.5 645 153.5 612 c 2
 153.5 366 l 1
 298.5 366 l 2
 409.5 366 458.5 450 458.5 514 c 0
482.5 184 m 0
 482.5 251 440.5 344 341.5 344 c 2
 153.5 344 l 1
 153.5 71 l 2
 153.5 38 155.5 31 202.5 31 c 2
 327.5 31 l 2
 430.5 31 482.5 113 482.5 184 c 0
EndSplineSet
EndChar

StartChar: blanksymbol
Encoding: 9250 9250 192
Width: 550
Flags: HMW
HStem: -11 22<272 321.5 272 358> 72 42 420 22<292.5 327> 435 22<33.5 53.5> 485 42<106.5 106.5> 548 42<172.5 172.5> 635 22<243.5 264.5> 652 42 661 22
VStem: 106.5 66<377 485 485 485 527 548 590 596 596 620.5> 106.5 83 243.5 66 438.5 83<198.5 237.5>
LayerCount: 2
Fore
SplineSet
521.5 216 m 0x26d0
 521.5 87 417.5 -11 298.5 -11 c 0
 224.5 -11 182.5 39 167.5 62 c 1
 131.5 0 l 1
 106.5 0 l 1
 106.5 485 l 1
 53.5 435 l 2
 51.5 433 47.5 431 43.5 431 c 0
 35.5 431 28.5 438 28.5 446 c 0
 28.5 450 30.5 454 33.5 457 c 2
 106.5 527 l 1
 106.5 596 l 2
 106.5 645 98.5 652 28.5 652 c 1xd928
 28.5 683 l 1x0080
 172.5 694 l 1x0140
 172.5 590 l 1
 243.5 657 l 2
 246.5 660 249.5 661 253.5 661 c 0
 262.5 661 268.5 655 268.5 646 c 0
 268.5 642 267.5 638 264.5 635 c 2
 172.5 548 l 1
 172.5 377 l 1
 188.5 395 231.5 442 309.5 442 c 0
 423.5 442 521.5 343 521.5 216 c 0x26d0
438.5 217 m 0
 438.5 258 435.5 315 409.5 356 c 0
 385.5 394 349.5 420 304.5 420 c 0x2008
 280.5 420 225.5 412 186.5 356 c 0
 175.5 340 175.5 339 175.5 320 c 2
 175.5 114 l 2
 175.5 96 175.5 93 189.5 72 c 0
 213.5 35 249.5 11 294.5 11 c 0
 348.5 11 386.5 44 407.5 75 c 0
 436.5 120 438.5 180 438.5 217 c 0
EndSplineSet
EndChar

StartChar: breve
Encoding: 728 728 193
Width: 550
Flags: HMW
HStem: 518 38<244 305 244 313.5> 670 20G<125.5 147.5 147.5 147.5 402.5 424.5 424.5 424.5>
LayerCount: 2
Fore
SplineSet
424.5 690 m 1
 422.5 585 352.5 518 274.5 518 c 0
 200.5 518 127.5 582 125.5 690 c 1
 147.5 690 l 1
 149.5 605 212.5 556 275.5 556 c 0
 334.5 556 400.5 603 402.5 690 c 1
 424.5 690 l 1
EndSplineSet
EndChar

StartChar: uni032E
Encoding: 814 814 194
Width: 550
Flags: HMW
HStem: -233 38<244 305 244 313.5> -81 20G<125.5 147.5 147.5 147.5 402.5 424.5 424.5 424.5>
LayerCount: 2
Fore
SplineSet
424.5 -61 m 1
 422.5 -166 352.5 -233 274.5 -233 c 0
 200.5 -233 127.5 -169 125.5 -61 c 1
 147.5 -61 l 1
 149.5 -146 212.5 -195 275.5 -195 c 0
 334.5 -195 400.5 -148 402.5 -61 c 1
 424.5 -61 l 1
EndSplineSet
EndChar

StartChar: uni032F
Encoding: 815 815 195
Width: 550
Flags: HMW
HStem: -233 21G<125.5 147.5 125.5 125.5 402.5 424.5 402.5 402.5> -99 38<245 306>
LayerCount: 2
Fore
SplineSet
424.5 -233 m 1
 402.5 -233 l 1
 400.5 -148 337.5 -99 274.5 -99 c 0
 215.5 -99 149.5 -146 147.5 -233 c 1
 125.5 -233 l 1
 127.5 -128 197.5 -61 275.5 -61 c 0
 349.5 -61 422.5 -125 424.5 -233 c 1
EndSplineSet
EndChar

StartChar: uni0306
Encoding: 774 774 196
Width: 550
Flags: HMW
HStem: 518 38<244 305 244 313.5> 670 20G<125.5 147.5 147.5 147.5 402.5 424.5 424.5 424.5>
LayerCount: 2
Fore
SplineSet
424.5 690 m 1
 422.5 585 352.5 518 274.5 518 c 0
 200.5 518 127.5 582 125.5 690 c 1
 147.5 690 l 1
 149.5 605 212.5 556 275.5 556 c 0
 334.5 556 400.5 603 402.5 690 c 1
 424.5 690 l 1
EndSplineSet
EndChar

StartChar: uni0311
Encoding: 785 785 197
Width: 550
Flags: HMW
HStem: 518 21G<125.5 147.5 125.5 125.5 402.5 424.5 402.5 402.5> 652 38<245 306>
LayerCount: 2
Fore
SplineSet
424.5 518 m 1
 402.5 518 l 1
 400.5 603 337.5 652 274.5 652 c 0
 215.5 652 149.5 605 147.5 518 c 1
 125.5 518 l 1
 127.5 623 197.5 690 275.5 690 c 0
 349.5 690 422.5 626 424.5 518 c 1
EndSplineSet
EndChar

StartChar: brokenbar
Encoding: 166 166 198
Width: 550
Flags: HMW
HStem: -250 21G<265 285> 730 20G<265 285>
VStem: 255 40<-217 157 343 717>
LayerCount: 2
Fore
SplineSet
295 343 m 2
 295 334 285 328 275 328 c 0
 265 328 255 334 255 343 c 2
 255 717 l 2
 255 731 255 750 275 750 c 0
 295 750 295 731 295 717 c 2
 295 343 l 2
295 -217 m 2
 295 -231 295 -250 275 -250 c 0
 255 -250 255 -231 255 -217 c 2
 255 157 l 2
 255 166 265 172 275 172 c 0
 285 172 295 166 295 157 c 2
 295 -217 l 2
EndSplineSet
EndChar

StartChar: bullet
Encoding: 8226 8226 199
Width: 550
Flags: HMW
HStem: 87 288<235.5 314.5>
VStem: 131 288<191.5 270.5>
LayerCount: 2
Fore
SplineSet
419 231 m 0
 419 152 354 87 275 87 c 0
 196 87 131 152 131 231 c 0
 131 310 196 375 275 375 c 0
 354 375 419 310 419 231 c 0
EndSplineSet
EndChar

StartChar: Cacute
Encoding: 262 262 200
Width: 550
Flags: HMW
HStem: -22 31<300 385 300 400> 674 31<299 366.5 225 384> 746 21G<242.5 256.5> 889 20G<407.5 424.5>
VStem: -29.5 103<238.5 444> 549.5 30
LayerCount: 2
Fore
SplineSet
579.5 233 m 0
 579.5 117 481.5 -22 318.5 -22 c 0
 132.5 -22 -29.5 135 -29.5 342 c 0
 -29.5 546 131.5 705 318.5 705 c 0
 414.5 705 465.5 655 502.5 619 c 1
 552.5 693 l 2
 560.5 705 564.5 705 568.5 705 c 0
 579.5 705 579.5 698 579.5 681 c 2
 579.5 444 l 2
 579.5 423 579.5 420 563.5 420 c 0
 549.5 420 549.5 423 547.5 437 c 0
 527.5 583 438.5 674 329.5 674 c 0
 268.5 674 73.5 640 73.5 341 c 0
 73.5 43 269.5 9 330.5 9 c 0
 439.5 9 546.5 91 554.5 234 c 0
 555.5 244 555.5 250 566.5 250 c 0
 579.5 250 579.5 243 579.5 233 c 0
448.5 867 m 0x30
 446.5 855 437.5 845 426.5 840 c 2
 256.5 746 l 1
 242.5 767 l 1
 387.5 897 l 2
 391.5 901 401.5 909 413.5 909 c 0
 435.5 909 452.5 889 448.5 867 c 0x30
EndSplineSet
Position2: "'cpsp' Capital Spacing lookup 0 subtable" dx=5 dy=0 dh=10 dv=0
EndChar

